<mxfile host="app.diagrams.net" modified="2024-05-08T11:49:33.402Z" agent="Mozilla/5.0 (Windows NT 10.0; Win64; x64) AppleWebKit/537.36 (KHTML, like Gecko) Chrome/124.0.0.0 Safari/537.36" etag="pHvQbLKrgvO-mgcCmyy5" version="24.3.1" type="github" pages="28">
  <diagram id="rfpji_oR26iXnu8gp6y1" name="Level 0">
    <mxGraphModel grid="1" page="1" gridSize="10" guides="1" tooltips="1" connect="1" arrows="1" fold="1" pageScale="1" pageWidth="850" pageHeight="1100" math="0" shadow="0">
      <root>
        <mxCell id="0" />
        <mxCell id="1" parent="0" />
        <mxCell id="0mhNjmgYB0Y-DOcjIdjo-2" style="edgeStyle=orthogonalEdgeStyle;rounded=0;orthogonalLoop=1;jettySize=auto;html=1;exitX=1;exitY=0.5;exitDx=0;exitDy=0;entryX=0;entryY=0.5;entryDx=0;entryDy=0;" parent="1" source="hsHpLRedmGUpxv28fJCq-1" target="hsHpLRedmGUpxv28fJCq-3" edge="1">
          <mxGeometry relative="1" as="geometry" />
        </mxCell>
        <UserObject label="&lt;font style=&quot;font-size: 14px;&quot;&gt;Audit Assignment&lt;/font&gt;" link="data:page/id,eqj7dofn9CjHiGEiGSkg" id="hsHpLRedmGUpxv28fJCq-1">
          <mxCell style="rounded=0;whiteSpace=wrap;html=1;fillColor=#dae8fc;gradientColor=#7ea6e0;strokeColor=#6c8ebf;" parent="1" vertex="1">
            <mxGeometry x="90" y="130" width="180" height="110" as="geometry" />
          </mxCell>
        </UserObject>
        <mxCell id="R-wgg5idn1Y15YCdLTjT-2" style="edgeStyle=orthogonalEdgeStyle;rounded=0;orthogonalLoop=1;jettySize=auto;html=1;exitX=0.5;exitY=1;exitDx=0;exitDy=0;entryX=0.5;entryY=0;entryDx=0;entryDy=0;" parent="1" source="hsHpLRedmGUpxv28fJCq-3" target="R-wgg5idn1Y15YCdLTjT-1" edge="1">
          <mxGeometry relative="1" as="geometry" />
        </mxCell>
        <mxCell id="VFR_48jpGrIL5741-kXr-2" style="edgeStyle=orthogonalEdgeStyle;rounded=0;orthogonalLoop=1;jettySize=auto;html=1;" edge="1" parent="1" source="hsHpLRedmGUpxv28fJCq-3">
          <mxGeometry relative="1" as="geometry">
            <mxPoint x="690" y="185" as="targetPoint" />
          </mxGeometry>
        </mxCell>
        <UserObject label="&lt;font style=&quot;font-size: 14px;&quot;&gt;Audit Plan&lt;/font&gt;" id="hsHpLRedmGUpxv28fJCq-3">
          <mxCell style="rounded=0;whiteSpace=wrap;html=1;fillColor=#d5e8d4;gradientColor=#97d077;strokeColor=#82b366;" parent="1" vertex="1">
            <mxGeometry x="390" y="130" width="220" height="110" as="geometry" />
          </mxCell>
        </UserObject>
        <mxCell id="0mhNjmgYB0Y-DOcjIdjo-1" value="&lt;font style=&quot;font-size: 28px;&quot;&gt;&lt;b&gt;&lt;u&gt;Audit Managment LVL 0&lt;/u&gt;&lt;/b&gt;&lt;/font&gt;" style="text;html=1;align=center;verticalAlign=middle;resizable=0;points=[];autosize=1;strokeColor=none;fillColor=none;" parent="1" vertex="1">
          <mxGeometry x="330" y="40" width="340" height="50" as="geometry" />
        </mxCell>
        <UserObject label="&lt;br&gt;Display Calender View &lt;br&gt;To Create Audit Plan" link="data:page/id,SO7P523GmKmao4ISK2ce" id="R-wgg5idn1Y15YCdLTjT-1">
          <mxCell style="rounded=0;whiteSpace=wrap;html=1;fillColor=#f8cecc;strokeColor=#b85450;" parent="1" vertex="1">
            <mxGeometry x="390" y="320" width="220" height="110" as="geometry" />
          </mxCell>
        </UserObject>
        <UserObject label="&lt;font style=&quot;font-size: 14px;&quot;&gt;Independent Management Preview&amp;nbsp;&lt;/font&gt;" link="data:page/id,E-SuewBdt1aC3bwkr6U8" id="VFR_48jpGrIL5741-kXr-3">
          <mxCell style="rounded=0;whiteSpace=wrap;html=1;fillColor=#fff2cc;gradientColor=#ffd966;strokeColor=#d6b656;" vertex="1" parent="1">
            <mxGeometry x="690" y="130" width="220" height="110" as="geometry" />
          </mxCell>
        </UserObject>
      </root>
    </mxGraphModel>
  </diagram>
  <diagram id="eqj7dofn9CjHiGEiGSkg" name="Audit Assignment Lvl 1">
    <mxGraphModel grid="1" page="1" gridSize="10" guides="1" tooltips="1" connect="1" arrows="1" fold="1" pageScale="1" pageWidth="850" pageHeight="1100" math="0" shadow="0">
      <root>
        <mxCell id="0" />
        <mxCell id="1" parent="0" />
        <mxCell id="SAJ0wneW6CKfJWXqG2Ua-1" style="edgeStyle=orthogonalEdgeStyle;rounded=0;orthogonalLoop=1;jettySize=auto;html=1;" parent="1" edge="1">
          <mxGeometry relative="1" as="geometry">
            <mxPoint x="230" y="140" as="targetPoint" />
            <mxPoint x="189.99998513673916" y="140.0344827586207" as="sourcePoint" />
          </mxGeometry>
        </mxCell>
        <mxCell id="SAJ0wneW6CKfJWXqG2Ua-2" style="edgeStyle=orthogonalEdgeStyle;rounded=0;orthogonalLoop=1;jettySize=auto;html=1;exitX=1;exitY=0.5;exitDx=0;exitDy=0;" parent="1" source="SAJ0wneW6CKfJWXqG2Ua-3" target="SAJ0wneW6CKfJWXqG2Ua-5" edge="1">
          <mxGeometry relative="1" as="geometry" />
        </mxCell>
        <mxCell id="SAJ0wneW6CKfJWXqG2Ua-3" value="Create Audit Assignments&lt;div&gt;&lt;br/&gt;&lt;/div&gt;" style="rounded=0;whiteSpace=wrap;html=1;" parent="1" vertex="1">
          <mxGeometry x="230" y="110" width="120" height="60" as="geometry" />
        </mxCell>
        <mxCell id="SAJ0wneW6CKfJWXqG2Ua-4" style="edgeStyle=orthogonalEdgeStyle;rounded=0;orthogonalLoop=1;jettySize=auto;html=1;exitX=1;exitY=0.5;exitDx=0;exitDy=0;" parent="1" source="SAJ0wneW6CKfJWXqG2Ua-5" edge="1">
          <mxGeometry relative="1" as="geometry">
            <mxPoint x="570" y="140.31034482758628" as="targetPoint" />
          </mxGeometry>
        </mxCell>
        <mxCell id="I5ZpIJIE4egVTc65DaZ7-1" style="edgeStyle=orthogonalEdgeStyle;rounded=0;orthogonalLoop=1;jettySize=auto;html=1;exitX=0.5;exitY=1;exitDx=0;exitDy=0;entryX=0.5;entryY=0;entryDx=0;entryDy=0;" edge="1" parent="1" source="SAJ0wneW6CKfJWXqG2Ua-5" target="I5ZpIJIE4egVTc65DaZ7-2">
          <mxGeometry relative="1" as="geometry">
            <mxPoint x="450" y="200" as="targetPoint" />
          </mxGeometry>
        </mxCell>
        <mxCell id="SAJ0wneW6CKfJWXqG2Ua-5" value="Update Audit Assignment" style="rounded=0;whiteSpace=wrap;html=1;" parent="1" vertex="1">
          <mxGeometry x="390" y="110" width="120" height="60" as="geometry" />
        </mxCell>
        <mxCell id="I5ZpIJIE4egVTc65DaZ7-3" style="edgeStyle=orthogonalEdgeStyle;rounded=0;orthogonalLoop=1;jettySize=auto;html=1;exitX=0.5;exitY=1;exitDx=0;exitDy=0;" edge="1" parent="1" source="SAJ0wneW6CKfJWXqG2Ua-7">
          <mxGeometry relative="1" as="geometry">
            <mxPoint x="645" y="210" as="targetPoint" />
          </mxGeometry>
        </mxCell>
        <mxCell id="I5ZpIJIE4egVTc65DaZ7-5" style="edgeStyle=orthogonalEdgeStyle;rounded=0;orthogonalLoop=1;jettySize=auto;html=1;exitX=1;exitY=0.5;exitDx=0;exitDy=0;entryX=1;entryY=0.5;entryDx=0;entryDy=0;" edge="1" parent="1" source="SAJ0wneW6CKfJWXqG2Ua-7" target="SAJ0wneW6CKfJWXqG2Ua-10">
          <mxGeometry relative="1" as="geometry" />
        </mxCell>
        <mxCell id="SAJ0wneW6CKfJWXqG2Ua-7" value="Approve Audit Assignment then send eGP Creation Request" style="rounded=0;whiteSpace=wrap;html=1;" parent="1" vertex="1">
          <mxGeometry x="570" y="110" width="150" height="60" as="geometry" />
        </mxCell>
        <mxCell id="SAJ0wneW6CKfJWXqG2Ua-8" style="edgeStyle=orthogonalEdgeStyle;rounded=0;orthogonalLoop=1;jettySize=auto;html=1;exitX=0;exitY=0.5;exitDx=0;exitDy=0;" parent="1" source="SAJ0wneW6CKfJWXqG2Ua-10" edge="1">
          <mxGeometry relative="1" as="geometry">
            <mxPoint x="520" y="360.3103448275863" as="targetPoint" />
          </mxGeometry>
        </mxCell>
        <mxCell id="I5ZpIJIE4egVTc65DaZ7-10" style="edgeStyle=orthogonalEdgeStyle;rounded=0;orthogonalLoop=1;jettySize=auto;html=1;entryX=0.5;entryY=0;entryDx=0;entryDy=0;" edge="1" parent="1" source="SAJ0wneW6CKfJWXqG2Ua-10" target="SAJ0wneW6CKfJWXqG2Ua-18">
          <mxGeometry relative="1" as="geometry" />
        </mxCell>
        <mxCell id="SAJ0wneW6CKfJWXqG2Ua-10" value="Approver" style="rhombus;whiteSpace=wrap;html=1;" parent="1" vertex="1">
          <mxGeometry x="605" y="330" width="70" height="60" as="geometry" />
        </mxCell>
        <mxCell id="SAJ0wneW6CKfJWXqG2Ua-18" value="Rejected For Audit Plan" style="rounded=0;whiteSpace=wrap;html=1;" parent="1" vertex="1">
          <mxGeometry x="540" y="450" width="200" height="32" as="geometry" />
        </mxCell>
        <mxCell id="SAJ0wneW6CKfJWXqG2Ua-19" style="edgeStyle=orthogonalEdgeStyle;rounded=0;orthogonalLoop=1;jettySize=auto;html=1;exitX=0;exitY=0.5;exitDx=0;exitDy=0;" parent="1" source="SAJ0wneW6CKfJWXqG2Ua-20" target="SAJ0wneW6CKfJWXqG2Ua-21" edge="1">
          <mxGeometry relative="1" as="geometry">
            <mxPoint x="190" y="360.3103448275863" as="targetPoint" />
          </mxGeometry>
        </mxCell>
        <mxCell id="SAJ0wneW6CKfJWXqG2Ua-20" value="Procced to Audit Plan" style="rounded=0;whiteSpace=wrap;html=1;" parent="1" vertex="1">
          <mxGeometry x="400" y="330" width="120" height="60" as="geometry" />
        </mxCell>
        <UserObject label="End" link="data:page/id,rfpji_oR26iXnu8gp6y1" id="SAJ0wneW6CKfJWXqG2Ua-21">
          <mxCell style="ellipse;whiteSpace=wrap;html=1;aspect=fixed;" parent="1" vertex="1">
            <mxGeometry x="270" y="320.0003448275863" width="80" height="80" as="geometry" />
          </mxCell>
        </UserObject>
        <mxCell id="SAJ0wneW6CKfJWXqG2Ua-22" value="&lt;font style=&quot;font-size: 22px;&quot;&gt;&lt;b&gt;&lt;u&gt;Audit Assignments&lt;/u&gt;&lt;/b&gt;&lt;/font&gt;" style="text;html=1;align=center;verticalAlign=middle;resizable=0;points=[];autosize=1;strokeColor=none;fillColor=none;strokeWidth=4;" parent="1" vertex="1">
          <mxGeometry x="240" y="33" width="220" height="40" as="geometry" />
        </mxCell>
        <mxCell id="SAJ0wneW6CKfJWXqG2Ua-23" value="Start" style="ellipse;whiteSpace=wrap;html=1;aspect=fixed;" parent="1" vertex="1">
          <mxGeometry x="110" y="100" width="80" height="80" as="geometry" />
        </mxCell>
        <mxCell id="I5ZpIJIE4egVTc65DaZ7-2" value="Assign Users with Start-End Date" style="rounded=0;whiteSpace=wrap;html=1;" vertex="1" parent="1">
          <mxGeometry x="390" y="210" width="120" height="60" as="geometry" />
        </mxCell>
        <mxCell id="I5ZpIJIE4egVTc65DaZ7-8" style="edgeStyle=orthogonalEdgeStyle;rounded=0;orthogonalLoop=1;jettySize=auto;html=1;exitX=0.5;exitY=1;exitDx=0;exitDy=0;entryX=0.5;entryY=0;entryDx=0;entryDy=0;" edge="1" parent="1" source="I5ZpIJIE4egVTc65DaZ7-4" target="SAJ0wneW6CKfJWXqG2Ua-10">
          <mxGeometry relative="1" as="geometry" />
        </mxCell>
        <mxCell id="I5ZpIJIE4egVTc65DaZ7-4" value="Audit Associate Revert Request" style="rounded=0;whiteSpace=wrap;html=1;" vertex="1" parent="1">
          <mxGeometry x="560" y="210" width="160" height="60" as="geometry" />
        </mxCell>
      </root>
    </mxGraphModel>
  </diagram>
  <diagram name="Global Audit Plan LVL 0" id="SO7P523GmKmao4ISK2ce">
    <mxGraphModel grid="1" page="1" gridSize="10" guides="1" tooltips="1" connect="1" arrows="1" fold="1" pageScale="1" pageWidth="850" pageHeight="1100" math="0" shadow="0">
      <root>
        <mxCell id="0" />
        <mxCell id="1" parent="0" />
        <mxCell id="sRpgtZKo-aydnxxHFiPX-14" style="edgeStyle=orthogonalEdgeStyle;rounded=0;orthogonalLoop=1;jettySize=auto;html=1;" parent="1" source="1O6wciSVCtwW2RtYe0_3-2" target="sRpgtZKo-aydnxxHFiPX-1" edge="1">
          <mxGeometry relative="1" as="geometry">
            <mxPoint x="130" y="180.05882352941182" as="targetPoint" />
          </mxGeometry>
        </mxCell>
        <mxCell id="1O6wciSVCtwW2RtYe0_3-2" value="START" style="ellipse;whiteSpace=wrap;html=1;aspect=fixed;" parent="1" vertex="1">
          <mxGeometry x="20" y="140" width="80" height="80" as="geometry" />
        </mxCell>
        <mxCell id="sRpgtZKo-aydnxxHFiPX-16" style="edgeStyle=orthogonalEdgeStyle;rounded=0;orthogonalLoop=1;jettySize=auto;html=1;exitX=1;exitY=0.5;exitDx=0;exitDy=0;entryX=0;entryY=0.5;entryDx=0;entryDy=0;" parent="1" source="sRpgtZKo-aydnxxHFiPX-1" target="sRpgtZKo-aydnxxHFiPX-2" edge="1">
          <mxGeometry relative="1" as="geometry" />
        </mxCell>
        <UserObject label="&lt;b&gt;&lt;font style=&quot;font-size: 13px;&quot;&gt;DSL &amp;amp; RFI&lt;/font&gt;&lt;/b&gt;" link="data:page/id,C9vHO4o8F-HtbBLTwU_T" id="sRpgtZKo-aydnxxHFiPX-1">
          <mxCell style="rounded=0;whiteSpace=wrap;html=1;strokeColor=#9673a6;fillColor=#e1d5e7;" parent="1" vertex="1">
            <mxGeometry x="190" y="150" width="120" height="60" as="geometry" />
          </mxCell>
        </UserObject>
        <mxCell id="sRpgtZKo-aydnxxHFiPX-17" style="edgeStyle=orthogonalEdgeStyle;rounded=0;orthogonalLoop=1;jettySize=auto;html=1;exitX=1;exitY=0.5;exitDx=0;exitDy=0;entryX=0;entryY=0.5;entryDx=0;entryDy=0;" parent="1" source="sRpgtZKo-aydnxxHFiPX-2" target="sRpgtZKo-aydnxxHFiPX-3" edge="1">
          <mxGeometry relative="1" as="geometry" />
        </mxCell>
        <UserObject label="&lt;b&gt;&lt;font style=&quot;font-size: 13px;&quot;&gt;Presentation &amp;amp; Kickoff&lt;/font&gt;&lt;/b&gt;" link="data:page/id,xXkXfWt9FnmM1K7PqG9_" id="sRpgtZKo-aydnxxHFiPX-2">
          <mxCell style="rounded=0;whiteSpace=wrap;html=1;strokeColor=#9673a6;fillColor=#e1d5e7;" parent="1" vertex="1">
            <mxGeometry x="380" y="150" width="120" height="60" as="geometry" />
          </mxCell>
        </UserObject>
        <mxCell id="sRpgtZKo-aydnxxHFiPX-18" style="edgeStyle=orthogonalEdgeStyle;rounded=0;orthogonalLoop=1;jettySize=auto;html=1;" parent="1" source="sRpgtZKo-aydnxxHFiPX-3" target="sRpgtZKo-aydnxxHFiPX-5" edge="1">
          <mxGeometry relative="1" as="geometry" />
        </mxCell>
        <mxCell id="w_XlgTnfkvseYLCacxFV-1" style="edgeStyle=orthogonalEdgeStyle;rounded=0;orthogonalLoop=1;jettySize=auto;html=1;exitX=0.5;exitY=1;exitDx=0;exitDy=0;entryX=0.5;entryY=1;entryDx=0;entryDy=0;" parent="1" source="sRpgtZKo-aydnxxHFiPX-3" target="sRpgtZKo-aydnxxHFiPX-5" edge="1">
          <mxGeometry relative="1" as="geometry">
            <Array as="points">
              <mxPoint x="610" y="270" />
              <mxPoint x="800" y="270" />
            </Array>
          </mxGeometry>
        </mxCell>
        <UserObject label="&lt;b&gt;&lt;font style=&quot;font-size: 13px;&quot;&gt;Process Understanding&lt;/font&gt;&lt;/b&gt;" link="data:page/id,8sggHr_kanZW6AEmCA0b" id="sRpgtZKo-aydnxxHFiPX-3">
          <mxCell style="rounded=0;whiteSpace=wrap;html=1;strokeColor=#9673a6;fillColor=#e1d5e7;" parent="1" vertex="1">
            <mxGeometry x="550" y="150" width="120" height="60" as="geometry" />
          </mxCell>
        </UserObject>
        <mxCell id="sRpgtZKo-aydnxxHFiPX-19" style="edgeStyle=orthogonalEdgeStyle;rounded=0;orthogonalLoop=1;jettySize=auto;html=1;exitX=1;exitY=0.5;exitDx=0;exitDy=0;entryX=0;entryY=0.5;entryDx=0;entryDy=0;" parent="1" source="sRpgtZKo-aydnxxHFiPX-5" target="sRpgtZKo-aydnxxHFiPX-6" edge="1">
          <mxGeometry relative="1" as="geometry" />
        </mxCell>
        <UserObject label="&lt;b&gt;&lt;font style=&quot;font-size: 13px;&quot;&gt;Walk-through Process&lt;/font&gt;&lt;/b&gt;" link="data:page/id,JkZFDbfjW4wbQUfnCBrK" id="sRpgtZKo-aydnxxHFiPX-5">
          <mxCell style="rounded=0;whiteSpace=wrap;html=1;strokeColor=#9673a6;fillColor=#e1d5e7;" parent="1" vertex="1">
            <mxGeometry x="740" y="150" width="120" height="60" as="geometry" />
          </mxCell>
        </UserObject>
        <mxCell id="wRUtd6eGetiOYtf7yljO-2" style="edgeStyle=orthogonalEdgeStyle;rounded=0;orthogonalLoop=1;jettySize=auto;html=1;exitX=1;exitY=0.5;exitDx=0;exitDy=0;entryX=0;entryY=0.5;entryDx=0;entryDy=0;" parent="1" source="sRpgtZKo-aydnxxHFiPX-6" target="sRpgtZKo-aydnxxHFiPX-7" edge="1">
          <mxGeometry relative="1" as="geometry" />
        </mxCell>
        <UserObject label="&lt;b&gt;&lt;font style=&quot;font-size: 13px;&quot;&gt;Planning Meeting MoM&lt;/font&gt;&lt;/b&gt;" link="data:page/id,BtyiR4jpNamVzZqfS-xv" id="sRpgtZKo-aydnxxHFiPX-6">
          <mxCell style="rounded=0;whiteSpace=wrap;html=1;strokeColor=#9673a6;fillColor=#e1d5e7;" parent="1" vertex="1">
            <mxGeometry x="920" y="150" width="120" height="60" as="geometry" />
          </mxCell>
        </UserObject>
        <mxCell id="wRUtd6eGetiOYtf7yljO-3" style="edgeStyle=orthogonalEdgeStyle;rounded=0;orthogonalLoop=1;jettySize=auto;html=1;entryX=1;entryY=0.5;entryDx=0;entryDy=0;" parent="1" source="sRpgtZKo-aydnxxHFiPX-7" target="sRpgtZKo-aydnxxHFiPX-8" edge="1">
          <mxGeometry relative="1" as="geometry" />
        </mxCell>
        <UserObject label="&lt;b&gt;&lt;font style=&quot;font-size: 13px;&quot;&gt;Stage-Getting Findings&lt;/font&gt;&lt;/b&gt;" link="data:page/id,-vt4ipw-Y4fM9ojm0ter" id="sRpgtZKo-aydnxxHFiPX-7">
          <mxCell style="rounded=0;whiteSpace=wrap;html=1;strokeColor=#9673a6;fillColor=#e1d5e7;" parent="1" vertex="1">
            <mxGeometry x="1100" y="150" width="120" height="60" as="geometry" />
          </mxCell>
        </UserObject>
        <mxCell id="sRpgtZKo-aydnxxHFiPX-22" style="edgeStyle=orthogonalEdgeStyle;rounded=0;orthogonalLoop=1;jettySize=auto;html=1;entryX=1;entryY=0.5;entryDx=0;entryDy=0;" parent="1" source="sRpgtZKo-aydnxxHFiPX-8" target="sRpgtZKo-aydnxxHFiPX-9" edge="1">
          <mxGeometry relative="1" as="geometry" />
        </mxCell>
        <UserObject label="&lt;b&gt;&lt;font style=&quot;font-size: 13px;&quot;&gt;Audit Planning QA&amp;nbsp; Checklist&lt;/font&gt;&lt;/b&gt;" link="data:page/id,lzlA_cUkZQJq2WjfeU5k" id="sRpgtZKo-aydnxxHFiPX-8">
          <mxCell style="rounded=0;whiteSpace=wrap;html=1;strokeColor=#9673a6;fillColor=#e1d5e7;" parent="1" vertex="1">
            <mxGeometry x="980" y="330" width="120" height="60" as="geometry" />
          </mxCell>
        </UserObject>
        <mxCell id="sRpgtZKo-aydnxxHFiPX-23" style="edgeStyle=orthogonalEdgeStyle;rounded=0;orthogonalLoop=1;jettySize=auto;html=1;" parent="1" source="sRpgtZKo-aydnxxHFiPX-9" target="sRpgtZKo-aydnxxHFiPX-10" edge="1">
          <mxGeometry relative="1" as="geometry" />
        </mxCell>
        <UserObject label="&lt;b&gt;&lt;font style=&quot;font-size: 13px;&quot;&gt;Field Works&lt;/font&gt;&lt;/b&gt;" link="data:page/id,onjasasucwlx9Kj9we2S" id="sRpgtZKo-aydnxxHFiPX-9">
          <mxCell style="rounded=0;whiteSpace=wrap;html=1;strokeColor=#9673a6;fillColor=#e1d5e7;" parent="1" vertex="1">
            <mxGeometry x="760" y="330" width="120" height="60" as="geometry" />
          </mxCell>
        </UserObject>
        <mxCell id="sRpgtZKo-aydnxxHFiPX-24" style="edgeStyle=orthogonalEdgeStyle;rounded=0;orthogonalLoop=1;jettySize=auto;html=1;entryX=1;entryY=0.5;entryDx=0;entryDy=0;" parent="1" source="sRpgtZKo-aydnxxHFiPX-10" target="sRpgtZKo-aydnxxHFiPX-11" edge="1">
          <mxGeometry relative="1" as="geometry" />
        </mxCell>
        <UserObject label="&lt;b&gt;&lt;font style=&quot;font-size: 13px;&quot;&gt;Reporting&lt;/font&gt;&lt;/b&gt;" link="data:page/id,-kxxWb5hBgzSHtg66tbn" id="sRpgtZKo-aydnxxHFiPX-10">
          <mxCell style="rounded=0;whiteSpace=wrap;html=1;strokeColor=#9673a6;fillColor=#e1d5e7;" parent="1" vertex="1">
            <mxGeometry x="580" y="330" width="120" height="60" as="geometry" />
          </mxCell>
        </UserObject>
        <mxCell id="sRpgtZKo-aydnxxHFiPX-25" style="edgeStyle=orthogonalEdgeStyle;rounded=0;orthogonalLoop=1;jettySize=auto;html=1;exitX=0;exitY=0.5;exitDx=0;exitDy=0;entryX=1;entryY=0.5;entryDx=0;entryDy=0;" parent="1" source="sRpgtZKo-aydnxxHFiPX-11" target="sRpgtZKo-aydnxxHFiPX-12" edge="1">
          <mxGeometry relative="1" as="geometry" />
        </mxCell>
        <UserObject label="&lt;b&gt;&lt;font style=&quot;font-size: 13px;&quot;&gt;Closing and Post Audit&amp;nbsp;&lt;/font&gt;&lt;/b&gt;" link="data:page/id,fDOu2XCDbjO3SyMG1xVQ" id="sRpgtZKo-aydnxxHFiPX-11">
          <mxCell style="rounded=0;whiteSpace=wrap;html=1;strokeColor=#9673a6;fillColor=#e1d5e7;" parent="1" vertex="1">
            <mxGeometry x="390" y="330" width="120" height="60" as="geometry" />
          </mxCell>
        </UserObject>
        <mxCell id="sRpgtZKo-aydnxxHFiPX-27" style="edgeStyle=orthogonalEdgeStyle;rounded=0;orthogonalLoop=1;jettySize=auto;html=1;exitX=0;exitY=0.5;exitDx=0;exitDy=0;entryX=1;entryY=0.5;entryDx=0;entryDy=0;" parent="1" source="sRpgtZKo-aydnxxHFiPX-12" target="sRpgtZKo-aydnxxHFiPX-13" edge="1">
          <mxGeometry relative="1" as="geometry" />
        </mxCell>
        <UserObject label="&lt;b&gt;&lt;font style=&quot;font-size: 13px;&quot;&gt;Quality Assurance&amp;nbsp;&lt;/font&gt;&lt;/b&gt;" link="data:page/id,Q8PFEeoIksUd84Hvle8G" id="sRpgtZKo-aydnxxHFiPX-12">
          <mxCell style="rounded=0;whiteSpace=wrap;html=1;strokeColor=#9673a6;fillColor=#e1d5e7;" parent="1" vertex="1">
            <mxGeometry x="190" y="330" width="120" height="60" as="geometry" />
          </mxCell>
        </UserObject>
        <UserObject label="END" link="data:page/id,rfpji_oR26iXnu8gp6y1" id="sRpgtZKo-aydnxxHFiPX-13">
          <mxCell style="ellipse;whiteSpace=wrap;html=1;aspect=fixed;" parent="1" vertex="1">
            <mxGeometry x="20" y="320" width="80" height="80" as="geometry" />
          </mxCell>
        </UserObject>
        <mxCell id="T57lNtyBFmcwUspwPv3O-1" value="&lt;font style=&quot;font-size: 27px;&quot;&gt;&lt;b&gt;&lt;u&gt;Audit Plan LEVEL 0&lt;/u&gt;&lt;/b&gt;&lt;/font&gt;" style="text;html=1;align=center;verticalAlign=middle;resizable=0;points=[];autosize=1;strokeColor=none;fillColor=none;" vertex="1" parent="1">
          <mxGeometry x="415" y="38" width="270" height="50" as="geometry" />
        </mxCell>
      </root>
    </mxGraphModel>
  </diagram>
  <diagram id="C9vHO4o8F-HtbBLTwU_T" name="DSL &amp; RFI">
    <mxGraphModel grid="1" page="1" gridSize="10" guides="1" tooltips="1" connect="1" arrows="1" fold="1" pageScale="1" pageWidth="850" pageHeight="1100" math="0" shadow="0">
      <root>
        <mxCell id="0" />
        <mxCell id="1" parent="0" />
        <mxCell id="Jq0HApgrLzHW4FTiQcWF-2" style="edgeStyle=orthogonalEdgeStyle;rounded=0;orthogonalLoop=1;jettySize=auto;html=1;exitX=0.5;exitY=1;exitDx=0;exitDy=0;entryX=0.5;entryY=0;entryDx=0;entryDy=0;" parent="1" source="Jq0HApgrLzHW4FTiQcWF-3" target="Jq0HApgrLzHW4FTiQcWF-7" edge="1">
          <mxGeometry relative="1" as="geometry" />
        </mxCell>
        <mxCell id="mckM-OI4dK3K2CpKrxwM-11" style="edgeStyle=orthogonalEdgeStyle;rounded=0;orthogonalLoop=1;jettySize=auto;html=1;exitX=1;exitY=0.5;exitDx=0;exitDy=0;entryX=0.25;entryY=1;entryDx=0;entryDy=0;" edge="1" parent="1" source="Jq0HApgrLzHW4FTiQcWF-3" target="mckM-OI4dK3K2CpKrxwM-10">
          <mxGeometry relative="1" as="geometry" />
        </mxCell>
        <mxCell id="Jq0HApgrLzHW4FTiQcWF-3" value="RFI Mention Doc and Notify Dept to Upload Doc&amp;nbsp;" style="rounded=0;whiteSpace=wrap;html=1;" parent="1" vertex="1">
          <mxGeometry x="210" y="430" width="120" height="60" as="geometry" />
        </mxCell>
        <mxCell id="Jq0HApgrLzHW4FTiQcWF-6" style="edgeStyle=orthogonalEdgeStyle;rounded=0;orthogonalLoop=1;jettySize=auto;html=1;entryX=0;entryY=0.5;entryDx=0;entryDy=0;" parent="1" source="Jq0HApgrLzHW4FTiQcWF-7" target="Jq0HApgrLzHW4FTiQcWF-13" edge="1">
          <mxGeometry relative="1" as="geometry" />
        </mxCell>
        <mxCell id="Jq0HApgrLzHW4FTiQcWF-26" style="edgeStyle=orthogonalEdgeStyle;rounded=0;orthogonalLoop=1;jettySize=auto;html=1;entryX=0.5;entryY=0;entryDx=0;entryDy=0;" parent="1" source="Jq0HApgrLzHW4FTiQcWF-7" target="Jq0HApgrLzHW4FTiQcWF-17" edge="1">
          <mxGeometry relative="1" as="geometry" />
        </mxCell>
        <mxCell id="Jq0HApgrLzHW4FTiQcWF-7" value="Doc Upload by Dept Associate&amp;nbsp;" style="rounded=0;whiteSpace=wrap;html=1;" parent="1" vertex="1">
          <mxGeometry x="210" y="520" width="120" height="60" as="geometry" />
        </mxCell>
        <mxCell id="Jq0HApgrLzHW4FTiQcWF-24" style="edgeStyle=orthogonalEdgeStyle;rounded=0;orthogonalLoop=1;jettySize=auto;html=1;exitX=1;exitY=0.5;exitDx=0;exitDy=0;" parent="1" source="Jq0HApgrLzHW4FTiQcWF-13" target="Jq0HApgrLzHW4FTiQcWF-18" edge="1">
          <mxGeometry relative="1" as="geometry" />
        </mxCell>
        <mxCell id="Jq0HApgrLzHW4FTiQcWF-13" value="Doc Not Uploaded within Assigned date" style="rounded=1;whiteSpace=wrap;html=1;fillColor=#f8cecc;strokeColor=#b85450;" parent="1" vertex="1">
          <mxGeometry x="425" y="520" width="120" height="60" as="geometry" />
        </mxCell>
        <mxCell id="Jq0HApgrLzHW4FTiQcWF-14" value="" style="edgeStyle=orthogonalEdgeStyle;rounded=0;orthogonalLoop=1;jettySize=auto;html=1;" parent="1" source="Jq0HApgrLzHW4FTiQcWF-15" target="Jq0HApgrLzHW4FTiQcWF-16" edge="1">
          <mxGeometry relative="1" as="geometry" />
        </mxCell>
        <mxCell id="Jq0HApgrLzHW4FTiQcWF-15" value="Reschedule&amp;nbsp; Date&lt;br&gt;Audit Associate" style="rounded=0;whiteSpace=wrap;html=1;" parent="1" vertex="1">
          <mxGeometry x="600" y="640" width="120" height="60" as="geometry" />
        </mxCell>
        <mxCell id="Jq0HApgrLzHW4FTiQcWF-16" value="Notify&amp;nbsp;" style="rhombus;whiteSpace=wrap;html=1;fillColor=#d5e8d4;strokeColor=#82b366;" parent="1" vertex="1">
          <mxGeometry x="620" y="750" width="80" height="80" as="geometry" />
        </mxCell>
        <mxCell id="Jq0HApgrLzHW4FTiQcWF-27" style="edgeStyle=orthogonalEdgeStyle;rounded=0;orthogonalLoop=1;jettySize=auto;html=1;exitX=0.5;exitY=1;exitDx=0;exitDy=0;" parent="1" source="Jq0HApgrLzHW4FTiQcWF-17" target="Jq0HApgrLzHW4FTiQcWF-28" edge="1">
          <mxGeometry relative="1" as="geometry">
            <mxPoint x="354.89473684210543" y="820" as="targetPoint" />
          </mxGeometry>
        </mxCell>
        <mxCell id="Jq0HApgrLzHW4FTiQcWF-17" value="Notify&amp;nbsp;" style="rhombus;whiteSpace=wrap;html=1;fillColor=#d5e8d4;strokeColor=#82b366;" parent="1" vertex="1">
          <mxGeometry x="230" y="650" width="80" height="80" as="geometry" />
        </mxCell>
        <mxCell id="Jq0HApgrLzHW4FTiQcWF-25" style="edgeStyle=orthogonalEdgeStyle;rounded=0;orthogonalLoop=1;jettySize=auto;html=1;entryX=0.5;entryY=0;entryDx=0;entryDy=0;" parent="1" source="Jq0HApgrLzHW4FTiQcWF-18" target="Jq0HApgrLzHW4FTiQcWF-15" edge="1">
          <mxGeometry relative="1" as="geometry" />
        </mxCell>
        <mxCell id="Jq0HApgrLzHW4FTiQcWF-18" value="Reminder" style="rhombus;whiteSpace=wrap;html=1;fillColor=#d5e8d4;strokeColor=#82b366;" parent="1" vertex="1">
          <mxGeometry x="620" y="510" width="80" height="80" as="geometry" />
        </mxCell>
        <mxCell id="dO0FTJAvQE22wk0d92uK-4" style="edgeStyle=orthogonalEdgeStyle;rounded=0;orthogonalLoop=1;jettySize=auto;html=1;exitX=1;exitY=0.5;exitDx=0;exitDy=0;entryX=0;entryY=0.5;entryDx=0;entryDy=0;" edge="1" parent="1" source="Jq0HApgrLzHW4FTiQcWF-22" target="dO0FTJAvQE22wk0d92uK-3">
          <mxGeometry relative="1" as="geometry" />
        </mxCell>
        <UserObject label="Start" link="data:page/id,SO7P523GmKmao4ISK2ce" id="Jq0HApgrLzHW4FTiQcWF-22">
          <mxCell style="ellipse;whiteSpace=wrap;html=1;aspect=fixed;fillColor=#d5e8d4;strokeColor=#82b366;" parent="1" vertex="1">
            <mxGeometry x="80" y="150" width="80" height="80" as="geometry" />
          </mxCell>
        </UserObject>
        <mxCell id="Ms6mxtfcFHjEn8s5n1Po-2" style="edgeStyle=orthogonalEdgeStyle;rounded=0;orthogonalLoop=1;jettySize=auto;html=1;exitX=0.5;exitY=1;exitDx=0;exitDy=0;entryX=0.5;entryY=0;entryDx=0;entryDy=0;" parent="1" source="Jq0HApgrLzHW4FTiQcWF-28" target="Ms6mxtfcFHjEn8s5n1Po-1" edge="1">
          <mxGeometry relative="1" as="geometry" />
        </mxCell>
        <mxCell id="Jq0HApgrLzHW4FTiQcWF-28" value="Approve / Reject&lt;br&gt;Administrator&amp;nbsp;" style="rounded=0;whiteSpace=wrap;html=1;" parent="1" vertex="1">
          <mxGeometry x="210.00473684210544" y="780" width="120" height="60" as="geometry" />
        </mxCell>
        <UserObject label="NEXT PAGE" link="data:page/id,xXkXfWt9FnmM1K7PqG9_" id="Ms6mxtfcFHjEn8s5n1Po-1">
          <mxCell style="ellipse;whiteSpace=wrap;html=1;aspect=fixed;fillColor=#f8cecc;strokeColor=#b85450;" parent="1" vertex="1">
            <mxGeometry x="230" y="910" width="80" height="80" as="geometry" />
          </mxCell>
        </UserObject>
        <mxCell id="dO0FTJAvQE22wk0d92uK-2" value="&lt;u&gt;DSL &amp;amp; RFI LEVEL 1&lt;/u&gt;" style="text;strokeColor=none;fillColor=none;html=1;fontSize=24;fontStyle=1;verticalAlign=middle;align=center;" vertex="1" parent="1">
          <mxGeometry x="305" y="20" width="225" height="40" as="geometry" />
        </mxCell>
        <mxCell id="mckM-OI4dK3K2CpKrxwM-1" style="edgeStyle=orthogonalEdgeStyle;rounded=0;orthogonalLoop=1;jettySize=auto;html=1;exitX=0.25;exitY=1;exitDx=0;exitDy=0;" edge="1" parent="1" source="dO0FTJAvQE22wk0d92uK-3">
          <mxGeometry relative="1" as="geometry">
            <mxPoint x="250" y="260" as="targetPoint" />
          </mxGeometry>
        </mxCell>
        <mxCell id="mckM-OI4dK3K2CpKrxwM-5" style="edgeStyle=orthogonalEdgeStyle;rounded=0;orthogonalLoop=1;jettySize=auto;html=1;exitX=0.75;exitY=1;exitDx=0;exitDy=0;" edge="1" parent="1" source="dO0FTJAvQE22wk0d92uK-3" target="mckM-OI4dK3K2CpKrxwM-3">
          <mxGeometry relative="1" as="geometry" />
        </mxCell>
        <UserObject label="Add Details Scope" link="data:page/id,00hlMRfuDbaS-sajrneF" id="dO0FTJAvQE22wk0d92uK-3">
          <mxCell style="rounded=0;whiteSpace=wrap;html=1;" vertex="1" parent="1">
            <mxGeometry x="220" y="160" width="120" height="60" as="geometry" />
          </mxCell>
        </UserObject>
        <mxCell id="dO0FTJAvQE22wk0d92uK-6" style="edgeStyle=orthogonalEdgeStyle;rounded=0;orthogonalLoop=1;jettySize=auto;html=1;exitX=0.5;exitY=1;exitDx=0;exitDy=0;entryX=0.5;entryY=0;entryDx=0;entryDy=0;" edge="1" parent="1" source="dO0FTJAvQE22wk0d92uK-5" target="dO0FTJAvQE22wk0d92uK-3">
          <mxGeometry relative="1" as="geometry" />
        </mxCell>
        <mxCell id="dO0FTJAvQE22wk0d92uK-7" value="Fetched" style="edgeLabel;html=1;align=center;verticalAlign=middle;resizable=0;points=[];" connectable="0" vertex="1" parent="dO0FTJAvQE22wk0d92uK-6">
          <mxGeometry x="-0.28" y="1" relative="1" as="geometry">
            <mxPoint as="offset" />
          </mxGeometry>
        </mxCell>
        <mxCell id="dO0FTJAvQE22wk0d92uK-5" value="AFF ID" style="rounded=1;whiteSpace=wrap;html=1;" vertex="1" parent="1">
          <mxGeometry x="235" y="70" width="90" height="40" as="geometry" />
        </mxCell>
        <mxCell id="mckM-OI4dK3K2CpKrxwM-3" value="Download DSL" style="html=1;whiteSpace=wrap;strokeColor=none;fillColor=#0079D6;labelPosition=center;verticalLabelPosition=middle;verticalAlign=top;align=center;fontSize=12;outlineConnect=0;spacingTop=-6;fontColor=#FFFFFF;sketch=0;shape=mxgraph.sitemap.download;" vertex="1" parent="1">
          <mxGeometry x="280" y="260" width="90" height="40" as="geometry" />
        </mxCell>
        <mxCell id="mckM-OI4dK3K2CpKrxwM-4" value="Download AAF" style="html=1;whiteSpace=wrap;strokeColor=none;fillColor=#0079D6;labelPosition=center;verticalLabelPosition=middle;verticalAlign=top;align=center;fontSize=12;outlineConnect=0;spacingTop=-6;fontColor=#FFFFFF;sketch=0;shape=mxgraph.sitemap.download;" vertex="1" parent="1">
          <mxGeometry x="180" y="260" width="90" height="40" as="geometry" />
        </mxCell>
        <mxCell id="mckM-OI4dK3K2CpKrxwM-6" style="edgeStyle=orthogonalEdgeStyle;rounded=0;orthogonalLoop=1;jettySize=auto;html=1;exitX=0.5;exitY=1;exitDx=0;exitDy=0;entryX=-0.05;entryY=0.483;entryDx=0;entryDy=0;entryPerimeter=0;" edge="1" parent="1" source="Jq0HApgrLzHW4FTiQcWF-22" target="Jq0HApgrLzHW4FTiQcWF-3">
          <mxGeometry relative="1" as="geometry">
            <Array as="points">
              <mxPoint x="120" y="459" />
            </Array>
          </mxGeometry>
        </mxCell>
        <mxCell id="mckM-OI4dK3K2CpKrxwM-8" value="Download RFI" style="html=1;whiteSpace=wrap;strokeColor=none;fillColor=#0079D6;labelPosition=center;verticalLabelPosition=middle;verticalAlign=top;align=center;fontSize=12;outlineConnect=0;spacingTop=-6;fontColor=#FFFFFF;sketch=0;shape=mxgraph.sitemap.download;" vertex="1" parent="1">
          <mxGeometry x="220" y="360" width="90" height="40" as="geometry" />
        </mxCell>
        <mxCell id="mckM-OI4dK3K2CpKrxwM-9" style="edgeStyle=orthogonalEdgeStyle;rounded=0;orthogonalLoop=1;jettySize=auto;html=1;exitX=0.5;exitY=0;exitDx=0;exitDy=0;entryX=0.5;entryY=1;entryDx=0;entryDy=0;entryPerimeter=0;" edge="1" parent="1" source="Jq0HApgrLzHW4FTiQcWF-3" target="mckM-OI4dK3K2CpKrxwM-8">
          <mxGeometry relative="1" as="geometry" />
        </mxCell>
        <UserObject label="Open eGP Workspace" link="data:page/id,00hlMRfuDbaS-sajrneF" id="mckM-OI4dK3K2CpKrxwM-10">
          <mxCell style="rounded=0;whiteSpace=wrap;html=1;" vertex="1" parent="1">
            <mxGeometry x="365" y="350" width="120" height="60" as="geometry" />
          </mxCell>
        </UserObject>
      </root>
    </mxGraphModel>
  </diagram>
  <diagram id="xXkXfWt9FnmM1K7PqG9_" name="Presentation &amp; Kickoff">
    <mxGraphModel grid="1" page="1" gridSize="10" guides="1" tooltips="1" connect="1" arrows="1" fold="1" pageScale="1" pageWidth="850" pageHeight="1100" math="0" shadow="0">
      <root>
        <mxCell id="0" />
        <mxCell id="1" parent="0" />
        <mxCell id="WTgsellPrWqNusf5n-OA-1" style="edgeStyle=orthogonalEdgeStyle;rounded=0;orthogonalLoop=1;jettySize=auto;html=1;exitX=0.5;exitY=1;exitDx=0;exitDy=0;entryX=0.013;entryY=0.635;entryDx=0;entryDy=0;entryPerimeter=0;" parent="1" target="WTgsellPrWqNusf5n-OA-8" edge="1">
          <mxGeometry relative="1" as="geometry">
            <mxPoint x="1040" y="-2945" as="targetPoint" />
            <Array as="points">
              <mxPoint x="1240" y="-3155" />
              <mxPoint x="1041" y="-3155" />
              <mxPoint x="1041" y="-2957" />
            </Array>
            <mxPoint x="1240" y="-3195" as="sourcePoint" />
          </mxGeometry>
        </mxCell>
        <mxCell id="WTgsellPrWqNusf5n-OA-2" style="edgeStyle=orthogonalEdgeStyle;rounded=0;orthogonalLoop=1;jettySize=auto;html=1;" parent="1" target="WTgsellPrWqNusf5n-OA-5" edge="1">
          <mxGeometry relative="1" as="geometry">
            <Array as="points">
              <mxPoint x="1240" y="-3155" />
              <mxPoint x="1320" y="-3155" />
            </Array>
            <mxPoint x="1240" y="-3195" as="sourcePoint" />
          </mxGeometry>
        </mxCell>
        <mxCell id="WTgsellPrWqNusf5n-OA-3" value="Upload Presentation Docs / View Docs" style="rounded=0;whiteSpace=wrap;html=1;fillColor=#dae8fc;strokeColor=#6c8ebf;" parent="1" vertex="1">
          <mxGeometry x="1070" y="-3135" width="120" height="60" as="geometry" />
        </mxCell>
        <mxCell id="WTgsellPrWqNusf5n-OA-4" style="edgeStyle=orthogonalEdgeStyle;rounded=0;orthogonalLoop=1;jettySize=auto;html=1;entryX=0.5;entryY=0;entryDx=0;entryDy=0;" parent="1" source="WTgsellPrWqNusf5n-OA-5" target="WTgsellPrWqNusf5n-OA-13" edge="1">
          <mxGeometry relative="1" as="geometry" />
        </mxCell>
        <mxCell id="WTgsellPrWqNusf5n-OA-5" value="Add RAID Log/&lt;br&gt;View RAID Logs" style="rounded=0;whiteSpace=wrap;html=1;fillColor=#f8cecc;strokeColor=#b85450;" parent="1" vertex="1">
          <mxGeometry x="1260" y="-3135" width="120" height="60" as="geometry" />
        </mxCell>
        <mxCell id="WTgsellPrWqNusf5n-OA-6" value="Add Present User/View Users" style="rounded=0;whiteSpace=wrap;html=1;fillColor=#dae8fc;strokeColor=#6c8ebf;" parent="1" vertex="1">
          <mxGeometry x="1070" y="-3065" width="120" height="60" as="geometry" />
        </mxCell>
        <mxCell id="WTgsellPrWqNusf5n-OA-7" style="edgeStyle=orthogonalEdgeStyle;rounded=0;orthogonalLoop=1;jettySize=auto;html=1;exitX=1;exitY=0.5;exitDx=0;exitDy=0;entryX=0;entryY=0.5;entryDx=0;entryDy=0;" parent="1" source="WTgsellPrWqNusf5n-OA-8" target="WTgsellPrWqNusf5n-OA-13" edge="1">
          <mxGeometry relative="1" as="geometry" />
        </mxCell>
        <mxCell id="WTgsellPrWqNusf5n-OA-8" value="Add Discussed Agenda / View Agendas/&lt;br&gt;Download MoM" style="rounded=0;whiteSpace=wrap;html=1;fillColor=#dae8fc;strokeColor=#6c8ebf;" parent="1" vertex="1">
          <mxGeometry x="1070" y="-2995" width="120" height="60" as="geometry" />
        </mxCell>
        <mxCell id="WTgsellPrWqNusf5n-OA-9" value="" style="endArrow=classic;html=1;rounded=0;entryX=0;entryY=0.5;entryDx=0;entryDy=0;" parent="1" target="WTgsellPrWqNusf5n-OA-3" edge="1">
          <mxGeometry width="50" height="50" relative="1" as="geometry">
            <mxPoint x="1040" y="-3105" as="sourcePoint" />
            <mxPoint x="940" y="-3135" as="targetPoint" />
          </mxGeometry>
        </mxCell>
        <mxCell id="WTgsellPrWqNusf5n-OA-10" value="" style="endArrow=classic;html=1;rounded=0;entryX=0;entryY=0.5;entryDx=0;entryDy=0;" parent="1" edge="1">
          <mxGeometry width="50" height="50" relative="1" as="geometry">
            <mxPoint x="1040" y="-3035.5" as="sourcePoint" />
            <mxPoint x="1070" y="-3035.5" as="targetPoint" />
          </mxGeometry>
        </mxCell>
        <mxCell id="WTgsellPrWqNusf5n-OA-11" style="edgeStyle=orthogonalEdgeStyle;rounded=0;orthogonalLoop=1;jettySize=auto;html=1;exitX=0.5;exitY=1;exitDx=0;exitDy=0;" parent="1" source="WTgsellPrWqNusf5n-OA-13" edge="1">
          <mxGeometry relative="1" as="geometry">
            <mxPoint x="1319.7777777777778" y="-2845" as="targetPoint" />
          </mxGeometry>
        </mxCell>
        <mxCell id="WTgsellPrWqNusf5n-OA-12" value="No" style="edgeLabel;html=1;align=center;verticalAlign=middle;resizable=0;points=[];" parent="WTgsellPrWqNusf5n-OA-11" connectable="0" vertex="1">
          <mxGeometry x="0.0041" relative="1" as="geometry">
            <mxPoint as="offset" />
          </mxGeometry>
        </mxCell>
        <mxCell id="WTgsellPrWqNusf5n-OA-13" value="&lt;br&gt;&lt;div&gt;&lt;span style=&quot;color: rgb(0, 0, 0); font-family: Helvetica; font-size: 12px; font-style: normal; font-variant-ligatures: normal; font-variant-caps: normal; font-weight: 400; letter-spacing: normal; orphans: 2; text-align: center; text-indent: 0px; text-transform: none; widows: 2; word-spacing: 0px; -webkit-text-stroke-width: 0px; white-space: normal; background-color: rgb(251, 251, 251); text-decoration-thickness: initial; text-decoration-style: initial; text-decoration-color: initial; display: inline !important; float: none;&quot;&gt;Finalize&lt;/span&gt;&lt;br&gt;&lt;br&gt;&lt;/div&gt;" style="rhombus;whiteSpace=wrap;html=1;fillColor=#60a917;fontColor=#ffffff;strokeColor=#2D7600;" parent="1" vertex="1">
          <mxGeometry x="1280" y="-3005" width="80" height="80" as="geometry" />
        </mxCell>
        <UserObject label="PREVIOUS&amp;nbsp;&lt;br&gt;PAGE" link="data:page/id,C9vHO4o8F-HtbBLTwU_T" id="WTgsellPrWqNusf5n-OA-14">
          <mxCell style="ellipse;whiteSpace=wrap;html=1;aspect=fixed;fillColor=#d5e8d4;strokeColor=#82b366;" parent="1" vertex="1">
            <mxGeometry x="1200" y="-3280" width="80" height="80" as="geometry" />
          </mxCell>
        </UserObject>
        <UserObject label="NEXT STEP" link="data:page/id,8sggHr_kanZW6AEmCA0b" id="WTgsellPrWqNusf5n-OA-15">
          <mxCell style="ellipse;whiteSpace=wrap;html=1;aspect=fixed;fillColor=#d5e8d4;strokeColor=#82b366;" parent="1" vertex="1">
            <mxGeometry x="1460" y="-3015" width="80" height="80" as="geometry" />
          </mxCell>
        </UserObject>
        <mxCell id="WTgsellPrWqNusf5n-OA-16" style="edgeStyle=orthogonalEdgeStyle;rounded=0;orthogonalLoop=1;jettySize=auto;html=1;exitX=1;exitY=0.5;exitDx=0;exitDy=0;entryX=-0.023;entryY=0.632;entryDx=0;entryDy=0;entryPerimeter=0;" parent="1" source="WTgsellPrWqNusf5n-OA-13" target="WTgsellPrWqNusf5n-OA-15" edge="1">
          <mxGeometry relative="1" as="geometry" />
        </mxCell>
        <mxCell id="WTgsellPrWqNusf5n-OA-17" value="YES" style="edgeLabel;html=1;align=center;verticalAlign=middle;resizable=0;points=[];" parent="WTgsellPrWqNusf5n-OA-16" vertex="1" connectable="0">
          <mxGeometry x="-0.1999" relative="1" as="geometry">
            <mxPoint as="offset" />
          </mxGeometry>
        </mxCell>
      </root>
    </mxGraphModel>
  </diagram>
  <diagram id="8sggHr_kanZW6AEmCA0b" name="Process Understanding">
    <mxGraphModel grid="1" page="1" gridSize="10" guides="1" tooltips="1" connect="1" arrows="1" fold="1" pageScale="1" pageWidth="850" pageHeight="1100" math="0" shadow="0">
      <root>
        <mxCell id="0" />
        <mxCell id="1" parent="0" />
        <mxCell id="mbKZYgsFectsTrUbw61T-1" value="Process Understanding MoM&amp;nbsp;" style="rounded=0;whiteSpace=wrap;html=1;fillColor=#fff2cc;strokeColor=#d6b656;" parent="1" vertex="1">
          <mxGeometry x="1207" y="250" width="120" height="60" as="geometry" />
        </mxCell>
        <mxCell id="mbKZYgsFectsTrUbw61T-2" style="edgeStyle=orthogonalEdgeStyle;rounded=0;orthogonalLoop=1;jettySize=auto;html=1;exitX=0;exitY=0.5;exitDx=0;exitDy=0;entryX=0;entryY=0.5;entryDx=0;entryDy=0;" parent="1" source="mbKZYgsFectsTrUbw61T-3" target="mbKZYgsFectsTrUbw61T-7" edge="1">
          <mxGeometry relative="1" as="geometry" />
        </mxCell>
        <mxCell id="mbKZYgsFectsTrUbw61T-3" value="View Model Viewed&amp;nbsp;" style="rounded=0;whiteSpace=wrap;html=1;fillColor=#fff2cc;strokeColor=#d6b656;" parent="1" vertex="1">
          <mxGeometry x="1047" y="250" width="120" height="60" as="geometry" />
        </mxCell>
        <mxCell id="mbKZYgsFectsTrUbw61T-4" style="edgeStyle=orthogonalEdgeStyle;rounded=0;orthogonalLoop=1;jettySize=auto;html=1;entryX=0.651;entryY=-0.018;entryDx=0;entryDy=0;entryPerimeter=0;" parent="1" target="mbKZYgsFectsTrUbw61T-3" edge="1">
          <mxGeometry relative="1" as="geometry">
            <mxPoint x="1177" y="200" as="sourcePoint" />
          </mxGeometry>
        </mxCell>
        <mxCell id="mbKZYgsFectsTrUbw61T-5" style="edgeStyle=orthogonalEdgeStyle;rounded=0;orthogonalLoop=1;jettySize=auto;html=1;entryX=0.313;entryY=0.044;entryDx=0;entryDy=0;entryPerimeter=0;" parent="1" target="mbKZYgsFectsTrUbw61T-1" edge="1">
          <mxGeometry relative="1" as="geometry">
            <mxPoint x="1177" y="200" as="sourcePoint" />
          </mxGeometry>
        </mxCell>
        <mxCell id="mbKZYgsFectsTrUbw61T-6" value="Create Model Added By Audit Associate" style="rounded=0;whiteSpace=wrap;html=1;fillColor=#ffe6cc;strokeColor=#d79b00;" parent="1" vertex="1">
          <mxGeometry x="1057" y="330" width="100" height="50" as="geometry" />
        </mxCell>
        <mxCell id="mbKZYgsFectsTrUbw61T-7" value="Flow Modeler" style="rounded=0;whiteSpace=wrap;html=1;fillColor=#ffe6cc;strokeColor=#d79b00;" parent="1" vertex="1">
          <mxGeometry x="1057" y="390" width="100" height="50" as="geometry" />
        </mxCell>
        <mxCell id="mbKZYgsFectsTrUbw61T-8" value="" style="endArrow=classic;html=1;rounded=0;" parent="1" edge="1">
          <mxGeometry width="50" height="50" relative="1" as="geometry">
            <mxPoint x="1025" y="359" as="sourcePoint" />
            <mxPoint x="1055" y="359" as="targetPoint" />
          </mxGeometry>
        </mxCell>
        <mxCell id="mbKZYgsFectsTrUbw61T-9" style="edgeStyle=orthogonalEdgeStyle;rounded=0;orthogonalLoop=1;jettySize=auto;html=1;exitX=0.5;exitY=1;exitDx=0;exitDy=0;entryX=0.013;entryY=0.635;entryDx=0;entryDy=0;entryPerimeter=0;" parent="1" target="mbKZYgsFectsTrUbw61T-16" edge="1">
          <mxGeometry relative="1" as="geometry">
            <mxPoint x="1077" y="670" as="targetPoint" />
            <mxPoint x="1277" y="420" as="sourcePoint" />
            <Array as="points">
              <mxPoint x="1277" y="460" />
              <mxPoint x="1078" y="460" />
              <mxPoint x="1078" y="658" />
            </Array>
          </mxGeometry>
        </mxCell>
        <mxCell id="mbKZYgsFectsTrUbw61T-10" style="edgeStyle=orthogonalEdgeStyle;rounded=0;orthogonalLoop=1;jettySize=auto;html=1;exitX=0.599;exitY=1.031;exitDx=0;exitDy=0;exitPerimeter=0;" parent="1" source="mbKZYgsFectsTrUbw61T-1" target="mbKZYgsFectsTrUbw61T-13" edge="1">
          <mxGeometry relative="1" as="geometry">
            <mxPoint x="1277" y="420" as="sourcePoint" />
            <Array as="points">
              <mxPoint x="1277" y="312" />
              <mxPoint x="1277" y="460" />
              <mxPoint x="1390" y="460" />
            </Array>
          </mxGeometry>
        </mxCell>
        <mxCell id="mbKZYgsFectsTrUbw61T-11" value="Process Understanding Docs/ View Docs" style="rounded=0;whiteSpace=wrap;html=1;fillColor=#dae8fc;strokeColor=#6c8ebf;" parent="1" vertex="1">
          <mxGeometry x="1107" y="480" width="163" height="60" as="geometry" />
        </mxCell>
        <mxCell id="mbKZYgsFectsTrUbw61T-12" style="edgeStyle=orthogonalEdgeStyle;rounded=0;orthogonalLoop=1;jettySize=auto;html=1;entryX=0.5;entryY=0;entryDx=0;entryDy=0;" parent="1" source="mbKZYgsFectsTrUbw61T-13" target="mbKZYgsFectsTrUbw61T-21" edge="1">
          <mxGeometry relative="1" as="geometry" />
        </mxCell>
        <mxCell id="mbKZYgsFectsTrUbw61T-13" value="Add Understanding&lt;br&gt;RAID Log/&lt;br&gt;View Raid Logs&amp;nbsp;" style="rounded=0;whiteSpace=wrap;html=1;" parent="1" vertex="1">
          <mxGeometry x="1297" y="480" width="163" height="60" as="geometry" />
        </mxCell>
        <mxCell id="mbKZYgsFectsTrUbw61T-14" value="Add Process&amp;nbsp;&lt;br&gt;Understanding&amp;nbsp;&lt;br&gt;Users / View Users" style="rounded=0;whiteSpace=wrap;html=1;fillColor=#dae8fc;strokeColor=#6c8ebf;" parent="1" vertex="1">
          <mxGeometry x="1107" y="550" width="163" height="60" as="geometry" />
        </mxCell>
        <mxCell id="mbKZYgsFectsTrUbw61T-15" style="edgeStyle=orthogonalEdgeStyle;rounded=0;orthogonalLoop=1;jettySize=auto;html=1;exitX=1;exitY=0.5;exitDx=0;exitDy=0;entryX=0;entryY=0.5;entryDx=0;entryDy=0;" parent="1" source="mbKZYgsFectsTrUbw61T-16" target="mbKZYgsFectsTrUbw61T-21" edge="1">
          <mxGeometry relative="1" as="geometry" />
        </mxCell>
        <mxCell id="mbKZYgsFectsTrUbw61T-16" value="Add Understanding&lt;br&gt;&amp;nbsp;Agenda / View Agendas &amp;amp;&lt;br&gt;Download MoM&amp;nbsp;" style="rounded=0;whiteSpace=wrap;html=1;fillColor=#dae8fc;strokeColor=#6c8ebf;" parent="1" vertex="1">
          <mxGeometry x="1107" y="620" width="163" height="60" as="geometry" />
        </mxCell>
        <mxCell id="mbKZYgsFectsTrUbw61T-17" value="" style="endArrow=classic;html=1;rounded=0;entryX=0;entryY=0.5;entryDx=0;entryDy=0;" parent="1" target="mbKZYgsFectsTrUbw61T-11" edge="1">
          <mxGeometry width="50" height="50" relative="1" as="geometry">
            <mxPoint x="1077" y="510" as="sourcePoint" />
            <mxPoint x="977" y="480" as="targetPoint" />
          </mxGeometry>
        </mxCell>
        <mxCell id="mbKZYgsFectsTrUbw61T-18" value="" style="endArrow=classic;html=1;rounded=0;entryX=0;entryY=0.5;entryDx=0;entryDy=0;" parent="1" edge="1">
          <mxGeometry width="50" height="50" relative="1" as="geometry">
            <mxPoint x="1077" y="579.5" as="sourcePoint" />
            <mxPoint x="1107" y="579.5" as="targetPoint" />
          </mxGeometry>
        </mxCell>
        <mxCell id="mbKZYgsFectsTrUbw61T-19" style="edgeStyle=orthogonalEdgeStyle;rounded=0;orthogonalLoop=1;jettySize=auto;html=1;exitX=0.5;exitY=1;exitDx=0;exitDy=0;" parent="1" source="mbKZYgsFectsTrUbw61T-21" edge="1">
          <mxGeometry relative="1" as="geometry">
            <mxPoint x="1379" y="780" as="targetPoint" />
          </mxGeometry>
        </mxCell>
        <mxCell id="mbKZYgsFectsTrUbw61T-20" value="&lt;font style=&quot;font-size: 14px;&quot;&gt;NO&lt;/font&gt;" style="edgeLabel;html=1;align=center;verticalAlign=middle;resizable=0;points=[];" parent="mbKZYgsFectsTrUbw61T-19" connectable="0" vertex="1">
          <mxGeometry x="-0.0878" y="-1" relative="1" as="geometry">
            <mxPoint as="offset" />
          </mxGeometry>
        </mxCell>
        <mxCell id="mbKZYgsFectsTrUbw61T-22" style="edgeStyle=orthogonalEdgeStyle;rounded=0;orthogonalLoop=1;jettySize=auto;html=1;exitX=1;exitY=0.5;exitDx=0;exitDy=0;" parent="1" source="mbKZYgsFectsTrUbw61T-21" target="mbKZYgsFectsTrUbw61T-23" edge="1">
          <mxGeometry relative="1" as="geometry">
            <mxPoint x="1485" y="650" as="targetPoint" />
          </mxGeometry>
        </mxCell>
        <mxCell id="mbKZYgsFectsTrUbw61T-21" value="&lt;br&gt;&lt;div&gt;&lt;span style=&quot;color: rgb(0, 0, 0); font-family: Helvetica; font-size: 12px; font-style: normal; font-variant-ligatures: normal; font-variant-caps: normal; font-weight: 400; letter-spacing: normal; orphans: 2; text-align: center; text-indent: 0px; text-transform: none; widows: 2; word-spacing: 0px; -webkit-text-stroke-width: 0px; white-space: normal; background-color: rgb(251, 251, 251); text-decoration-thickness: initial; text-decoration-style: initial; text-decoration-color: initial; display: inline !important; float: none;&quot;&gt;Finalize&lt;/span&gt;&lt;br&gt;&lt;br&gt;&lt;/div&gt;" style="rhombus;whiteSpace=wrap;html=1;fillColor=#d5e8d4;strokeColor=#82b366;" parent="1" vertex="1">
          <mxGeometry x="1338.5" y="610" width="80" height="80" as="geometry" />
        </mxCell>
        <UserObject label="NEXT STEP" link="data:page/id,JkZFDbfjW4wbQUfnCBrK" id="mbKZYgsFectsTrUbw61T-23">
          <mxCell style="ellipse;whiteSpace=wrap;html=1;aspect=fixed;fillColor=#d5e8d4;strokeColor=#82b366;" parent="1" vertex="1">
            <mxGeometry x="1510" y="610" width="80" height="80" as="geometry" />
          </mxCell>
        </UserObject>
        <mxCell id="mbKZYgsFectsTrUbw61T-25" style="edgeStyle=orthogonalEdgeStyle;rounded=0;orthogonalLoop=1;jettySize=auto;html=1;" parent="1" source="mbKZYgsFectsTrUbw61T-24" edge="1">
          <mxGeometry relative="1" as="geometry">
            <mxPoint x="1185" y="200" as="targetPoint" />
          </mxGeometry>
        </mxCell>
        <UserObject label="PREVIOUS&amp;nbsp;&lt;br&gt;PAGE" link="data:page/id,xXkXfWt9FnmM1K7PqG9_" id="mbKZYgsFectsTrUbw61T-24">
          <mxCell style="ellipse;whiteSpace=wrap;html=1;aspect=fixed;fillColor=#d5e8d4;strokeColor=#82b366;" parent="1" vertex="1">
            <mxGeometry x="1145" y="60" width="80" height="80" as="geometry" />
          </mxCell>
        </UserObject>
      </root>
    </mxGraphModel>
  </diagram>
  <diagram id="JkZFDbfjW4wbQUfnCBrK" name="Walk-through Process">
    <mxGraphModel grid="1" page="1" gridSize="10" guides="1" tooltips="1" connect="1" arrows="1" fold="1" pageScale="1" pageWidth="850" pageHeight="1100" math="0" shadow="0">
      <root>
        <mxCell id="0" />
        <mxCell id="1" parent="0" />
        <mxCell id="pBw_0tq7P0iaeI0cfX5s-10" style="edgeStyle=orthogonalEdgeStyle;rounded=0;orthogonalLoop=1;jettySize=auto;html=1;exitX=1;exitY=0.5;exitDx=0;exitDy=0;entryX=0;entryY=0.5;entryDx=0;entryDy=0;" parent="1" source="pBw_0tq7P0iaeI0cfX5s-11" target="pBw_0tq7P0iaeI0cfX5s-17" edge="1">
          <mxGeometry relative="1" as="geometry" />
        </mxCell>
        <mxCell id="pBw_0tq7P0iaeI0cfX5s-11" value="View All Model/&lt;br&gt;Modified Model" style="rounded=0;whiteSpace=wrap;html=1;" parent="1" vertex="1">
          <mxGeometry x="220" y="110" width="120" height="60" as="geometry" />
        </mxCell>
        <mxCell id="pBw_0tq7P0iaeI0cfX5s-12" style="edgeStyle=orthogonalEdgeStyle;rounded=0;orthogonalLoop=1;jettySize=auto;html=1;exitX=1;exitY=0.5;exitDx=0;exitDy=0;" parent="1" source="pBw_0tq7P0iaeI0cfX5s-13" target="pBw_0tq7P0iaeI0cfX5s-11" edge="1">
          <mxGeometry relative="1" as="geometry" />
        </mxCell>
        <mxCell id="pBw_0tq7P0iaeI0cfX5s-13" value="PREVIOUS&amp;nbsp;&lt;br&gt;PAGE" style="ellipse;whiteSpace=wrap;html=1;aspect=fixed;fillColor=#d5e8d4;strokeColor=#82b366;" parent="1" vertex="1">
          <mxGeometry x="100" y="100" width="80" height="80" as="geometry" />
        </mxCell>
        <mxCell id="pBw_0tq7P0iaeI0cfX5s-14" style="edgeStyle=orthogonalEdgeStyle;rounded=0;orthogonalLoop=1;jettySize=auto;html=1;exitX=1;exitY=0.5;exitDx=0;exitDy=0;" parent="1" source="pBw_0tq7P0iaeI0cfX5s-17" edge="1">
          <mxGeometry relative="1" as="geometry">
            <mxPoint x="560" y="140" as="targetPoint" />
          </mxGeometry>
        </mxCell>
        <mxCell id="pBw_0tq7P0iaeI0cfX5s-15" style="edgeStyle=orthogonalEdgeStyle;rounded=0;orthogonalLoop=1;jettySize=auto;html=1;exitX=0.5;exitY=1;exitDx=0;exitDy=0;" parent="1" source="pBw_0tq7P0iaeI0cfX5s-17" edge="1">
          <mxGeometry relative="1" as="geometry">
            <mxPoint x="450" y="280" as="targetPoint" />
          </mxGeometry>
        </mxCell>
        <mxCell id="pBw_0tq7P0iaeI0cfX5s-16" value="Text" style="edgeLabel;html=1;align=center;verticalAlign=middle;resizable=0;points=[];" parent="pBw_0tq7P0iaeI0cfX5s-15" vertex="1" connectable="0">
          <mxGeometry x="-0.2172" relative="1" as="geometry">
            <mxPoint as="offset" />
          </mxGeometry>
        </mxCell>
        <mxCell id="pBw_0tq7P0iaeI0cfX5s-19" value="NO" style="edgeLabel;html=1;align=center;verticalAlign=middle;resizable=0;points=[];" parent="pBw_0tq7P0iaeI0cfX5s-15" vertex="1" connectable="0">
          <mxGeometry x="-0.1774" y="1" relative="1" as="geometry">
            <mxPoint as="offset" />
          </mxGeometry>
        </mxCell>
        <mxCell id="pBw_0tq7P0iaeI0cfX5s-17" value="Approval Model" style="rhombus;whiteSpace=wrap;html=1;fillColor=#d5e8d4;strokeColor=#82b366;" parent="1" vertex="1">
          <mxGeometry x="410" y="100" width="80" height="80" as="geometry" />
        </mxCell>
        <UserObject label="Next Step" link="data:page/id,BtyiR4jpNamVzZqfS-xv" id="pBw_0tq7P0iaeI0cfX5s-18">
          <mxCell style="ellipse;whiteSpace=wrap;html=1;aspect=fixed;" parent="1" vertex="1">
            <mxGeometry x="560" y="100" width="80" height="80" as="geometry" />
          </mxCell>
        </UserObject>
      </root>
    </mxGraphModel>
  </diagram>
  <diagram id="BtyiR4jpNamVzZqfS-xv" name="Planning Meeting MoM">
    <mxGraphModel grid="1" page="1" gridSize="10" guides="1" tooltips="1" connect="1" arrows="1" fold="1" pageScale="1" pageWidth="3300" pageHeight="2339" math="0" shadow="0">
      <root>
        <mxCell id="0" />
        <mxCell id="1" parent="0" />
        <mxCell id="UCIE6oid1uEZ0Y-VA5es-1" style="edgeStyle=orthogonalEdgeStyle;rounded=0;orthogonalLoop=1;jettySize=auto;html=1;exitX=0.5;exitY=1;exitDx=0;exitDy=0;entryX=0.013;entryY=0.635;entryDx=0;entryDy=0;entryPerimeter=0;" parent="1" target="UCIE6oid1uEZ0Y-VA5es-8" edge="1">
          <mxGeometry relative="1" as="geometry">
            <mxPoint x="390" y="-4045" as="targetPoint" />
            <Array as="points">
              <mxPoint x="590" y="-4255" />
              <mxPoint x="391" y="-4255" />
              <mxPoint x="391" y="-4057" />
            </Array>
            <mxPoint x="590" y="-4295" as="sourcePoint" />
          </mxGeometry>
        </mxCell>
        <mxCell id="UCIE6oid1uEZ0Y-VA5es-2" style="edgeStyle=orthogonalEdgeStyle;rounded=0;orthogonalLoop=1;jettySize=auto;html=1;" parent="1" target="UCIE6oid1uEZ0Y-VA5es-5" edge="1">
          <mxGeometry relative="1" as="geometry">
            <Array as="points">
              <mxPoint x="590" y="-4255" />
              <mxPoint x="670" y="-4255" />
            </Array>
            <mxPoint x="590" y="-4295" as="sourcePoint" />
          </mxGeometry>
        </mxCell>
        <mxCell id="UCIE6oid1uEZ0Y-VA5es-3" value="Upload Planning Docs / View Docs" style="rounded=0;whiteSpace=wrap;html=1;fillColor=#dae8fc;strokeColor=#6c8ebf;" parent="1" vertex="1">
          <mxGeometry x="420" y="-4235" width="120" height="60" as="geometry" />
        </mxCell>
        <mxCell id="UCIE6oid1uEZ0Y-VA5es-4" style="edgeStyle=orthogonalEdgeStyle;rounded=0;orthogonalLoop=1;jettySize=auto;html=1;entryX=0.5;entryY=0;entryDx=0;entryDy=0;" parent="1" source="UCIE6oid1uEZ0Y-VA5es-5" target="UCIE6oid1uEZ0Y-VA5es-13" edge="1">
          <mxGeometry relative="1" as="geometry" />
        </mxCell>
        <mxCell id="UCIE6oid1uEZ0Y-VA5es-5" value="Add Planning &lt;br&gt;Meeting&lt;br&gt;RAID Log/&lt;br&gt;View RAID Logs" style="rounded=0;whiteSpace=wrap;html=1;" parent="1" vertex="1">
          <mxGeometry x="610" y="-4235" width="120" height="60" as="geometry" />
        </mxCell>
        <mxCell id="UCIE6oid1uEZ0Y-VA5es-6" value="Add Planning&lt;br&gt;User/View Users" style="rounded=0;whiteSpace=wrap;html=1;fillColor=#dae8fc;strokeColor=#6c8ebf;" parent="1" vertex="1">
          <mxGeometry x="420" y="-4165" width="120" height="60" as="geometry" />
        </mxCell>
        <mxCell id="UCIE6oid1uEZ0Y-VA5es-7" style="edgeStyle=orthogonalEdgeStyle;rounded=0;orthogonalLoop=1;jettySize=auto;html=1;exitX=1;exitY=0.5;exitDx=0;exitDy=0;entryX=0;entryY=0.5;entryDx=0;entryDy=0;" parent="1" source="UCIE6oid1uEZ0Y-VA5es-8" target="UCIE6oid1uEZ0Y-VA5es-13" edge="1">
          <mxGeometry relative="1" as="geometry" />
        </mxCell>
        <mxCell id="UCIE6oid1uEZ0Y-VA5es-8" value="Add Planning&lt;br&gt;Agenda / View Agendas/&lt;br&gt;Download MoM" style="rounded=0;whiteSpace=wrap;html=1;fillColor=#dae8fc;strokeColor=#6c8ebf;" parent="1" vertex="1">
          <mxGeometry x="420" y="-4095" width="120" height="60" as="geometry" />
        </mxCell>
        <mxCell id="UCIE6oid1uEZ0Y-VA5es-9" value="" style="endArrow=classic;html=1;rounded=0;entryX=0;entryY=0.5;entryDx=0;entryDy=0;" parent="1" target="UCIE6oid1uEZ0Y-VA5es-3" edge="1">
          <mxGeometry width="50" height="50" relative="1" as="geometry">
            <mxPoint x="390" y="-4205" as="sourcePoint" />
            <mxPoint x="290" y="-4235" as="targetPoint" />
          </mxGeometry>
        </mxCell>
        <mxCell id="UCIE6oid1uEZ0Y-VA5es-10" value="" style="endArrow=classic;html=1;rounded=0;entryX=0;entryY=0.5;entryDx=0;entryDy=0;" parent="1" edge="1">
          <mxGeometry width="50" height="50" relative="1" as="geometry">
            <mxPoint x="390" y="-4135.5" as="sourcePoint" />
            <mxPoint x="420" y="-4135.5" as="targetPoint" />
          </mxGeometry>
        </mxCell>
        <mxCell id="UCIE6oid1uEZ0Y-VA5es-11" style="edgeStyle=orthogonalEdgeStyle;rounded=0;orthogonalLoop=1;jettySize=auto;html=1;exitX=0.5;exitY=1;exitDx=0;exitDy=0;" parent="1" source="UCIE6oid1uEZ0Y-VA5es-13" edge="1">
          <mxGeometry relative="1" as="geometry">
            <mxPoint x="669.7777777777778" y="-3945" as="targetPoint" />
          </mxGeometry>
        </mxCell>
        <mxCell id="UCIE6oid1uEZ0Y-VA5es-12" value="No" style="edgeLabel;html=1;align=center;verticalAlign=middle;resizable=0;points=[];" parent="UCIE6oid1uEZ0Y-VA5es-11" connectable="0" vertex="1">
          <mxGeometry x="0.0041" relative="1" as="geometry">
            <mxPoint as="offset" />
          </mxGeometry>
        </mxCell>
        <mxCell id="UCIE6oid1uEZ0Y-VA5es-13" value="&lt;br&gt;&lt;div&gt;&lt;span style=&quot;color: rgb(0, 0, 0); font-family: Helvetica; font-size: 12px; font-style: normal; font-variant-ligatures: normal; font-variant-caps: normal; font-weight: 400; letter-spacing: normal; orphans: 2; text-align: center; text-indent: 0px; text-transform: none; widows: 2; word-spacing: 0px; -webkit-text-stroke-width: 0px; white-space: normal; background-color: rgb(251, 251, 251); text-decoration-thickness: initial; text-decoration-style: initial; text-decoration-color: initial; display: inline !important; float: none;&quot;&gt;Finalize&lt;/span&gt;&lt;br&gt;&lt;br&gt;&lt;/div&gt;" style="rhombus;whiteSpace=wrap;html=1;fillColor=#d5e8d4;strokeColor=#82b366;" parent="1" vertex="1">
          <mxGeometry x="630" y="-4105" width="80" height="80" as="geometry" />
        </mxCell>
        <mxCell id="UCIE6oid1uEZ0Y-VA5es-14" value="Start" style="ellipse;whiteSpace=wrap;html=1;aspect=fixed;fillColor=#d5e8d4;strokeColor=#82b366;" parent="1" vertex="1">
          <mxGeometry x="550.3" y="-4360" width="80" height="80" as="geometry" />
        </mxCell>
        <UserObject label="NEXT STEP" link="data:page/id,-vt4ipw-Y4fM9ojm0ter" id="UCIE6oid1uEZ0Y-VA5es-15">
          <mxCell style="ellipse;whiteSpace=wrap;html=1;aspect=fixed;fillColor=#d5e8d4;strokeColor=#82b366;" parent="1" vertex="1">
            <mxGeometry x="810" y="-4115" width="80" height="80" as="geometry" />
          </mxCell>
        </UserObject>
        <mxCell id="UCIE6oid1uEZ0Y-VA5es-16" style="edgeStyle=orthogonalEdgeStyle;rounded=0;orthogonalLoop=1;jettySize=auto;html=1;exitX=1;exitY=0.5;exitDx=0;exitDy=0;entryX=-0.023;entryY=0.632;entryDx=0;entryDy=0;entryPerimeter=0;" parent="1" source="UCIE6oid1uEZ0Y-VA5es-13" target="UCIE6oid1uEZ0Y-VA5es-15" edge="1">
          <mxGeometry relative="1" as="geometry" />
        </mxCell>
        <mxCell id="UCIE6oid1uEZ0Y-VA5es-17" value="YES" style="edgeLabel;html=1;align=center;verticalAlign=middle;resizable=0;points=[];" parent="UCIE6oid1uEZ0Y-VA5es-16" vertex="1" connectable="0">
          <mxGeometry x="-0.1999" relative="1" as="geometry">
            <mxPoint as="offset" />
          </mxGeometry>
        </mxCell>
      </root>
    </mxGraphModel>
  </diagram>
  <diagram id="-vt4ipw-Y4fM9ojm0ter" name="Stage Gate Findings">
    <mxGraphModel dx="3134" dy="2938" grid="1" gridSize="10" guides="1" tooltips="1" connect="1" arrows="1" fold="1" page="1" pageScale="1" pageWidth="850" pageHeight="1100" math="0" shadow="0">
      <root>
        <mxCell id="0" />
        <mxCell id="1" parent="0" />
        <mxCell id="NykgSJzFip8Q2IuzWKVK-7" style="edgeStyle=orthogonalEdgeStyle;rounded=0;orthogonalLoop=1;jettySize=auto;html=1;exitX=1;exitY=0.5;exitDx=0;exitDy=0;entryX=0;entryY=0.5;entryDx=0;entryDy=0;" parent="1" source="NykgSJzFip8Q2IuzWKVK-1" target="NykgSJzFip8Q2IuzWKVK-2" edge="1">
          <mxGeometry relative="1" as="geometry" />
        </mxCell>
        <mxCell id="NykgSJzFip8Q2IuzWKVK-1" value="Start" style="ellipse;whiteSpace=wrap;html=1;aspect=fixed;" parent="1" vertex="1">
          <mxGeometry x="-1270" y="-1840" width="80" height="80" as="geometry" />
        </mxCell>
        <mxCell id="NykgSJzFip8Q2IuzWKVK-9" style="edgeStyle=orthogonalEdgeStyle;rounded=0;orthogonalLoop=1;jettySize=auto;html=1;exitX=0.5;exitY=1;exitDx=0;exitDy=0;entryX=0;entryY=0.75;entryDx=0;entryDy=0;" parent="1" source="NykgSJzFip8Q2IuzWKVK-2" target="NykgSJzFip8Q2IuzWKVK-6" edge="1">
          <mxGeometry relative="1" as="geometry">
            <Array as="points">
              <mxPoint x="-1010" y="-1750" />
              <mxPoint x="-1060" y="-1750" />
              <mxPoint x="-1060" y="-1425" />
            </Array>
          </mxGeometry>
        </mxCell>
        <mxCell id="NykgSJzFip8Q2IuzWKVK-14" style="edgeStyle=orthogonalEdgeStyle;rounded=0;orthogonalLoop=1;jettySize=auto;html=1;exitX=1;exitY=0.5;exitDx=0;exitDy=0;" parent="1" source="NykgSJzFip8Q2IuzWKVK-2" edge="1">
          <mxGeometry relative="1" as="geometry">
            <mxPoint x="-810" y="-1800" as="targetPoint" />
          </mxGeometry>
        </mxCell>
        <mxCell id="NykgSJzFip8Q2IuzWKVK-2" value="Dashboard Kpi&amp;nbsp;" style="rounded=0;whiteSpace=wrap;html=1;fillColor=#60a917;fontColor=#ffffff;strokeColor=#2D7600;" parent="1" vertex="1">
          <mxGeometry x="-1070" y="-1830" width="120" height="60" as="geometry" />
        </mxCell>
        <UserObject label="DSL &amp;amp; RFI Documents" link="data:page/id,eZWeDsNO8A5lHf7pd0LQ" id="NykgSJzFip8Q2IuzWKVK-3">
          <mxCell style="rounded=0;whiteSpace=wrap;html=1;fillColor=#d5e8d4;strokeColor=#82b366;" parent="1" vertex="1">
            <mxGeometry x="-1040" y="-1730" width="120" height="60" as="geometry" />
          </mxCell>
        </UserObject>
        <UserObject label="Presentation &amp;amp; Kickoff Documents" link="data:page/id,2k5VoAWTn4ZmVF3ulbP7" id="NykgSJzFip8Q2IuzWKVK-4">
          <mxCell style="rounded=0;whiteSpace=wrap;html=1;fillColor=#dae8fc;strokeColor=#6c8ebf;" parent="1" vertex="1">
            <mxGeometry x="-1040" y="-1640" width="120" height="60" as="geometry" />
          </mxCell>
        </UserObject>
        <UserObject label="Process Understanding Documents" link="data:page/id,vUzz8_i2PkU_AjsXSF4H" id="NykgSJzFip8Q2IuzWKVK-5">
          <mxCell style="rounded=0;whiteSpace=wrap;html=1;fillColor=#fff2cc;strokeColor=#d6b656;" parent="1" vertex="1">
            <mxGeometry x="-1040" y="-1560" width="120" height="60" as="geometry" />
          </mxCell>
        </UserObject>
        <UserObject label="Planning Meeting MoM&amp;nbsp;&lt;br&gt;Documents" link="data:page/id,bodM2T3KiP5Xakcll3Hf" id="NykgSJzFip8Q2IuzWKVK-6">
          <mxCell style="rounded=0;whiteSpace=wrap;html=1;fillColor=#f8cecc;strokeColor=#b85450;" parent="1" vertex="1">
            <mxGeometry x="-1040" y="-1470" width="120" height="60" as="geometry" />
          </mxCell>
        </UserObject>
        <mxCell id="NykgSJzFip8Q2IuzWKVK-10" value="" style="endArrow=classic;html=1;rounded=0;" parent="1" edge="1">
          <mxGeometry width="50" height="50" relative="1" as="geometry">
            <mxPoint x="-1060" y="-1700.5" as="sourcePoint" />
            <mxPoint x="-1040" y="-1700.5" as="targetPoint" />
          </mxGeometry>
        </mxCell>
        <mxCell id="NykgSJzFip8Q2IuzWKVK-12" value="" style="endArrow=classic;html=1;rounded=0;" parent="1" edge="1">
          <mxGeometry width="50" height="50" relative="1" as="geometry">
            <mxPoint x="-1060" y="-1610.5" as="sourcePoint" />
            <mxPoint x="-1040" y="-1610.5" as="targetPoint" />
          </mxGeometry>
        </mxCell>
        <mxCell id="NykgSJzFip8Q2IuzWKVK-13" value="" style="endArrow=classic;html=1;rounded=0;" parent="1" edge="1">
          <mxGeometry width="50" height="50" relative="1" as="geometry">
            <mxPoint x="-1060" y="-1530.5" as="sourcePoint" />
            <mxPoint x="-1040" y="-1530.5" as="targetPoint" />
          </mxGeometry>
        </mxCell>
        <UserObject label="NEXT PAGE" link="data:page/id,lzlA_cUkZQJq2WjfeU5k" id="NykgSJzFip8Q2IuzWKVK-15">
          <mxCell style="ellipse;whiteSpace=wrap;html=1;aspect=fixed;" parent="1" vertex="1">
            <mxGeometry x="-810" y="-1840" width="80" height="80" as="geometry" />
          </mxCell>
        </UserObject>
      </root>
    </mxGraphModel>
  </diagram>
  <diagram id="lzlA_cUkZQJq2WjfeU5k" name="Audit Planning QA  Checklist">
    <mxGraphModel grid="1" page="1" gridSize="10" guides="1" tooltips="1" connect="1" arrows="1" fold="1" pageScale="1" pageWidth="3300" pageHeight="2339" math="0" shadow="0">
      <root>
        <mxCell id="0" />
        <mxCell id="1" parent="0" />
        <mxCell id="ea9NowrPNF4lp-MoDglP-2" style="edgeStyle=orthogonalEdgeStyle;rounded=0;orthogonalLoop=1;jettySize=auto;html=1;" edge="1" parent="1" source="ea9NowrPNF4lp-MoDglP-1" target="ea9NowrPNF4lp-MoDglP-3">
          <mxGeometry relative="1" as="geometry">
            <mxPoint x="-1200" y="-2900" as="targetPoint" />
          </mxGeometry>
        </mxCell>
        <mxCell id="ea9NowrPNF4lp-MoDglP-1" value="START" style="ellipse;whiteSpace=wrap;html=1;aspect=fixed;" vertex="1" parent="1">
          <mxGeometry x="-1380" y="-2940" width="80" height="80" as="geometry" />
        </mxCell>
        <mxCell id="I7kA42ojHGnjml7uC6ZH-1" style="edgeStyle=orthogonalEdgeStyle;rounded=0;orthogonalLoop=1;jettySize=auto;html=1;exitX=1;exitY=0.5;exitDx=0;exitDy=0;entryX=0;entryY=0.5;entryDx=0;entryDy=0;" edge="1" parent="1" source="ea9NowrPNF4lp-MoDglP-3" target="DK32PCknRaWqJHfKyBEJ-2">
          <mxGeometry relative="1" as="geometry" />
        </mxCell>
        <mxCell id="ea9NowrPNF4lp-MoDglP-3" value="Add Audit Planning QA Checklist/View QA Checklist" style="rounded=0;whiteSpace=wrap;html=1;" vertex="1" parent="1">
          <mxGeometry x="-1240" y="-2930" width="120" height="60" as="geometry" />
        </mxCell>
        <UserObject label="NEXT PAGE" link="data:page/id,onjasasucwlx9Kj9we2S" id="ea9NowrPNF4lp-MoDglP-5">
          <mxCell style="ellipse;whiteSpace=wrap;html=1;aspect=fixed;" vertex="1" parent="1">
            <mxGeometry x="-650" y="-2940" width="80" height="80" as="geometry" />
          </mxCell>
        </UserObject>
        <mxCell id="I7kA42ojHGnjml7uC6ZH-2" style="edgeStyle=orthogonalEdgeStyle;rounded=0;orthogonalLoop=1;jettySize=auto;html=1;exitX=1;exitY=0.5;exitDx=0;exitDy=0;entryX=0;entryY=0.5;entryDx=0;entryDy=0;" edge="1" parent="1" source="DK32PCknRaWqJHfKyBEJ-2" target="DK32PCknRaWqJHfKyBEJ-4">
          <mxGeometry relative="1" as="geometry" />
        </mxCell>
        <mxCell id="DK32PCknRaWqJHfKyBEJ-2" value="QA Session Add Supported Docs" style="rounded=0;whiteSpace=wrap;html=1;" vertex="1" parent="1">
          <mxGeometry x="-1040" y="-2930" width="120" height="60" as="geometry" />
        </mxCell>
        <mxCell id="I7kA42ojHGnjml7uC6ZH-3" style="edgeStyle=orthogonalEdgeStyle;rounded=0;orthogonalLoop=1;jettySize=auto;html=1;exitX=1;exitY=0.5;exitDx=0;exitDy=0;entryX=0;entryY=0.5;entryDx=0;entryDy=0;" edge="1" parent="1" source="DK32PCknRaWqJHfKyBEJ-4" target="ea9NowrPNF4lp-MoDglP-5">
          <mxGeometry relative="1" as="geometry" />
        </mxCell>
        <mxCell id="DK32PCknRaWqJHfKyBEJ-4" value="Approve/Reject&amp;nbsp;&lt;br&gt;Administrator" style="rounded=0;whiteSpace=wrap;html=1;" vertex="1" parent="1">
          <mxGeometry x="-850" y="-2930" width="120" height="60" as="geometry" />
        </mxCell>
      </root>
    </mxGraphModel>
  </diagram>
  <diagram id="00hlMRfuDbaS-sajrneF" name="Detailed Scope">
    <mxGraphModel dx="925" dy="476" grid="1" gridSize="10" guides="1" tooltips="1" connect="1" arrows="1" fold="1" page="1" pageScale="1" pageWidth="850" pageHeight="1100" math="0" shadow="0">
      <root>
        <mxCell id="0" />
        <mxCell id="1" parent="0" />
        <mxCell id="jlDo_IHpH_gCX-HGh6p6-1" value="Detailed Scope" style="text;html=1;align=center;verticalAlign=middle;resizable=0;points=[];autosize=1;strokeColor=none;fillColor=none;fontSize=19;" vertex="1" parent="1">
          <mxGeometry x="340" y="50" width="150" height="40" as="geometry" />
        </mxCell>
        <mxCell id="jlDo_IHpH_gCX-HGh6p6-2" value="Fill Detailed Scope Form" style="rounded=0;whiteSpace=wrap;html=1;fillColor=#d5e8d4;strokeColor=#82b366;" vertex="1" parent="1">
          <mxGeometry x="270" y="120" width="120" height="60" as="geometry" />
        </mxCell>
        <mxCell id="jlDo_IHpH_gCX-HGh6p6-7" value="" style="endArrow=none;html=1;rounded=0;entryX=0.5;entryY=1;entryDx=0;entryDy=0;" edge="1" parent="1" target="jlDo_IHpH_gCX-HGh6p6-2">
          <mxGeometry width="50" height="50" relative="1" as="geometry">
            <mxPoint x="330" y="880" as="sourcePoint" />
            <mxPoint x="700" y="260" as="targetPoint" />
          </mxGeometry>
        </mxCell>
        <mxCell id="jlDo_IHpH_gCX-HGh6p6-8" value="" style="endArrow=classic;html=1;rounded=0;" edge="1" parent="1">
          <mxGeometry width="50" height="50" relative="1" as="geometry">
            <mxPoint x="330" y="250" as="sourcePoint" />
            <mxPoint x="400" y="250" as="targetPoint" />
          </mxGeometry>
        </mxCell>
        <mxCell id="jlDo_IHpH_gCX-HGh6p6-9" value="&lt;font color=&quot;#ff3333&quot;&gt;Audit Plan Title&lt;br&gt;&lt;/font&gt;Provide a Title for Audit Plan" style="rounded=0;whiteSpace=wrap;html=1;" vertex="1" parent="1">
          <mxGeometry x="401" y="220" width="179" height="60" as="geometry" />
        </mxCell>
        <mxCell id="jlDo_IHpH_gCX-HGh6p6-11" value="" style="endArrow=classic;html=1;rounded=0;" edge="1" parent="1">
          <mxGeometry width="50" height="50" relative="1" as="geometry">
            <mxPoint x="330" y="320" as="sourcePoint" />
            <mxPoint x="400" y="320" as="targetPoint" />
          </mxGeometry>
        </mxCell>
        <mxCell id="jlDo_IHpH_gCX-HGh6p6-12" value="&lt;font color=&quot;#ff3333&quot;&gt;Business Unit&lt;/font&gt;&lt;div&gt;&amp;nbsp;Choose a Business Unit from the dropdown&amp;nbsp;&lt;/div&gt;" style="rounded=0;whiteSpace=wrap;html=1;" vertex="1" parent="1">
          <mxGeometry x="401" y="290" width="179" height="60" as="geometry" />
        </mxCell>
        <mxCell id="jlDo_IHpH_gCX-HGh6p6-17" value="" style="endArrow=classic;html=1;rounded=0;" edge="1" parent="1">
          <mxGeometry width="50" height="50" relative="1" as="geometry">
            <mxPoint x="330" y="390" as="sourcePoint" />
            <mxPoint x="400" y="390" as="targetPoint" />
          </mxGeometry>
        </mxCell>
        <mxCell id="jlDo_IHpH_gCX-HGh6p6-18" value="&lt;font color=&quot;#ff3333&quot;&gt;Department&lt;br&gt;&lt;/font&gt;Choose a Department from the dropdown&amp;nbsp;" style="rounded=0;whiteSpace=wrap;html=1;" vertex="1" parent="1">
          <mxGeometry x="401" y="360" width="179" height="60" as="geometry" />
        </mxCell>
        <mxCell id="jlDo_IHpH_gCX-HGh6p6-19" value="" style="endArrow=classic;html=1;rounded=0;" edge="1" parent="1">
          <mxGeometry width="50" height="50" relative="1" as="geometry">
            <mxPoint x="330" y="460" as="sourcePoint" />
            <mxPoint x="400" y="460" as="targetPoint" />
          </mxGeometry>
        </mxCell>
        <mxCell id="jlDo_IHpH_gCX-HGh6p6-20" value="&lt;font color=&quot;#ff3333&quot;&gt;Select AAF ID&lt;/font&gt;&lt;br&gt;&lt;div&gt;Select Audit Assignment Form ID (AAF ID) to allocate Pre-approved assignments&lt;/div&gt;" style="rounded=0;whiteSpace=wrap;html=1;" vertex="1" parent="1">
          <mxGeometry x="401" y="430" width="179" height="60" as="geometry" />
        </mxCell>
        <mxCell id="jlDo_IHpH_gCX-HGh6p6-29" value="" style="endArrow=classic;html=1;rounded=0;" edge="1" parent="1">
          <mxGeometry width="50" height="50" relative="1" as="geometry">
            <mxPoint x="330" y="530" as="sourcePoint" />
            <mxPoint x="400" y="530" as="targetPoint" />
          </mxGeometry>
        </mxCell>
        <mxCell id="jlDo_IHpH_gCX-HGh6p6-30" value="&lt;font color=&quot;#ff3333&quot;&gt;Start Date&lt;/font&gt;&lt;div&gt;Assignment Start Date&lt;/div&gt;" style="rounded=0;whiteSpace=wrap;html=1;" vertex="1" parent="1">
          <mxGeometry x="401" y="500" width="179" height="60" as="geometry" />
        </mxCell>
        <mxCell id="jlDo_IHpH_gCX-HGh6p6-31" value="" style="endArrow=classic;html=1;rounded=0;" edge="1" parent="1">
          <mxGeometry width="50" height="50" relative="1" as="geometry">
            <mxPoint x="330" y="600" as="sourcePoint" />
            <mxPoint x="400" y="600" as="targetPoint" />
          </mxGeometry>
        </mxCell>
        <mxCell id="jlDo_IHpH_gCX-HGh6p6-32" value="&lt;font color=&quot;#ff3333&quot;&gt;End Date&lt;/font&gt;&lt;div&gt;Assignment End Date&lt;br&gt;&lt;/div&gt;" style="rounded=0;whiteSpace=wrap;html=1;" vertex="1" parent="1">
          <mxGeometry x="401" y="570" width="179" height="60" as="geometry" />
        </mxCell>
        <mxCell id="jlDo_IHpH_gCX-HGh6p6-33" value="" style="endArrow=classic;html=1;rounded=0;" edge="1" parent="1">
          <mxGeometry width="50" height="50" relative="1" as="geometry">
            <mxPoint x="330" y="670" as="sourcePoint" />
            <mxPoint x="400" y="670" as="targetPoint" />
          </mxGeometry>
        </mxCell>
        <mxCell id="jlDo_IHpH_gCX-HGh6p6-34" value="&lt;font color=&quot;#ff3333&quot;&gt;Head Of Audit&lt;br&gt;&lt;/font&gt;Choose a Head Of Audit from the List of Users" style="rounded=0;whiteSpace=wrap;html=1;" vertex="1" parent="1">
          <mxGeometry x="401" y="640" width="179" height="60" as="geometry" />
        </mxCell>
        <mxCell id="jlDo_IHpH_gCX-HGh6p6-35" value="" style="endArrow=classic;html=1;rounded=0;" edge="1" parent="1">
          <mxGeometry width="50" height="50" relative="1" as="geometry">
            <mxPoint x="330" y="740" as="sourcePoint" />
            <mxPoint x="400" y="740" as="targetPoint" />
          </mxGeometry>
        </mxCell>
        <mxCell id="jlDo_IHpH_gCX-HGh6p6-36" value="&lt;font color=&quot;#ff3333&quot;&gt;Audit Manager&lt;/font&gt;&lt;div&gt;Choose a Audit Manager from the List of Users&lt;br&gt;&lt;/div&gt;" style="rounded=0;whiteSpace=wrap;html=1;" vertex="1" parent="1">
          <mxGeometry x="401" y="710" width="179" height="60" as="geometry" />
        </mxCell>
        <mxCell id="jlDo_IHpH_gCX-HGh6p6-37" value="" style="endArrow=classic;html=1;rounded=0;" edge="1" parent="1">
          <mxGeometry width="50" height="50" relative="1" as="geometry">
            <mxPoint x="330" y="810" as="sourcePoint" />
            <mxPoint x="400" y="810" as="targetPoint" />
          </mxGeometry>
        </mxCell>
        <mxCell id="jlDo_IHpH_gCX-HGh6p6-38" value="&lt;font color=&quot;#ff3333&quot;&gt;Audit Scope&lt;br&gt;&lt;/font&gt;Write detailed Audit Scope in the given Rich Text Editor" style="rounded=0;whiteSpace=wrap;html=1;" vertex="1" parent="1">
          <mxGeometry x="401" y="780" width="179" height="60" as="geometry" />
        </mxCell>
        <mxCell id="jlDo_IHpH_gCX-HGh6p6-39" value="" style="endArrow=classic;html=1;rounded=0;" edge="1" parent="1">
          <mxGeometry width="50" height="50" relative="1" as="geometry">
            <mxPoint x="330" y="880" as="sourcePoint" />
            <mxPoint x="400" y="880" as="targetPoint" />
          </mxGeometry>
        </mxCell>
        <mxCell id="jlDo_IHpH_gCX-HGh6p6-40" value="&lt;div&gt;&lt;font color=&quot;#ff3333&quot;&gt;Audit Procedure&lt;/font&gt;&lt;/div&gt;&lt;div&gt;Write detailed Audit Procedure&amp;nbsp;&lt;span style=&quot;background-color: initial;&quot;&gt;in the given Rich Text Editor&lt;/span&gt;&lt;br&gt;&lt;/div&gt;" style="rounded=0;whiteSpace=wrap;html=1;" vertex="1" parent="1">
          <mxGeometry x="401" y="850" width="179" height="60" as="geometry" />
        </mxCell>
      </root>
    </mxGraphModel>
  </diagram>
  <diagram id="onjasasucwlx9Kj9we2S" name="Field Work">
    <mxGraphModel grid="1" page="1" gridSize="10" guides="1" tooltips="1" connect="1" arrows="1" fold="1" pageScale="1" pageWidth="850" pageHeight="1100" math="0" shadow="0">
      <root>
        <mxCell id="0" />
        <mxCell id="1" parent="0" />
        <mxCell id="TtS_ItIUl5P7vwWUC-KX-20" style="edgeStyle=orthogonalEdgeStyle;orthogonalLoop=1;jettySize=auto;html=1;" edge="1" parent="1" source="TtS_ItIUl5P7vwWUC-KX-2" target="TtS_ItIUl5P7vwWUC-KX-9">
          <mxGeometry relative="1" as="geometry" />
        </mxCell>
        <mxCell id="TtS_ItIUl5P7vwWUC-KX-21" style="edgeStyle=orthogonalEdgeStyle;orthogonalLoop=1;jettySize=auto;html=1;exitX=0.5;exitY=1;exitDx=0;exitDy=0;entryX=0.5;entryY=0;entryDx=0;entryDy=0;" edge="1" parent="1" source="TtS_ItIUl5P7vwWUC-KX-2" target="TtS_ItIUl5P7vwWUC-KX-18">
          <mxGeometry relative="1" as="geometry" />
        </mxCell>
        <mxCell id="TtS_ItIUl5P7vwWUC-KX-2" value="&lt;font color=&quot;#009900&quot; style=&quot;font-size: 16px;&quot;&gt;&lt;b&gt;Field Work&lt;/b&gt;&lt;/font&gt;&lt;div&gt;&lt;font color=&quot;#666666&quot; style=&quot;font-size: 15px;&quot;&gt;Test the credibility of various controls&lt;/font&gt;&lt;/div&gt;" style="rounded=0;whiteSpace=wrap;html=1;fillColor=#d5e8d4;strokeColor=#82b366;" vertex="1" parent="1">
          <mxGeometry x="315" y="60" width="220" height="90" as="geometry" />
        </mxCell>
        <mxCell id="6OMhhhsVt23xvk1DMsT8-2" style="edgeStyle=orthogonalEdgeStyle;orthogonalLoop=1;jettySize=auto;html=1;" edge="1" parent="1" source="TtS_ItIUl5P7vwWUC-KX-9">
          <mxGeometry relative="1" as="geometry">
            <mxPoint x="255" y="310" as="targetPoint" />
          </mxGeometry>
        </mxCell>
        <mxCell id="TtS_ItIUl5P7vwWUC-KX-9" value="&lt;font color=&quot;#ffb570&quot;&gt;Test Of Controls&lt;/font&gt;" style="rounded=0;whiteSpace=wrap;html=1;fillColor=#FFFFCC;strokeColor=#d6b656;" vertex="1" parent="1">
          <mxGeometry x="195" y="210" width="120" height="60" as="geometry" />
        </mxCell>
        <mxCell id="TtS_ItIUl5P7vwWUC-KX-18" value="&lt;font color=&quot;#ffb570&quot;&gt;Audit Workpaper Checklist&lt;/font&gt;" style="rounded=0;whiteSpace=wrap;html=1;fillColor=#FFFFCC;strokeColor=#d6b656;" vertex="1" parent="1">
          <mxGeometry x="535" y="210" width="120" height="60" as="geometry" />
        </mxCell>
        <mxCell id="TtS_ItIUl5P7vwWUC-KX-80" value="" style="edgeStyle=orthogonalEdgeStyle;orthogonalLoop=1;jettySize=auto;html=1;" edge="1" parent="1" source="TtS_ItIUl5P7vwWUC-KX-78" target="TtS_ItIUl5P7vwWUC-KX-79">
          <mxGeometry relative="1" as="geometry" />
        </mxCell>
        <UserObject label="&lt;font color=&quot;#ff3333&quot;&gt;Add a New Test of Control&lt;br&gt;&lt;/font&gt;" link="data:page/id,V9kYr8GFRwZ4kbUhQ20Z" id="TtS_ItIUl5P7vwWUC-KX-78">
          <mxCell style="rounded=0;whiteSpace=wrap;html=1;" vertex="1" parent="1">
            <mxGeometry x="170" y="310" width="180" height="60" as="geometry" />
          </mxCell>
        </UserObject>
        <mxCell id="TtS_ItIUl5P7vwWUC-KX-82" value="" style="edgeStyle=orthogonalEdgeStyle;orthogonalLoop=1;jettySize=auto;html=1;" edge="1" parent="1" source="TtS_ItIUl5P7vwWUC-KX-79" target="TtS_ItIUl5P7vwWUC-KX-81">
          <mxGeometry relative="1" as="geometry" />
        </mxCell>
        <mxCell id="TtS_ItIUl5P7vwWUC-KX-79" value="&lt;font color=&quot;#ff3333&quot;&gt;Upload Evidence against it&lt;/font&gt;" style="rounded=0;whiteSpace=wrap;html=1;" vertex="1" parent="1">
          <mxGeometry x="170" y="450" width="180" height="60" as="geometry" />
        </mxCell>
        <mxCell id="TtS_ItIUl5P7vwWUC-KX-83" style="edgeStyle=orthogonalEdgeStyle;orthogonalLoop=1;jettySize=auto;html=1;" edge="1" parent="1" source="TtS_ItIUl5P7vwWUC-KX-81">
          <mxGeometry relative="1" as="geometry">
            <mxPoint x="210" y="760" as="targetPoint" />
          </mxGeometry>
        </mxCell>
        <mxCell id="TtS_ItIUl5P7vwWUC-KX-92" style="edgeStyle=orthogonalEdgeStyle;orthogonalLoop=1;jettySize=auto;html=1;" edge="1" parent="1" source="TtS_ItIUl5P7vwWUC-KX-81">
          <mxGeometry relative="1" as="geometry">
            <mxPoint x="410" y="730" as="targetPoint" />
          </mxGeometry>
        </mxCell>
        <mxCell id="TtS_ItIUl5P7vwWUC-KX-81" value="Evidence Approval by Adminstration" style="rhombus;whiteSpace=wrap;html=1;rounded=0;" vertex="1" parent="1">
          <mxGeometry x="190" y="555" width="140" height="115" as="geometry" />
        </mxCell>
        <mxCell id="TtS_ItIUl5P7vwWUC-KX-87" value="" style="edgeStyle=orthogonalEdgeStyle;orthogonalLoop=1;jettySize=auto;html=1;" edge="1" parent="1" source="TtS_ItIUl5P7vwWUC-KX-85" target="TtS_ItIUl5P7vwWUC-KX-86">
          <mxGeometry relative="1" as="geometry" />
        </mxCell>
        <mxCell id="TtS_ItIUl5P7vwWUC-KX-85" value="Result will be reflected against the Test Control" style="rounded=0;whiteSpace=wrap;html=1;" vertex="1" parent="1">
          <mxGeometry x="160" y="760" width="120" height="60" as="geometry" />
        </mxCell>
        <mxCell id="oddELbydAmxCG5crCO8R-1" style="edgeStyle=orthogonalEdgeStyle;orthogonalLoop=1;jettySize=auto;html=1;" edge="1" parent="1" source="TtS_ItIUl5P7vwWUC-KX-86" target="oddELbydAmxCG5crCO8R-2">
          <mxGeometry relative="1" as="geometry">
            <mxPoint x="220" y="1040" as="targetPoint" />
          </mxGeometry>
        </mxCell>
        <mxCell id="TtS_ItIUl5P7vwWUC-KX-86" value="Add Findings" style="rounded=0;whiteSpace=wrap;html=1;" vertex="1" parent="1">
          <mxGeometry x="160" y="900" width="120" height="60" as="geometry" />
        </mxCell>
        <mxCell id="TtS_ItIUl5P7vwWUC-KX-90" value="Yes" style="text;html=1;align=center;verticalAlign=middle;resizable=0;points=[];autosize=1;strokeColor=none;fillColor=none;" vertex="1" parent="1">
          <mxGeometry x="210" y="688" width="40" height="30" as="geometry" />
        </mxCell>
        <mxCell id="TtS_ItIUl5P7vwWUC-KX-93" value="No" style="text;html=1;align=center;verticalAlign=middle;resizable=0;points=[];autosize=1;strokeColor=none;fillColor=none;" vertex="1" parent="1">
          <mxGeometry x="360" y="618" width="40" height="30" as="geometry" />
        </mxCell>
        <mxCell id="TtS_ItIUl5P7vwWUC-KX-94" value="" style="rounded=0;whiteSpace=wrap;html=1;" vertex="1" parent="1">
          <mxGeometry x="360" y="730" width="120" height="60" as="geometry" />
        </mxCell>
        <mxCell id="enlYrYOUnWF7XD4nbIik-3" style="edgeStyle=orthogonalEdgeStyle;rounded=0;orthogonalLoop=1;jettySize=auto;html=1;" edge="1" parent="1" source="enlYrYOUnWF7XD4nbIik-1">
          <mxGeometry relative="1" as="geometry">
            <mxPoint x="310" y="100" as="targetPoint" />
          </mxGeometry>
        </mxCell>
        <UserObject label="START" link="data:page/id,SO7P523GmKmao4ISK2ce" id="enlYrYOUnWF7XD4nbIik-1">
          <mxCell style="ellipse;whiteSpace=wrap;html=1;aspect=fixed;" vertex="1" parent="1">
            <mxGeometry x="150" y="60" width="80" height="80" as="geometry" />
          </mxCell>
        </UserObject>
        <UserObject label="Proceed to next step" link="data:page/id,-kxxWb5hBgzSHtg66tbn" id="oddELbydAmxCG5crCO8R-2">
          <mxCell style="ellipse;whiteSpace=wrap;html=1;aspect=fixed;" vertex="1" parent="1">
            <mxGeometry x="430" y="1080" width="80" height="80" as="geometry" />
          </mxCell>
        </UserObject>
        <mxCell id="un0Clo-k1E66jUq_6xTL-3" style="edgeStyle=orthogonalEdgeStyle;orthogonalLoop=1;jettySize=auto;html=1;" edge="1" parent="1">
          <mxGeometry relative="1" as="geometry">
            <mxPoint x="595" y="310" as="targetPoint" />
            <mxPoint x="595" y="270" as="sourcePoint" />
            <Array as="points">
              <mxPoint x="595" y="291" />
              <mxPoint x="596" y="291" />
              <mxPoint x="596" y="290" />
              <mxPoint x="595" y="290" />
            </Array>
          </mxGeometry>
        </mxCell>
        <UserObject label="&lt;font color=&quot;#ff3333&quot;&gt;Add a Audit Workpaper Checklist&lt;br&gt;&lt;/font&gt;" link="data:page/id,jOHWCXJ2YlCh6lT8egzE" id="un0Clo-k1E66jUq_6xTL-4">
          <mxCell style="rounded=0;whiteSpace=wrap;html=1;" vertex="1" parent="1">
            <mxGeometry x="510" y="310" width="180" height="60" as="geometry" />
          </mxCell>
        </UserObject>
        <mxCell id="un0Clo-k1E66jUq_6xTL-5" value="" style="edgeStyle=orthogonalEdgeStyle;orthogonalLoop=1;jettySize=auto;html=1;" edge="1" target="un0Clo-k1E66jUq_6xTL-7" parent="1">
          <mxGeometry relative="1" as="geometry">
            <mxPoint x="600" y="370" as="sourcePoint" />
          </mxGeometry>
        </mxCell>
        <mxCell id="un0Clo-k1E66jUq_6xTL-6" value="" style="edgeStyle=orthogonalEdgeStyle;orthogonalLoop=1;jettySize=auto;html=1;" edge="1" source="un0Clo-k1E66jUq_6xTL-7" target="un0Clo-k1E66jUq_6xTL-10" parent="1">
          <mxGeometry relative="1" as="geometry" />
        </mxCell>
        <mxCell id="un0Clo-k1E66jUq_6xTL-7" value="&lt;font color=&quot;#ff3333&quot;&gt;Upload File&lt;/font&gt;" style="rounded=0;whiteSpace=wrap;html=1;" vertex="1" parent="1">
          <mxGeometry x="510" y="450" width="180" height="60" as="geometry" />
        </mxCell>
        <mxCell id="un0Clo-k1E66jUq_6xTL-8" style="edgeStyle=orthogonalEdgeStyle;orthogonalLoop=1;jettySize=auto;html=1;" edge="1" source="un0Clo-k1E66jUq_6xTL-10" parent="1">
          <mxGeometry relative="1" as="geometry">
            <mxPoint x="550" y="760" as="targetPoint" />
          </mxGeometry>
        </mxCell>
        <mxCell id="un0Clo-k1E66jUq_6xTL-9" style="edgeStyle=orthogonalEdgeStyle;orthogonalLoop=1;jettySize=auto;html=1;" edge="1" source="un0Clo-k1E66jUq_6xTL-10" parent="1">
          <mxGeometry relative="1" as="geometry">
            <mxPoint x="750" y="730" as="targetPoint" />
          </mxGeometry>
        </mxCell>
        <mxCell id="un0Clo-k1E66jUq_6xTL-10" value="File Approval by Adminstration" style="rhombus;whiteSpace=wrap;html=1;rounded=0;" vertex="1" parent="1">
          <mxGeometry x="530" y="555" width="140" height="115" as="geometry" />
        </mxCell>
        <mxCell id="un0Clo-k1E66jUq_6xTL-19" style="edgeStyle=orthogonalEdgeStyle;rounded=0;orthogonalLoop=1;jettySize=auto;html=1;entryX=1;entryY=0.5;entryDx=0;entryDy=0;" edge="1" parent="1" source="un0Clo-k1E66jUq_6xTL-12" target="oddELbydAmxCG5crCO8R-2">
          <mxGeometry relative="1" as="geometry" />
        </mxCell>
        <mxCell id="un0Clo-k1E66jUq_6xTL-12" value="Result will be reflected against the Audit Workpaper Checklist" style="rounded=0;whiteSpace=wrap;html=1;" vertex="1" parent="1">
          <mxGeometry x="500" y="760" width="120" height="60" as="geometry" />
        </mxCell>
        <mxCell id="un0Clo-k1E66jUq_6xTL-15" value="Yes" style="text;html=1;align=center;verticalAlign=middle;resizable=0;points=[];autosize=1;strokeColor=none;fillColor=none;" vertex="1" parent="1">
          <mxGeometry x="550" y="688" width="40" height="30" as="geometry" />
        </mxCell>
        <mxCell id="un0Clo-k1E66jUq_6xTL-16" value="No" style="text;html=1;align=center;verticalAlign=middle;resizable=0;points=[];autosize=1;strokeColor=none;fillColor=none;" vertex="1" parent="1">
          <mxGeometry x="700" y="618" width="40" height="30" as="geometry" />
        </mxCell>
        <mxCell id="un0Clo-k1E66jUq_6xTL-17" value="" style="rounded=0;whiteSpace=wrap;html=1;" vertex="1" parent="1">
          <mxGeometry x="700" y="730" width="120" height="60" as="geometry" />
        </mxCell>
      </root>
    </mxGraphModel>
  </diagram>
  <diagram id="eZWeDsNO8A5lHf7pd0LQ" name="DSL&amp;RFI KPI">
    <mxGraphModel dx="1434" dy="738" grid="1" gridSize="10" guides="1" tooltips="1" connect="1" arrows="1" fold="1" page="1" pageScale="1" pageWidth="850" pageHeight="1100" math="0" shadow="0">
      <root>
        <mxCell id="0" />
        <mxCell id="1" parent="0" />
        <mxCell id="x3Q9dhN-nJFw-B75GOKY-7" style="edgeStyle=orthogonalEdgeStyle;rounded=0;orthogonalLoop=1;jettySize=auto;html=1;entryX=0;entryY=0.5;entryDx=0;entryDy=0;" parent="1" source="x3Q9dhN-nJFw-B75GOKY-1" target="x3Q9dhN-nJFw-B75GOKY-3" edge="1">
          <mxGeometry relative="1" as="geometry">
            <Array as="points">
              <mxPoint x="90" y="874" />
            </Array>
          </mxGeometry>
        </mxCell>
        <mxCell id="x3Q9dhN-nJFw-B75GOKY-1" value="DSL&amp;amp;RFI" style="rounded=0;whiteSpace=wrap;html=1;fillColor=#d5e8d4;strokeColor=#82b366;" parent="1" vertex="1">
          <mxGeometry x="30" y="500" width="180" height="60" as="geometry" />
        </mxCell>
        <mxCell id="x3Q9dhN-nJFw-B75GOKY-2" value="Total no of&amp;nbsp; RFI DOCS" style="rounded=0;whiteSpace=wrap;html=1;fillColor=#d5e8d4;strokeColor=#82b366;" parent="1" vertex="1">
          <mxGeometry x="110" y="630" width="110" height="60" as="geometry" />
        </mxCell>
        <mxCell id="x3Q9dhN-nJFw-B75GOKY-3" value="Approved RFI DOCS" style="rounded=0;whiteSpace=wrap;html=1;fillColor=#d5e8d4;strokeColor=#82b366;" parent="1" vertex="1">
          <mxGeometry x="110" y="844" width="110" height="60" as="geometry" />
        </mxCell>
        <mxCell id="x3Q9dhN-nJFw-B75GOKY-4" value="Required RFI DOCS" style="rounded=0;whiteSpace=wrap;html=1;fillColor=#d5e8d4;strokeColor=#82b366;" parent="1" vertex="1">
          <mxGeometry x="110" y="700" width="110" height="60" as="geometry" />
        </mxCell>
        <mxCell id="x3Q9dhN-nJFw-B75GOKY-5" value="Optional RFI DOCS" style="rounded=0;whiteSpace=wrap;html=1;fillColor=#d5e8d4;strokeColor=#82b366;" parent="1" vertex="1">
          <mxGeometry x="110" y="770" width="110" height="60" as="geometry" />
        </mxCell>
        <mxCell id="x3Q9dhN-nJFw-B75GOKY-11" value="" style="endArrow=classic;html=1;rounded=0;" parent="1" edge="1">
          <mxGeometry width="50" height="50" relative="1" as="geometry">
            <mxPoint x="90" y="660" as="sourcePoint" />
            <mxPoint x="110" y="659.5" as="targetPoint" />
            <Array as="points" />
          </mxGeometry>
        </mxCell>
        <mxCell id="x3Q9dhN-nJFw-B75GOKY-14" value="" style="endArrow=classic;html=1;rounded=0;" parent="1" edge="1">
          <mxGeometry width="50" height="50" relative="1" as="geometry">
            <mxPoint x="90" y="730" as="sourcePoint" />
            <mxPoint x="110" y="729.5" as="targetPoint" />
            <Array as="points" />
          </mxGeometry>
        </mxCell>
        <mxCell id="x3Q9dhN-nJFw-B75GOKY-16" value="" style="endArrow=classic;html=1;rounded=0;" parent="1" edge="1">
          <mxGeometry width="50" height="50" relative="1" as="geometry">
            <mxPoint x="90" y="795.25" as="sourcePoint" />
            <mxPoint x="110" y="794.75" as="targetPoint" />
            <Array as="points" />
          </mxGeometry>
        </mxCell>
      </root>
    </mxGraphModel>
  </diagram>
  <diagram id="-kxxWb5hBgzSHtg66tbn" name="Reporting">
    <mxGraphModel grid="1" page="1" gridSize="10" guides="1" tooltips="1" connect="1" arrows="1" fold="1" pageScale="1" pageWidth="3300" pageHeight="2339" math="0" shadow="0">
      <root>
        <mxCell id="0" />
        <mxCell id="1" parent="0" />
        <mxCell id="RZamtyhSf0imyaFfZcv2-1" style="edgeStyle=orthogonalEdgeStyle;rounded=0;orthogonalLoop=1;jettySize=auto;html=1;exitX=1;exitY=0.5;exitDx=0;exitDy=0;" parent="1" source="RZamtyhSf0imyaFfZcv2-2" target="RZamtyhSf0imyaFfZcv2-4" edge="1">
          <mxGeometry relative="1" as="geometry">
            <mxPoint x="460" y="-7390" as="targetPoint" />
          </mxGeometry>
        </mxCell>
        <mxCell id="RZamtyhSf0imyaFfZcv2-2" value="START" style="ellipse;whiteSpace=wrap;html=1;aspect=fixed;" parent="1" vertex="1">
          <mxGeometry x="300" y="-7430" width="80" height="80" as="geometry" />
        </mxCell>
        <mxCell id="iRsCuHwr765uOBg78be5-1" style="edgeStyle=orthogonalEdgeStyle;rounded=0;orthogonalLoop=1;jettySize=auto;html=1;exitX=1;exitY=0.5;exitDx=0;exitDy=0;entryX=0;entryY=0.5;entryDx=0;entryDy=0;" parent="1" source="RZamtyhSf0imyaFfZcv2-4" target="RZamtyhSf0imyaFfZcv2-6" edge="1">
          <mxGeometry relative="1" as="geometry" />
        </mxCell>
        <UserObject label="Pre Exit Meeting with&lt;br&gt;CIA MoM&lt;br&gt;&lt;div&gt;&lt;br&gt;&lt;/div&gt;" link="data:page/id,TT-eukzlT2c3g3Ehd_k4" id="RZamtyhSf0imyaFfZcv2-4">
          <mxCell style="rounded=0;whiteSpace=wrap;html=1;" parent="1" vertex="1">
            <mxGeometry x="460" y="-7420" width="140" height="60" as="geometry" />
          </mxCell>
        </UserObject>
        <mxCell id="iRsCuHwr765uOBg78be5-6" style="edgeStyle=orthogonalEdgeStyle;rounded=0;orthogonalLoop=1;jettySize=auto;html=1;exitX=1;exitY=0.5;exitDx=0;exitDy=0;entryX=0;entryY=0.5;entryDx=0;entryDy=0;" parent="1" source="RZamtyhSf0imyaFfZcv2-6" target="iRsCuHwr765uOBg78be5-2" edge="1">
          <mxGeometry relative="1" as="geometry" />
        </mxCell>
        <UserObject label="Assign Independent Manager in-charge" link="data:page/id,c0XGmwBcdCBRUjw15hJs" id="RZamtyhSf0imyaFfZcv2-6">
          <mxCell style="rounded=0;whiteSpace=wrap;html=1;" parent="1" vertex="1">
            <mxGeometry x="670" y="-7420" width="140" height="60" as="geometry" />
          </mxCell>
        </UserObject>
        <UserObject label="NEXT PAGE" link="data:page/id,fDOu2XCDbjO3SyMG1xVQ" id="RZamtyhSf0imyaFfZcv2-7">
          <mxCell style="ellipse;whiteSpace=wrap;html=1;aspect=fixed;" parent="1" vertex="1">
            <mxGeometry x="720" y="-7310" width="80" height="80" as="geometry" />
          </mxCell>
        </UserObject>
        <mxCell id="iRsCuHwr765uOBg78be5-7" style="edgeStyle=orthogonalEdgeStyle;rounded=0;orthogonalLoop=1;jettySize=auto;html=1;exitX=1;exitY=0.5;exitDx=0;exitDy=0;entryX=0;entryY=0.5;entryDx=0;entryDy=0;" parent="1" source="iRsCuHwr765uOBg78be5-2" target="iRsCuHwr765uOBg78be5-3" edge="1">
          <mxGeometry relative="1" as="geometry" />
        </mxCell>
        <UserObject label="Exit Meeting MoMs" link="data:page/id,sdMOebaKiwu9kHxDvi5m" id="iRsCuHwr765uOBg78be5-2">
          <mxCell style="rounded=0;whiteSpace=wrap;html=1;" parent="1" vertex="1">
            <mxGeometry x="860" y="-7420" width="140" height="60" as="geometry" />
          </mxCell>
        </UserObject>
        <mxCell id="iRsCuHwr765uOBg78be5-8" style="edgeStyle=orthogonalEdgeStyle;rounded=0;orthogonalLoop=1;jettySize=auto;html=1;exitX=0.5;exitY=1;exitDx=0;exitDy=0;entryX=0.5;entryY=0;entryDx=0;entryDy=0;" parent="1" source="iRsCuHwr765uOBg78be5-3" target="iRsCuHwr765uOBg78be5-4" edge="1">
          <mxGeometry relative="1" as="geometry" />
        </mxCell>
        <UserObject label="Audit Report QA Checklist" link="data:page/id,nO6HUVBcOzQf7XIppmUd" id="iRsCuHwr765uOBg78be5-3">
          <mxCell style="rounded=0;whiteSpace=wrap;html=1;" parent="1" vertex="1">
            <mxGeometry x="1040" y="-7420" width="140" height="60" as="geometry" />
          </mxCell>
        </UserObject>
        <mxCell id="iRsCuHwr765uOBg78be5-9" style="edgeStyle=orthogonalEdgeStyle;rounded=0;orthogonalLoop=1;jettySize=auto;html=1;exitX=0;exitY=0.5;exitDx=0;exitDy=0;entryX=1;entryY=0.5;entryDx=0;entryDy=0;" parent="1" source="iRsCuHwr765uOBg78be5-4" target="iRsCuHwr765uOBg78be5-5" edge="1">
          <mxGeometry relative="1" as="geometry" />
        </mxCell>
        <UserObject label="Final Draft IA Report" link="data:page/id,tmQ0x6Ci1NUib2guhXre" id="iRsCuHwr765uOBg78be5-4">
          <mxCell style="rounded=0;whiteSpace=wrap;html=1;" parent="1" vertex="1">
            <mxGeometry x="1040" y="-7300" width="140" height="60" as="geometry" />
          </mxCell>
        </UserObject>
        <mxCell id="iRsCuHwr765uOBg78be5-10" style="edgeStyle=orthogonalEdgeStyle;rounded=0;orthogonalLoop=1;jettySize=auto;html=1;exitX=0;exitY=0.5;exitDx=0;exitDy=0;" parent="1" source="iRsCuHwr765uOBg78be5-5" target="RZamtyhSf0imyaFfZcv2-7" edge="1">
          <mxGeometry relative="1" as="geometry" />
        </mxCell>
        <UserObject label="Audit Action Plan Workshop" link="data:page/id,6ldmr75Alx0e23TCBMOS" id="iRsCuHwr765uOBg78be5-5">
          <mxCell style="rounded=0;whiteSpace=wrap;html=1;" parent="1" vertex="1">
            <mxGeometry x="850" y="-7300" width="140" height="60" as="geometry" />
          </mxCell>
        </UserObject>
      </root>
    </mxGraphModel>
  </diagram>
  <diagram id="fDOu2XCDbjO3SyMG1xVQ" name="Closing and Post Audit">
    <mxGraphModel grid="1" page="1" gridSize="10" guides="1" tooltips="1" connect="1" arrows="1" fold="1" pageScale="1" pageWidth="3300" pageHeight="2339" math="0" shadow="0">
      <root>
        <mxCell id="0" />
        <mxCell id="1" parent="0" />
        <mxCell id="OOQPwEmwOaxNpBbzk1Sw-4" style="edgeStyle=orthogonalEdgeStyle;rounded=0;orthogonalLoop=1;jettySize=auto;html=1;entryX=0;entryY=0.5;entryDx=0;entryDy=0;" edge="1" parent="1" source="jkN52-qRp0LsKwnRPfco-1" target="OOQPwEmwOaxNpBbzk1Sw-1">
          <mxGeometry relative="1" as="geometry" />
        </mxCell>
        <mxCell id="jkN52-qRp0LsKwnRPfco-1" value="START" style="ellipse;whiteSpace=wrap;html=1;aspect=fixed;" parent="1" vertex="1">
          <mxGeometry x="330" y="-7740" width="80" height="80" as="geometry" />
        </mxCell>
        <UserObject label="NEXT PAGE" link="data:page/id,Q8PFEeoIksUd84Hvle8G" id="jkN52-qRp0LsKwnRPfco-2">
          <mxCell style="ellipse;whiteSpace=wrap;html=1;aspect=fixed;" parent="1" vertex="1">
            <mxGeometry x="1000" y="-7740" width="80" height="80" as="geometry" />
          </mxCell>
        </UserObject>
        <mxCell id="OOQPwEmwOaxNpBbzk1Sw-5" style="edgeStyle=orthogonalEdgeStyle;rounded=0;orthogonalLoop=1;jettySize=auto;html=1;exitX=1;exitY=0.5;exitDx=0;exitDy=0;entryX=0;entryY=0.5;entryDx=0;entryDy=0;" edge="1" parent="1" source="OOQPwEmwOaxNpBbzk1Sw-1" target="OOQPwEmwOaxNpBbzk1Sw-2">
          <mxGeometry relative="1" as="geometry" />
        </mxCell>
        <mxCell id="OOQPwEmwOaxNpBbzk1Sw-1" value="Final Audit Program" style="rounded=0;whiteSpace=wrap;html=1;" vertex="1" parent="1">
          <mxGeometry x="470" y="-7730" width="120" height="60" as="geometry" />
        </mxCell>
        <mxCell id="OOQPwEmwOaxNpBbzk1Sw-6" style="edgeStyle=orthogonalEdgeStyle;rounded=0;orthogonalLoop=1;jettySize=auto;html=1;exitX=1;exitY=0.5;exitDx=0;exitDy=0;entryX=0;entryY=0.5;entryDx=0;entryDy=0;" edge="1" parent="1" source="OOQPwEmwOaxNpBbzk1Sw-2" target="OOQPwEmwOaxNpBbzk1Sw-3">
          <mxGeometry relative="1" as="geometry" />
        </mxCell>
        <mxCell id="OOQPwEmwOaxNpBbzk1Sw-2" value="Audit Wrap-up QA&amp;nbsp; Checklist&amp;nbsp;" style="rounded=0;whiteSpace=wrap;html=1;" vertex="1" parent="1">
          <mxGeometry x="660" y="-7730" width="120" height="60" as="geometry" />
        </mxCell>
        <mxCell id="OOQPwEmwOaxNpBbzk1Sw-7" style="edgeStyle=orthogonalEdgeStyle;rounded=0;orthogonalLoop=1;jettySize=auto;html=1;exitX=1;exitY=0.5;exitDx=0;exitDy=0;entryX=0;entryY=0.5;entryDx=0;entryDy=0;" edge="1" parent="1" source="OOQPwEmwOaxNpBbzk1Sw-3" target="jkN52-qRp0LsKwnRPfco-2">
          <mxGeometry relative="1" as="geometry" />
        </mxCell>
        <mxCell id="OOQPwEmwOaxNpBbzk1Sw-3" value="Assignment Satisfaction Survey" style="rounded=0;whiteSpace=wrap;html=1;" vertex="1" parent="1">
          <mxGeometry x="820" y="-7730" width="120" height="60" as="geometry" />
        </mxCell>
      </root>
    </mxGraphModel>
  </diagram>
  <diagram id="Q8PFEeoIksUd84Hvle8G" name="Quality Assurance">
    <mxGraphModel dx="1434" dy="7789" grid="1" gridSize="10" guides="1" tooltips="1" connect="1" arrows="1" fold="1" page="1" pageScale="1" pageWidth="3300" pageHeight="2339" math="0" shadow="0">
      <root>
        <mxCell id="0" />
        <mxCell id="1" parent="0" />
        <mxCell id="kuNdv92F4nR_C1X-FsRo-1" style="edgeStyle=orthogonalEdgeStyle;rounded=0;orthogonalLoop=1;jettySize=auto;html=1;exitX=1;exitY=0.5;exitDx=0;exitDy=0;entryX=0;entryY=0.5;entryDx=0;entryDy=0;" edge="1" parent="1" source="kuNdv92F4nR_C1X-FsRo-2" target="kuNdv92F4nR_C1X-FsRo-3">
          <mxGeometry relative="1" as="geometry" />
        </mxCell>
        <mxCell id="kuNdv92F4nR_C1X-FsRo-2" value="START" style="ellipse;whiteSpace=wrap;html=1;aspect=fixed;" vertex="1" parent="1">
          <mxGeometry x="300" y="-5310" width="80" height="80" as="geometry" />
        </mxCell>
        <UserObject label="NEXT PAGE" link="data:page/id,SO7P523GmKmao4ISK2ce" id="kuNdv92F4nR_C1X-FsRo-3">
          <mxCell style="ellipse;whiteSpace=wrap;html=1;aspect=fixed;" vertex="1" parent="1">
            <mxGeometry x="690" y="-5310" width="80" height="80" as="geometry" />
          </mxCell>
        </UserObject>
      </root>
    </mxGraphModel>
  </diagram>
  <diagram id="2k5VoAWTn4ZmVF3ulbP7" name="Presentation &amp; Kickoff Documents">
    <mxGraphModel grid="1" page="1" gridSize="10" guides="1" tooltips="1" connect="1" arrows="1" fold="1" pageScale="1" pageWidth="850" pageHeight="1100" math="0" shadow="0">
      <root>
        <mxCell id="0" />
        <mxCell id="1" parent="0" />
        <mxCell id="v0YOb2d3An-lmHr9gBRL-2" value="Presentation &amp;amp; Kickoff" style="rounded=0;whiteSpace=wrap;html=1;fillColor=#dae8fc;strokeColor=#6c8ebf;" parent="1" vertex="1">
          <mxGeometry x="260" y="-820" width="180" height="60" as="geometry" />
        </mxCell>
        <mxCell id="v0YOb2d3An-lmHr9gBRL-3" value="Presentation &amp;amp; Kickoff Approved RAID Log" style="rounded=0;whiteSpace=wrap;html=1;fillColor=#dae8fc;strokeColor=#6c8ebf;" parent="1" vertex="1">
          <mxGeometry x="340" y="-710" width="110" height="60" as="geometry" />
        </mxCell>
        <mxCell id="v0YOb2d3An-lmHr9gBRL-5" value="Presentation &amp;amp; Kickoff Rejected&lt;div&gt;RAID Log&lt;/div&gt;" style="rounded=0;whiteSpace=wrap;html=1;fillColor=#dae8fc;strokeColor=#6c8ebf;" parent="1" vertex="1">
          <mxGeometry x="340" y="-640" width="110" height="60" as="geometry" />
        </mxCell>
        <mxCell id="v0YOb2d3An-lmHr9gBRL-7" value="" style="endArrow=classic;html=1;rounded=0;" parent="1" edge="1">
          <mxGeometry width="50" height="50" relative="1" as="geometry">
            <mxPoint x="300" y="-680" as="sourcePoint" />
            <mxPoint x="340" y="-680.5" as="targetPoint" />
            <Array as="points" />
          </mxGeometry>
        </mxCell>
        <mxCell id="v0YOb2d3An-lmHr9gBRL-8" value="" style="endArrow=classic;html=1;rounded=0;" parent="1" edge="1">
          <mxGeometry width="50" height="50" relative="1" as="geometry">
            <mxPoint x="300" y="-610" as="sourcePoint" />
            <mxPoint x="340" y="-610.5" as="targetPoint" />
            <Array as="points" />
          </mxGeometry>
        </mxCell>
        <mxCell id="JYprY0Ouyl-hknTtM0fl-3" value="" style="endArrow=none;html=1;rounded=0;" parent="1" edge="1">
          <mxGeometry width="50" height="50" relative="1" as="geometry">
            <mxPoint x="300" y="-610" as="sourcePoint" />
            <mxPoint x="300" y="-760" as="targetPoint" />
          </mxGeometry>
        </mxCell>
      </root>
    </mxGraphModel>
  </diagram>
  <diagram id="vUzz8_i2PkU_AjsXSF4H" name="Process Understanding KPI">
    <mxGraphModel grid="1" page="1" gridSize="10" guides="1" tooltips="1" connect="1" arrows="1" fold="1" pageScale="1" pageWidth="850" pageHeight="1100" math="0" shadow="0">
      <root>
        <mxCell id="0" />
        <mxCell id="1" parent="0" />
        <mxCell id="bc3CFPFWTU5C3TY1VgYv-2" value="Process Understanding" style="rounded=0;whiteSpace=wrap;html=1;fillColor=#fff2cc;strokeColor=#d6b656;" parent="1" vertex="1">
          <mxGeometry x="270" y="-780" width="180" height="60" as="geometry" />
        </mxCell>
        <mxCell id="bc3CFPFWTU5C3TY1VgYv-3" value="Total Process" style="rounded=0;whiteSpace=wrap;html=1;fillColor=#fff2cc;strokeColor=#d6b656;" parent="1" vertex="1">
          <mxGeometry x="350" y="-670" width="110" height="60" as="geometry" />
        </mxCell>
        <mxCell id="bc3CFPFWTU5C3TY1VgYv-4" value="Total Approved Process" style="rounded=0;whiteSpace=wrap;html=1;fillColor=#fff2cc;strokeColor=#d6b656;" parent="1" vertex="1">
          <mxGeometry x="350" y="-600" width="110" height="60" as="geometry" />
        </mxCell>
        <mxCell id="bc3CFPFWTU5C3TY1VgYv-5" value="Total Rejected Process" style="rounded=0;whiteSpace=wrap;html=1;fillColor=#fff2cc;strokeColor=#d6b656;" parent="1" vertex="1">
          <mxGeometry x="350" y="-530" width="110" height="60" as="geometry" />
        </mxCell>
        <mxCell id="bc3CFPFWTU5C3TY1VgYv-6" value="" style="endArrow=classic;html=1;rounded=0;" parent="1" edge="1">
          <mxGeometry width="50" height="50" relative="1" as="geometry">
            <mxPoint x="310" y="-640" as="sourcePoint" />
            <mxPoint x="350" y="-640.5" as="targetPoint" />
            <Array as="points" />
          </mxGeometry>
        </mxCell>
        <mxCell id="bc3CFPFWTU5C3TY1VgYv-7" value="" style="endArrow=classic;html=1;rounded=0;" parent="1" edge="1">
          <mxGeometry width="50" height="50" relative="1" as="geometry">
            <mxPoint x="310" y="-570" as="sourcePoint" />
            <mxPoint x="350" y="-570.5" as="targetPoint" />
            <Array as="points" />
          </mxGeometry>
        </mxCell>
        <mxCell id="bc3CFPFWTU5C3TY1VgYv-9" value="" style="endArrow=none;html=1;rounded=0;" parent="1" edge="1">
          <mxGeometry width="50" height="50" relative="1" as="geometry">
            <mxPoint x="310" y="-500" as="sourcePoint" />
            <mxPoint x="310" y="-720" as="targetPoint" />
          </mxGeometry>
        </mxCell>
        <mxCell id="bc3CFPFWTU5C3TY1VgYv-10" value="" style="endArrow=classic;html=1;rounded=0;" parent="1" edge="1">
          <mxGeometry width="50" height="50" relative="1" as="geometry">
            <mxPoint x="310" y="-500" as="sourcePoint" />
            <mxPoint x="350" y="-500.5" as="targetPoint" />
            <Array as="points">
              <mxPoint x="320" y="-500" />
            </Array>
          </mxGeometry>
        </mxCell>
      </root>
    </mxGraphModel>
  </diagram>
  <diagram id="bodM2T3KiP5Xakcll3Hf" name="Planning Meeting MoM  KPI">
    <mxGraphModel grid="1" page="1" gridSize="10" guides="1" tooltips="1" connect="1" arrows="1" fold="1" pageScale="1" pageWidth="850" pageHeight="1100" math="0" shadow="0">
      <root>
        <mxCell id="0" />
        <mxCell id="1" parent="0" />
        <mxCell id="TMzh_a2ZxO-5P_ZfpUZb-1" value="Planning Meeting MOM" style="rounded=0;whiteSpace=wrap;html=1;fillColor=#f8cecc;strokeColor=#b85450;" parent="1" vertex="1">
          <mxGeometry x="200" y="-760" width="180" height="60" as="geometry" />
        </mxCell>
        <mxCell id="TMzh_a2ZxO-5P_ZfpUZb-2" value="Planning Meeting Total RAID Log" style="rounded=0;whiteSpace=wrap;html=1;fillColor=#f8cecc;strokeColor=#b85450;" parent="1" vertex="1">
          <mxGeometry x="280" y="-650" width="110" height="60" as="geometry" />
        </mxCell>
        <mxCell id="TMzh_a2ZxO-5P_ZfpUZb-3" value="Planning Meetting Approved RAID Log" style="rounded=0;whiteSpace=wrap;html=1;fillColor=#f8cecc;strokeColor=#b85450;" parent="1" vertex="1">
          <mxGeometry x="280" y="-580" width="110" height="60" as="geometry" />
        </mxCell>
        <mxCell id="TMzh_a2ZxO-5P_ZfpUZb-4" value="Planning Meeting Rejected RAID Log" style="rounded=0;whiteSpace=wrap;html=1;fillColor=#f8cecc;strokeColor=#b85450;" parent="1" vertex="1">
          <mxGeometry x="280" y="-510" width="110" height="60" as="geometry" />
        </mxCell>
        <mxCell id="TMzh_a2ZxO-5P_ZfpUZb-5" value="" style="endArrow=classic;html=1;rounded=0;" parent="1" edge="1">
          <mxGeometry width="50" height="50" relative="1" as="geometry">
            <mxPoint x="240" y="-620" as="sourcePoint" />
            <mxPoint x="280" y="-620.5" as="targetPoint" />
            <Array as="points" />
          </mxGeometry>
        </mxCell>
        <mxCell id="TMzh_a2ZxO-5P_ZfpUZb-6" value="" style="endArrow=classic;html=1;rounded=0;" parent="1" edge="1">
          <mxGeometry width="50" height="50" relative="1" as="geometry">
            <mxPoint x="240" y="-550" as="sourcePoint" />
            <mxPoint x="280" y="-550.5" as="targetPoint" />
            <Array as="points" />
          </mxGeometry>
        </mxCell>
        <mxCell id="TMzh_a2ZxO-5P_ZfpUZb-7" value="" style="endArrow=none;html=1;rounded=0;" parent="1" edge="1">
          <mxGeometry width="50" height="50" relative="1" as="geometry">
            <mxPoint x="240" y="-480" as="sourcePoint" />
            <mxPoint x="240" y="-700" as="targetPoint" />
          </mxGeometry>
        </mxCell>
        <mxCell id="TMzh_a2ZxO-5P_ZfpUZb-8" value="" style="endArrow=classic;html=1;rounded=0;" parent="1" edge="1">
          <mxGeometry width="50" height="50" relative="1" as="geometry">
            <mxPoint x="240" y="-480" as="sourcePoint" />
            <mxPoint x="280" y="-480.5" as="targetPoint" />
            <Array as="points">
              <mxPoint x="250" y="-480" />
            </Array>
          </mxGeometry>
        </mxCell>
      </root>
    </mxGraphModel>
  </diagram>
  <diagram id="TT-eukzlT2c3g3Ehd_k4" name="Pre Exit Meeting with CIA MoM">
    <mxGraphModel grid="1" page="1" gridSize="10" guides="1" tooltips="1" connect="1" arrows="1" fold="1" pageScale="1" pageWidth="3300" pageHeight="2339" math="0" shadow="0">
      <root>
        <mxCell id="0" />
        <mxCell id="1" parent="0" />
        <mxCell id="s8JnkfUQCpYntpGnvOon-3" style="edgeStyle=orthogonalEdgeStyle;rounded=0;orthogonalLoop=1;jettySize=auto;html=1;" edge="1" parent="1" source="s8JnkfUQCpYntpGnvOon-2" target="s8JnkfUQCpYntpGnvOon-4">
          <mxGeometry relative="1" as="geometry">
            <mxPoint x="-1510" y="-13790" as="targetPoint" />
          </mxGeometry>
        </mxCell>
        <UserObject label="Start" link="data:page/id,-kxxWb5hBgzSHtg66tbn" id="s8JnkfUQCpYntpGnvOon-2">
          <mxCell style="ellipse;whiteSpace=wrap;html=1;aspect=fixed;fillColor=#d5e8d4;strokeColor=#82b366;" vertex="1" parent="1">
            <mxGeometry x="-1660" y="-13830" width="80" height="80" as="geometry" />
          </mxCell>
        </UserObject>
        <mxCell id="s8JnkfUQCpYntpGnvOon-6" style="edgeStyle=orthogonalEdgeStyle;rounded=0;orthogonalLoop=1;jettySize=auto;html=1;exitX=0.5;exitY=1;exitDx=0;exitDy=0;entryX=0.5;entryY=0;entryDx=0;entryDy=0;" edge="1" parent="1" source="s8JnkfUQCpYntpGnvOon-4" target="s8JnkfUQCpYntpGnvOon-5">
          <mxGeometry relative="1" as="geometry" />
        </mxCell>
        <mxCell id="s8JnkfUQCpYntpGnvOon-17" style="edgeStyle=orthogonalEdgeStyle;rounded=0;orthogonalLoop=1;jettySize=auto;html=1;entryX=0;entryY=0.5;entryDx=0;entryDy=0;" edge="1" parent="1" source="s8JnkfUQCpYntpGnvOon-4" target="s8JnkfUQCpYntpGnvOon-10">
          <mxGeometry relative="1" as="geometry" />
        </mxCell>
        <mxCell id="s8JnkfUQCpYntpGnvOon-4" value="Pre-Exit Meeting With CIA MoM File Upload" style="rounded=0;whiteSpace=wrap;html=1;" vertex="1" parent="1">
          <mxGeometry x="-1520" y="-13820" width="150" height="60" as="geometry" />
        </mxCell>
        <mxCell id="s8JnkfUQCpYntpGnvOon-7" style="edgeStyle=orthogonalEdgeStyle;rounded=0;orthogonalLoop=1;jettySize=auto;html=1;" edge="1" parent="1" source="s8JnkfUQCpYntpGnvOon-5">
          <mxGeometry relative="1" as="geometry">
            <mxPoint x="-1445" y="-13620" as="targetPoint" />
          </mxGeometry>
        </mxCell>
        <mxCell id="s8JnkfUQCpYntpGnvOon-5" value="View Uploaded Files" style="rounded=0;whiteSpace=wrap;html=1;" vertex="1" parent="1">
          <mxGeometry x="-1520" y="-13730" width="150" height="80" as="geometry" />
        </mxCell>
        <mxCell id="s8JnkfUQCpYntpGnvOon-9" value="Save" style="rounded=1;whiteSpace=wrap;html=1;fillColor=#0050ef;fontColor=#ffffff;strokeColor=#001DBC;" vertex="1" parent="1">
          <mxGeometry x="-1490" y="-13620" width="90" height="40" as="geometry" />
        </mxCell>
        <mxCell id="s8JnkfUQCpYntpGnvOon-11" style="edgeStyle=orthogonalEdgeStyle;rounded=0;orthogonalLoop=1;jettySize=auto;html=1;exitX=0.5;exitY=1;exitDx=0;exitDy=0;" edge="1" parent="1" source="s8JnkfUQCpYntpGnvOon-10">
          <mxGeometry relative="1" as="geometry">
            <mxPoint x="-1245" y="-13730" as="targetPoint" />
          </mxGeometry>
        </mxCell>
        <mxCell id="s8JnkfUQCpYntpGnvOon-18" style="edgeStyle=orthogonalEdgeStyle;rounded=0;orthogonalLoop=1;jettySize=auto;html=1;exitX=1;exitY=0.5;exitDx=0;exitDy=0;" edge="1" parent="1" source="s8JnkfUQCpYntpGnvOon-10">
          <mxGeometry relative="1" as="geometry">
            <mxPoint x="-1120" y="-13790" as="targetPoint" />
          </mxGeometry>
        </mxCell>
        <mxCell id="s8JnkfUQCpYntpGnvOon-10" value="Pre-Exit Meeting With CIA MoM With MoM Users" style="rounded=0;whiteSpace=wrap;html=1;" vertex="1" parent="1">
          <mxGeometry x="-1320" y="-13820" width="150" height="60" as="geometry" />
        </mxCell>
        <mxCell id="s8JnkfUQCpYntpGnvOon-12" value="View Users" style="rounded=0;whiteSpace=wrap;html=1;" vertex="1" parent="1">
          <mxGeometry x="-1320" y="-13730" width="150" height="80" as="geometry" />
        </mxCell>
        <mxCell id="s8JnkfUQCpYntpGnvOon-15" style="edgeStyle=orthogonalEdgeStyle;rounded=0;orthogonalLoop=1;jettySize=auto;html=1;" edge="1" parent="1">
          <mxGeometry relative="1" as="geometry">
            <mxPoint x="-1245" y="-13620" as="targetPoint" />
            <mxPoint x="-1245" y="-13650" as="sourcePoint" />
          </mxGeometry>
        </mxCell>
        <mxCell id="s8JnkfUQCpYntpGnvOon-16" value="Save" style="rounded=1;whiteSpace=wrap;html=1;fillColor=#0050ef;fontColor=#ffffff;strokeColor=#001DBC;" vertex="1" parent="1">
          <mxGeometry x="-1290" y="-13620" width="90" height="40" as="geometry" />
        </mxCell>
        <mxCell id="s8JnkfUQCpYntpGnvOon-25" style="edgeStyle=orthogonalEdgeStyle;rounded=0;orthogonalLoop=1;jettySize=auto;html=1;exitX=1;exitY=0.5;exitDx=0;exitDy=0;" edge="1" parent="1" source="s8JnkfUQCpYntpGnvOon-19">
          <mxGeometry relative="1" as="geometry">
            <mxPoint x="-920" y="-13790" as="targetPoint" />
          </mxGeometry>
        </mxCell>
        <mxCell id="s8JnkfUQCpYntpGnvOon-19" value="Pre-Exit Meeting With CIA MoM With MoM Agenda" style="rounded=0;whiteSpace=wrap;html=1;" vertex="1" parent="1">
          <mxGeometry x="-1120" y="-13820" width="150" height="60" as="geometry" />
        </mxCell>
        <mxCell id="s8JnkfUQCpYntpGnvOon-21" style="edgeStyle=orthogonalEdgeStyle;rounded=0;orthogonalLoop=1;jettySize=auto;html=1;exitX=0.5;exitY=1;exitDx=0;exitDy=0;" edge="1" parent="1">
          <mxGeometry relative="1" as="geometry">
            <mxPoint x="-1045" y="-13730" as="targetPoint" />
            <mxPoint x="-1045" y="-13760" as="sourcePoint" />
          </mxGeometry>
        </mxCell>
        <mxCell id="s8JnkfUQCpYntpGnvOon-22" value="View MoM Agenda" style="rounded=0;whiteSpace=wrap;html=1;" vertex="1" parent="1">
          <mxGeometry x="-1120" y="-13730" width="150" height="80" as="geometry" />
        </mxCell>
        <mxCell id="s8JnkfUQCpYntpGnvOon-23" style="edgeStyle=orthogonalEdgeStyle;rounded=0;orthogonalLoop=1;jettySize=auto;html=1;" edge="1" parent="1">
          <mxGeometry relative="1" as="geometry">
            <mxPoint x="-1045" y="-13620" as="targetPoint" />
            <mxPoint x="-1045" y="-13650" as="sourcePoint" />
          </mxGeometry>
        </mxCell>
        <mxCell id="s8JnkfUQCpYntpGnvOon-24" value="Save" style="rounded=1;whiteSpace=wrap;html=1;fillColor=#0050ef;fontColor=#ffffff;strokeColor=#001DBC;" vertex="1" parent="1">
          <mxGeometry x="-1090" y="-13620" width="90" height="40" as="geometry" />
        </mxCell>
        <mxCell id="s8JnkfUQCpYntpGnvOon-31" style="edgeStyle=orthogonalEdgeStyle;rounded=0;orthogonalLoop=1;jettySize=auto;html=1;" edge="1" parent="1" source="s8JnkfUQCpYntpGnvOon-26">
          <mxGeometry relative="1" as="geometry">
            <mxPoint x="-730" y="-13790" as="targetPoint" />
          </mxGeometry>
        </mxCell>
        <mxCell id="s8JnkfUQCpYntpGnvOon-26" value="Pre-Exit Meeting With CIA MoM RAID Logs" style="rounded=0;whiteSpace=wrap;html=1;" vertex="1" parent="1">
          <mxGeometry x="-920" y="-13820" width="150" height="60" as="geometry" />
        </mxCell>
        <mxCell id="s8JnkfUQCpYntpGnvOon-27" style="edgeStyle=orthogonalEdgeStyle;rounded=0;orthogonalLoop=1;jettySize=auto;html=1;exitX=0.5;exitY=1;exitDx=0;exitDy=0;" edge="1" parent="1">
          <mxGeometry relative="1" as="geometry">
            <mxPoint x="-845" y="-13730" as="targetPoint" />
            <mxPoint x="-845" y="-13760" as="sourcePoint" />
          </mxGeometry>
        </mxCell>
        <mxCell id="s8JnkfUQCpYntpGnvOon-28" value="View RAID Logs" style="rounded=0;whiteSpace=wrap;html=1;" vertex="1" parent="1">
          <mxGeometry x="-920" y="-13730" width="150" height="80" as="geometry" />
        </mxCell>
        <mxCell id="s8JnkfUQCpYntpGnvOon-29" style="edgeStyle=orthogonalEdgeStyle;rounded=0;orthogonalLoop=1;jettySize=auto;html=1;" edge="1" parent="1">
          <mxGeometry relative="1" as="geometry">
            <mxPoint x="-845" y="-13620" as="targetPoint" />
            <mxPoint x="-845" y="-13650" as="sourcePoint" />
          </mxGeometry>
        </mxCell>
        <mxCell id="s8JnkfUQCpYntpGnvOon-30" value="Save" style="rounded=1;whiteSpace=wrap;html=1;fillColor=#0050ef;fontColor=#ffffff;strokeColor=#001DBC;" vertex="1" parent="1">
          <mxGeometry x="-890" y="-13620" width="90" height="40" as="geometry" />
        </mxCell>
        <mxCell id="s8JnkfUQCpYntpGnvOon-32" value="NEXT TAB" style="ellipse;whiteSpace=wrap;html=1;aspect=fixed;fillColor=#f8cecc;strokeColor=#b85450;" vertex="1" parent="1">
          <mxGeometry x="-730" y="-13830" width="80" height="80" as="geometry" />
        </mxCell>
      </root>
    </mxGraphModel>
  </diagram>
  <diagram id="V9kYr8GFRwZ4kbUhQ20Z" name="Test Of Control">
    <mxGraphModel dx="1434" dy="738" grid="1" gridSize="10" guides="1" tooltips="1" connect="1" arrows="1" fold="1" page="1" pageScale="1" pageWidth="850" pageHeight="1100" math="0" shadow="0">
      <root>
        <mxCell id="0" />
        <mxCell id="1" parent="0" />
        <mxCell id="EC_mLrZJkH1FI87uH7Qg-1" style="edgeStyle=orthogonalEdgeStyle;orthogonalLoop=1;jettySize=auto;html=1;" edge="1" parent="1" source="EC_mLrZJkH1FI87uH7Qg-2">
          <mxGeometry relative="1" as="geometry">
            <mxPoint x="325" y="280" as="targetPoint" />
          </mxGeometry>
        </mxCell>
        <mxCell id="EC_mLrZJkH1FI87uH7Qg-2" value="&lt;font color=&quot;#ff3333&quot;&gt;&lt;b&gt;Select Controls&lt;br&gt;&lt;/b&gt;&lt;/font&gt;Against Pre-Selected Department" style="rounded=0;whiteSpace=wrap;html=1;" vertex="1" parent="1">
          <mxGeometry x="380" y="250" width="180" height="60" as="geometry" />
        </mxCell>
        <mxCell id="EC_mLrZJkH1FI87uH7Qg-3" style="edgeStyle=orthogonalEdgeStyle;orthogonalLoop=1;jettySize=auto;html=1;" edge="1" parent="1" source="EC_mLrZJkH1FI87uH7Qg-4">
          <mxGeometry relative="1" as="geometry">
            <mxPoint x="325" y="350" as="targetPoint" />
          </mxGeometry>
        </mxCell>
        <mxCell id="EC_mLrZJkH1FI87uH7Qg-4" value="&lt;font color=&quot;#ff3333&quot;&gt;&lt;b&gt;Select Process&lt;br&gt;&lt;/b&gt;&lt;/font&gt;Against Pre-Selected Department" style="rounded=0;whiteSpace=wrap;html=1;" vertex="1" parent="1">
          <mxGeometry x="380" y="320" width="180" height="60" as="geometry" />
        </mxCell>
        <mxCell id="EC_mLrZJkH1FI87uH7Qg-5" style="edgeStyle=orthogonalEdgeStyle;orthogonalLoop=1;jettySize=auto;html=1;entryX=0.5;entryY=0;entryDx=0;entryDy=0;" edge="1" parent="1" source="EC_mLrZJkH1FI87uH7Qg-6" target="EC_mLrZJkH1FI87uH7Qg-7">
          <mxGeometry relative="1" as="geometry" />
        </mxCell>
        <mxCell id="EC_mLrZJkH1FI87uH7Qg-6" value="&lt;font color=&quot;#ff3333&quot;&gt;&lt;b&gt;Add Tuple into the Field Work Table&lt;/b&gt;&lt;/font&gt;" style="rounded=0;whiteSpace=wrap;html=1;fillColor=#f9f7ed;strokeColor=#36393d;" vertex="1" parent="1">
          <mxGeometry x="230" y="80" width="180" height="60" as="geometry" />
        </mxCell>
        <mxCell id="EC_mLrZJkH1FI87uH7Qg-7" value="&lt;font color=&quot;#808080&quot;&gt;Fields/Attributes of a Single Tuple&lt;/font&gt;" style="ellipse;whiteSpace=wrap;html=1;fillColor=#f5f5f5;fontColor=#333333;strokeColor=#666666;" vertex="1" parent="1">
          <mxGeometry x="250" y="170" width="140" height="60" as="geometry" />
        </mxCell>
        <mxCell id="EC_mLrZJkH1FI87uH7Qg-8" value="" style="endArrow=none;html=1;" edge="1" parent="1">
          <mxGeometry width="50" height="50" relative="1" as="geometry">
            <mxPoint x="325" y="980" as="sourcePoint" />
            <mxPoint x="325" y="230" as="targetPoint" />
          </mxGeometry>
        </mxCell>
        <mxCell id="EC_mLrZJkH1FI87uH7Qg-9" style="edgeStyle=orthogonalEdgeStyle;orthogonalLoop=1;jettySize=auto;html=1;" edge="1" parent="1" source="EC_mLrZJkH1FI87uH7Qg-10">
          <mxGeometry relative="1" as="geometry">
            <mxPoint x="325" y="420" as="targetPoint" />
          </mxGeometry>
        </mxCell>
        <mxCell id="EC_mLrZJkH1FI87uH7Qg-10" value="&lt;font color=&quot;#ff3333&quot;&gt;&lt;b&gt;Test Name (as per RCM)&lt;/b&gt;&lt;/font&gt;&lt;div&gt;Enter Test Name&lt;/div&gt;" style="rounded=0;whiteSpace=wrap;html=1;" vertex="1" parent="1">
          <mxGeometry x="380" y="390" width="180" height="60" as="geometry" />
        </mxCell>
        <mxCell id="EC_mLrZJkH1FI87uH7Qg-11" style="edgeStyle=orthogonalEdgeStyle;orthogonalLoop=1;jettySize=auto;html=1;" edge="1" parent="1" source="EC_mLrZJkH1FI87uH7Qg-12">
          <mxGeometry relative="1" as="geometry">
            <mxPoint x="325" y="490" as="targetPoint" />
          </mxGeometry>
        </mxCell>
        <mxCell id="EC_mLrZJkH1FI87uH7Qg-12" value="&lt;font color=&quot;#ff3333&quot;&gt;&lt;b&gt;Test Description&lt;/b&gt;&lt;/font&gt;&lt;div&gt;Add Description for the Test&lt;/div&gt;" style="rounded=0;whiteSpace=wrap;html=1;" vertex="1" parent="1">
          <mxGeometry x="380" y="460" width="180" height="60" as="geometry" />
        </mxCell>
        <mxCell id="EC_mLrZJkH1FI87uH7Qg-13" style="edgeStyle=orthogonalEdgeStyle;orthogonalLoop=1;jettySize=auto;html=1;" edge="1" parent="1" source="EC_mLrZJkH1FI87uH7Qg-14">
          <mxGeometry relative="1" as="geometry">
            <mxPoint x="325" y="560" as="targetPoint" />
          </mxGeometry>
        </mxCell>
        <mxCell id="EC_mLrZJkH1FI87uH7Qg-14" value="&lt;div&gt;&lt;font color=&quot;#ff3333&quot;&gt;&lt;b&gt;Population&lt;/b&gt;&lt;/font&gt;&lt;/div&gt;&lt;div&gt;Select a Option from the dropdown&lt;/div&gt;" style="rounded=0;whiteSpace=wrap;html=1;" vertex="1" parent="1">
          <mxGeometry x="380" y="530" width="180" height="60" as="geometry" />
        </mxCell>
        <mxCell id="EC_mLrZJkH1FI87uH7Qg-15" style="edgeStyle=orthogonalEdgeStyle;orthogonalLoop=1;jettySize=auto;html=1;" edge="1" parent="1" source="EC_mLrZJkH1FI87uH7Qg-16">
          <mxGeometry relative="1" as="geometry">
            <mxPoint x="325" y="630" as="targetPoint" />
          </mxGeometry>
        </mxCell>
        <mxCell id="EC_mLrZJkH1FI87uH7Qg-16" value="&lt;div&gt;&lt;font color=&quot;#ff3333&quot;&gt;&lt;b&gt;Sample Size&lt;/b&gt;&lt;/font&gt;&lt;/div&gt;&lt;div&gt;Enter a Sample Size for the Control Testing&lt;/div&gt;" style="rounded=0;whiteSpace=wrap;html=1;" vertex="1" parent="1">
          <mxGeometry x="380" y="600" width="180" height="60" as="geometry" />
        </mxCell>
        <mxCell id="EC_mLrZJkH1FI87uH7Qg-17" style="edgeStyle=orthogonalEdgeStyle;orthogonalLoop=1;jettySize=auto;html=1;" edge="1" parent="1" source="EC_mLrZJkH1FI87uH7Qg-18">
          <mxGeometry relative="1" as="geometry">
            <mxPoint x="325" y="700" as="targetPoint" />
          </mxGeometry>
        </mxCell>
        <mxCell id="EC_mLrZJkH1FI87uH7Qg-18" value="&lt;div&gt;&lt;span style=&quot;background-color: initial;&quot;&gt;&lt;font color=&quot;#ff3333&quot;&gt;&lt;b&gt;Test Result&lt;/b&gt;&lt;/font&gt;&lt;/span&gt;&lt;/div&gt;&lt;div&gt;Test Result will be shown automatically&lt;/div&gt;" style="rounded=0;whiteSpace=wrap;html=1;" vertex="1" parent="1">
          <mxGeometry x="380" y="670" width="180" height="60" as="geometry" />
        </mxCell>
        <mxCell id="EC_mLrZJkH1FI87uH7Qg-19" style="edgeStyle=orthogonalEdgeStyle;orthogonalLoop=1;jettySize=auto;html=1;" edge="1" parent="1" source="EC_mLrZJkH1FI87uH7Qg-20">
          <mxGeometry relative="1" as="geometry">
            <mxPoint x="325" y="780" as="targetPoint" />
          </mxGeometry>
        </mxCell>
        <mxCell id="EC_mLrZJkH1FI87uH7Qg-20" value="&lt;div&gt;&lt;span style=&quot;background-color: initial;&quot;&gt;&lt;font color=&quot;#ff3333&quot;&gt;&lt;b&gt;Test Conclusion&lt;/b&gt;&lt;/font&gt;&lt;/span&gt;&lt;/div&gt;&lt;div&gt;Test Conclusion will be shown here after checking required parameters, It&#39;s value can be either PASS or FAIL&lt;/div&gt;" style="rounded=0;whiteSpace=wrap;html=1;" vertex="1" parent="1">
          <mxGeometry x="380" y="740" width="180" height="80" as="geometry" />
        </mxCell>
        <mxCell id="EC_mLrZJkH1FI87uH7Qg-21" style="edgeStyle=orthogonalEdgeStyle;orthogonalLoop=1;jettySize=auto;html=1;" edge="1" parent="1" source="EC_mLrZJkH1FI87uH7Qg-22">
          <mxGeometry relative="1" as="geometry">
            <mxPoint x="325" y="870" as="targetPoint" />
          </mxGeometry>
        </mxCell>
        <mxCell id="EC_mLrZJkH1FI87uH7Qg-22" value="&lt;div&gt;&lt;span style=&quot;background-color: initial;&quot;&gt;&lt;font color=&quot;#ff3333&quot;&gt;&lt;b&gt;Upload Control Evidence&lt;/b&gt;&lt;/font&gt;&lt;/span&gt;&lt;/div&gt;&lt;div&gt;Upload a file as a evidence and a description&lt;/div&gt;" style="rounded=0;whiteSpace=wrap;html=1;" vertex="1" parent="1">
          <mxGeometry x="380" y="830" width="180" height="80" as="geometry" />
        </mxCell>
        <mxCell id="EC_mLrZJkH1FI87uH7Qg-23" style="edgeStyle=orthogonalEdgeStyle;orthogonalLoop=1;jettySize=auto;html=1;" edge="1" parent="1" source="EC_mLrZJkH1FI87uH7Qg-24">
          <mxGeometry relative="1" as="geometry">
            <mxPoint x="325" y="960" as="targetPoint" />
          </mxGeometry>
        </mxCell>
        <mxCell id="EC_mLrZJkH1FI87uH7Qg-24" value="&lt;div&gt;&lt;span style=&quot;background-color: initial;&quot;&gt;&lt;font color=&quot;#ff3333&quot;&gt;&lt;b&gt;Finalize Uploaded Files&lt;/b&gt;&lt;/font&gt;&lt;/span&gt;&lt;/div&gt;&lt;div&gt;Once the files gets approved result will be shown against the tuple added&lt;/div&gt;" style="rounded=0;whiteSpace=wrap;html=1;" vertex="1" parent="1">
          <mxGeometry x="380" y="920" width="180" height="80" as="geometry" />
        </mxCell>
      </root>
    </mxGraphModel>
  </diagram>
  <diagram id="c0XGmwBcdCBRUjw15hJs" name="Assign Independent Manager in-charge">
    <mxGraphModel grid="1" page="1" gridSize="10" guides="1" tooltips="1" connect="1" arrows="1" fold="1" pageScale="1" pageWidth="3300" pageHeight="2339" math="0" shadow="0">
      <root>
        <mxCell id="0" />
        <mxCell id="1" parent="0" />
        <mxCell id="Awzx4FFqESrrTiKwuCj9-1" style="edgeStyle=orthogonalEdgeStyle;rounded=0;orthogonalLoop=1;jettySize=auto;html=1;" parent="1" source="Awzx4FFqESrrTiKwuCj9-2" target="Awzx4FFqESrrTiKwuCj9-5" edge="1">
          <mxGeometry relative="1" as="geometry">
            <mxPoint x="-1640" y="-11540" as="targetPoint" />
          </mxGeometry>
        </mxCell>
        <UserObject label="Start" link="data:page/id,-kxxWb5hBgzSHtg66tbn" id="Awzx4FFqESrrTiKwuCj9-2">
          <mxCell style="ellipse;whiteSpace=wrap;html=1;aspect=fixed;fillColor=#d5e8d4;strokeColor=#82b366;" parent="1" vertex="1">
            <mxGeometry x="-1790" y="-11580" width="80" height="80" as="geometry" />
          </mxCell>
        </UserObject>
        <mxCell id="Awzx4FFqESrrTiKwuCj9-3" style="edgeStyle=orthogonalEdgeStyle;rounded=0;orthogonalLoop=1;jettySize=auto;html=1;exitX=0.5;exitY=1;exitDx=0;exitDy=0;entryX=0.5;entryY=0;entryDx=0;entryDy=0;" parent="1" source="Awzx4FFqESrrTiKwuCj9-5" target="Awzx4FFqESrrTiKwuCj9-7" edge="1">
          <mxGeometry relative="1" as="geometry" />
        </mxCell>
        <mxCell id="Awzx4FFqESrrTiKwuCj9-4" style="edgeStyle=orthogonalEdgeStyle;rounded=0;orthogonalLoop=1;jettySize=auto;html=1;entryX=0;entryY=0.5;entryDx=0;entryDy=0;" parent="1" source="Awzx4FFqESrrTiKwuCj9-5" target="Awzx4FFqESrrTiKwuCj9-11" edge="1">
          <mxGeometry relative="1" as="geometry" />
        </mxCell>
        <mxCell id="Awzx4FFqESrrTiKwuCj9-5" value="Add Assign Independent Manager by Audit Manger" style="rounded=0;whiteSpace=wrap;html=1;" parent="1" vertex="1">
          <mxGeometry x="-1650" y="-11570" width="150" height="60" as="geometry" />
        </mxCell>
        <mxCell id="Awzx4FFqESrrTiKwuCj9-7" value="View Assigned Manager By Audit Manager&amp;nbsp;" style="rounded=0;whiteSpace=wrap;html=1;" parent="1" vertex="1">
          <mxGeometry x="-1650" y="-11480" width="150" height="80" as="geometry" />
        </mxCell>
        <mxCell id="Awzx4FFqESrrTiKwuCj9-9" style="edgeStyle=orthogonalEdgeStyle;rounded=0;orthogonalLoop=1;jettySize=auto;html=1;exitX=0.5;exitY=1;exitDx=0;exitDy=0;" parent="1" source="Awzx4FFqESrrTiKwuCj9-11" edge="1">
          <mxGeometry relative="1" as="geometry">
            <mxPoint x="-1375" y="-11480" as="targetPoint" />
          </mxGeometry>
        </mxCell>
        <mxCell id="Awzx4FFqESrrTiKwuCj9-10" style="edgeStyle=orthogonalEdgeStyle;rounded=0;orthogonalLoop=1;jettySize=auto;html=1;exitX=1;exitY=0.5;exitDx=0;exitDy=0;" parent="1" source="Awzx4FFqESrrTiKwuCj9-11" edge="1">
          <mxGeometry relative="1" as="geometry">
            <mxPoint x="-1250" y="-11540" as="targetPoint" />
          </mxGeometry>
        </mxCell>
        <mxCell id="Awzx4FFqESrrTiKwuCj9-11" value="Add Assign EGP Workspace to independent manager by Audit Manager" style="rounded=0;whiteSpace=wrap;html=1;" parent="1" vertex="1">
          <mxGeometry x="-1450" y="-11570" width="150" height="60" as="geometry" />
        </mxCell>
        <mxCell id="Awzx4FFqESrrTiKwuCj9-12" value="View Assign eGP Workspace" style="rounded=0;whiteSpace=wrap;html=1;" parent="1" vertex="1">
          <mxGeometry x="-1450" y="-11480" width="150" height="80" as="geometry" />
        </mxCell>
        <mxCell id="Awzx4FFqESrrTiKwuCj9-13" style="edgeStyle=orthogonalEdgeStyle;rounded=0;orthogonalLoop=1;jettySize=auto;html=1;" parent="1" edge="1">
          <mxGeometry relative="1" as="geometry">
            <mxPoint x="-1375" y="-11370" as="targetPoint" />
            <mxPoint x="-1375" y="-11400" as="sourcePoint" />
          </mxGeometry>
        </mxCell>
        <mxCell id="Awzx4FFqESrrTiKwuCj9-15" style="edgeStyle=orthogonalEdgeStyle;rounded=0;orthogonalLoop=1;jettySize=auto;html=1;exitX=1;exitY=0.5;exitDx=0;exitDy=0;" parent="1" source="Awzx4FFqESrrTiKwuCj9-16" edge="1">
          <mxGeometry relative="1" as="geometry">
            <mxPoint x="-1050" y="-11540" as="targetPoint" />
          </mxGeometry>
        </mxCell>
        <mxCell id="Awzx4FFqESrrTiKwuCj9-16" value="View Audit Planning QA Checklist by Audit Manager&lt;br&gt;Data Coming from Audit Planning QA Checklist" style="rounded=0;whiteSpace=wrap;html=1;" parent="1" vertex="1">
          <mxGeometry x="-1250" y="-11570" width="150" height="60" as="geometry" />
        </mxCell>
        <mxCell id="Awzx4FFqESrrTiKwuCj9-17" style="edgeStyle=orthogonalEdgeStyle;rounded=0;orthogonalLoop=1;jettySize=auto;html=1;exitX=0.5;exitY=1;exitDx=0;exitDy=0;" parent="1" edge="1">
          <mxGeometry relative="1" as="geometry">
            <mxPoint x="-1175" y="-11480" as="targetPoint" />
            <mxPoint x="-1175" y="-11510" as="sourcePoint" />
          </mxGeometry>
        </mxCell>
        <mxCell id="Awzx4FFqESrrTiKwuCj9-18" value="View Field work QA Checklist by Audit Manager&lt;br&gt;Data Coming from Field Work" style="rounded=0;whiteSpace=wrap;html=1;" parent="1" vertex="1">
          <mxGeometry x="-1250" y="-11480" width="150" height="80" as="geometry" />
        </mxCell>
        <mxCell id="Awzx4FFqESrrTiKwuCj9-19" style="edgeStyle=orthogonalEdgeStyle;rounded=0;orthogonalLoop=1;jettySize=auto;html=1;" parent="1" edge="1">
          <mxGeometry relative="1" as="geometry">
            <mxPoint x="-1175" y="-11370" as="targetPoint" />
            <mxPoint x="-1175" y="-11400" as="sourcePoint" />
          </mxGeometry>
        </mxCell>
        <mxCell id="Awzx4FFqESrrTiKwuCj9-28" value="Approve/Reject by&lt;div&gt;Audit Manager&lt;/div&gt;" style="rounded=0;whiteSpace=wrap;html=1;" parent="1" vertex="1">
          <mxGeometry x="-1450" y="-11370" width="150" height="80" as="geometry" />
        </mxCell>
        <mxCell id="KEHHnni72__1aF20Fvul-3" value="&lt;br&gt;&lt;span style=&quot;color: rgb(13, 13, 13); font-family: Söhne, ui-sans-serif, system-ui, -apple-system, &amp;quot;Segoe UI&amp;quot;, Roboto, Ubuntu, Cantarell, &amp;quot;Noto Sans&amp;quot;, sans-serif, &amp;quot;Helvetica Neue&amp;quot;, Arial, &amp;quot;Apple Color Emoji&amp;quot;, &amp;quot;Segoe UI Emoji&amp;quot;, &amp;quot;Segoe UI Symbol&amp;quot;, &amp;quot;Noto Color Emoji&amp;quot;; font-size: 14px; font-style: normal; font-variant-ligatures: normal; font-variant-caps: normal; font-weight: 400; letter-spacing: normal; orphans: 2; text-align: start; text-indent: 0px; text-transform: none; widows: 2; word-spacing: 0px; -webkit-text-stroke-width: 0px; white-space: pre-wrap; background-color: rgb(255, 255, 255); text-decoration-thickness: initial; text-decoration-style: initial; text-decoration-color: initial; display: inline !important; float: none;&quot;&gt;&lt;br/&gt;Independent Manager provided a review for the Audit Manager’s evaluation&lt;/span&gt;&lt;br style=&quot;forced-color-adjust: none; color: rgb(13, 13, 13); font-family: Söhne, ui-sans-serif, system-ui, -apple-system, &amp;quot;Segoe UI&amp;quot;, Roboto, Ubuntu, Cantarell, &amp;quot;Noto Sans&amp;quot;, sans-serif, &amp;quot;Helvetica Neue&amp;quot;, Arial, &amp;quot;Apple Color Emoji&amp;quot;, &amp;quot;Segoe UI Emoji&amp;quot;, &amp;quot;Segoe UI Symbol&amp;quot;, &amp;quot;Noto Color Emoji&amp;quot;; font-size: 14px; font-style: normal; font-variant-ligatures: normal; font-variant-caps: normal; font-weight: 400; letter-spacing: normal; orphans: 2; text-align: start; text-indent: 0px; text-transform: none; widows: 2; word-spacing: 0px; -webkit-text-stroke-width: 0px; white-space: pre-wrap; background-color: rgb(255, 255, 255); text-decoration-thickness: initial; text-decoration-style: initial; text-decoration-color: initial;&quot;&gt;&lt;div&gt;&lt;br/&gt;&lt;/div&gt;" style="rounded=0;whiteSpace=wrap;html=1;" parent="1" vertex="1">
          <mxGeometry x="-1250" y="-11370" width="150" height="90" as="geometry" />
        </mxCell>
        <UserObject label="Next Tab" link="data:page/id,sdMOebaKiwu9kHxDvi5m" id="KEHHnni72__1aF20Fvul-5">
          <mxCell style="ellipse;whiteSpace=wrap;html=1;aspect=fixed;fillColor=#f8cecc;strokeColor=#b85450;" parent="1" vertex="1">
            <mxGeometry x="-1050" y="-11580" width="80" height="80" as="geometry" />
          </mxCell>
        </UserObject>
      </root>
    </mxGraphModel>
  </diagram>
  <diagram id="sdMOebaKiwu9kHxDvi5m" name="Exit Meeting MoMs">
    <mxGraphModel grid="1" page="1" gridSize="10" guides="1" tooltips="1" connect="1" arrows="1" fold="1" pageScale="1" pageWidth="3300" pageHeight="2339" math="0" shadow="0">
      <root>
        <mxCell id="0" />
        <mxCell id="1" parent="0" />
        <mxCell id="vOgis2KyaoCf2csHKE_7-3" style="edgeStyle=orthogonalEdgeStyle;rounded=0;orthogonalLoop=1;jettySize=auto;html=1;exitX=1;exitY=0.5;exitDx=0;exitDy=0;entryX=0;entryY=0.5;entryDx=0;entryDy=0;" parent="1" source="vOgis2KyaoCf2csHKE_7-1" target="vOgis2KyaoCf2csHKE_7-2" edge="1">
          <mxGeometry relative="1" as="geometry" />
        </mxCell>
        <UserObject label="START" link="data:page/id,-kxxWb5hBgzSHtg66tbn" id="vOgis2KyaoCf2csHKE_7-1">
          <mxCell style="ellipse;whiteSpace=wrap;html=1;aspect=fixed;" parent="1" vertex="1">
            <mxGeometry x="250" y="180" width="80" height="80" as="geometry" />
          </mxCell>
        </UserObject>
        <mxCell id="vOgis2KyaoCf2csHKE_7-4" style="edgeStyle=orthogonalEdgeStyle;rounded=0;orthogonalLoop=1;jettySize=auto;html=1;exitX=1;exitY=0.5;exitDx=0;exitDy=0;" parent="1" source="vOgis2KyaoCf2csHKE_7-2" edge="1">
          <mxGeometry relative="1" as="geometry">
            <mxPoint x="580" y="220" as="targetPoint" />
          </mxGeometry>
        </mxCell>
        <mxCell id="vOgis2KyaoCf2csHKE_7-5" style="edgeStyle=orthogonalEdgeStyle;rounded=0;orthogonalLoop=1;jettySize=auto;html=1;exitX=0.5;exitY=1;exitDx=0;exitDy=0;" parent="1" source="vOgis2KyaoCf2csHKE_7-2" edge="1">
          <mxGeometry relative="1" as="geometry">
            <mxPoint x="460" y="290" as="targetPoint" />
          </mxGeometry>
        </mxCell>
        <mxCell id="vOgis2KyaoCf2csHKE_7-2" value="Exit Meeting MoM file Upload by Audit Associate" style="rounded=0;whiteSpace=wrap;html=1;" parent="1" vertex="1">
          <mxGeometry x="400" y="190" width="120" height="60" as="geometry" />
        </mxCell>
        <mxCell id="vOgis2KyaoCf2csHKE_7-6" value="View Upload file by Audit Associate&amp;nbsp;" style="rounded=0;whiteSpace=wrap;html=1;" parent="1" vertex="1">
          <mxGeometry x="400" y="290" width="120" height="60" as="geometry" />
        </mxCell>
        <mxCell id="vOgis2KyaoCf2csHKE_7-12" style="edgeStyle=orthogonalEdgeStyle;rounded=0;orthogonalLoop=1;jettySize=auto;html=1;" parent="1" source="vOgis2KyaoCf2csHKE_7-8" edge="1">
          <mxGeometry relative="1" as="geometry">
            <mxPoint x="740" y="220" as="targetPoint" />
          </mxGeometry>
        </mxCell>
        <mxCell id="vOgis2KyaoCf2csHKE_7-8" value="Add Exit Meeting MoM Users by Audit Associate" style="rounded=0;whiteSpace=wrap;html=1;" parent="1" vertex="1">
          <mxGeometry x="580" y="190" width="120" height="60" as="geometry" />
        </mxCell>
        <mxCell id="vOgis2KyaoCf2csHKE_7-9" style="edgeStyle=orthogonalEdgeStyle;rounded=0;orthogonalLoop=1;jettySize=auto;html=1;exitX=0.5;exitY=1;exitDx=0;exitDy=0;" parent="1" edge="1">
          <mxGeometry relative="1" as="geometry">
            <mxPoint x="640" y="290" as="targetPoint" />
            <mxPoint x="640" y="250" as="sourcePoint" />
          </mxGeometry>
        </mxCell>
        <mxCell id="vOgis2KyaoCf2csHKE_7-11" value="View Users by Audit Associate&amp;nbsp;" style="rounded=0;whiteSpace=wrap;html=1;" parent="1" vertex="1">
          <mxGeometry x="580" y="290" width="120" height="60" as="geometry" />
        </mxCell>
        <mxCell id="vOgis2KyaoCf2csHKE_7-13" value="Add Exit Meeting MoM Agenda by Audit Associate" style="rounded=0;whiteSpace=wrap;html=1;" parent="1" vertex="1">
          <mxGeometry x="740" y="190" width="120" height="60" as="geometry" />
        </mxCell>
        <mxCell id="vOgis2KyaoCf2csHKE_7-14" style="edgeStyle=orthogonalEdgeStyle;rounded=0;orthogonalLoop=1;jettySize=auto;html=1;exitX=0.5;exitY=1;exitDx=0;exitDy=0;" parent="1" edge="1">
          <mxGeometry relative="1" as="geometry">
            <mxPoint x="799.5" y="290" as="targetPoint" />
            <mxPoint x="799.5" y="250" as="sourcePoint" />
          </mxGeometry>
        </mxCell>
        <mxCell id="vOgis2KyaoCf2csHKE_7-15" value="View Agenda by Audit Associate&amp;nbsp;" style="rounded=0;whiteSpace=wrap;html=1;" parent="1" vertex="1">
          <mxGeometry x="740" y="290" width="120" height="60" as="geometry" />
        </mxCell>
        <mxCell id="9_ugwNQ_b7DfnEisMjsv-3" style="edgeStyle=orthogonalEdgeStyle;rounded=0;orthogonalLoop=1;jettySize=auto;html=1;exitX=0.5;exitY=1;exitDx=0;exitDy=0;" parent="1" source="9_ugwNQ_b7DfnEisMjsv-1" target="9_ugwNQ_b7DfnEisMjsv-2" edge="1">
          <mxGeometry relative="1" as="geometry" />
        </mxCell>
        <mxCell id="9_ugwNQ_b7DfnEisMjsv-4" style="edgeStyle=orthogonalEdgeStyle;rounded=0;orthogonalLoop=1;jettySize=auto;html=1;exitX=1;exitY=0.5;exitDx=0;exitDy=0;" parent="1" source="9_ugwNQ_b7DfnEisMjsv-1" edge="1">
          <mxGeometry relative="1" as="geometry">
            <mxPoint x="1070" y="220" as="targetPoint" />
          </mxGeometry>
        </mxCell>
        <mxCell id="9_ugwNQ_b7DfnEisMjsv-1" value="Add Exit Meeting MoM RAID Logs by Audit Associate" style="rounded=0;whiteSpace=wrap;html=1;" parent="1" vertex="1">
          <mxGeometry x="900" y="190" width="120" height="60" as="geometry" />
        </mxCell>
        <mxCell id="9_ugwNQ_b7DfnEisMjsv-2" value="View RAID Logs file by Audit Associate&amp;nbsp;" style="rounded=0;whiteSpace=wrap;html=1;" parent="1" vertex="1">
          <mxGeometry x="900" y="290" width="120" height="60" as="geometry" />
        </mxCell>
        <UserObject label="NEXT TAB" link="data:page/id,nO6HUVBcOzQf7XIppmUd" id="9_ugwNQ_b7DfnEisMjsv-5">
          <mxCell style="ellipse;whiteSpace=wrap;html=1;aspect=fixed;" parent="1" vertex="1">
            <mxGeometry x="1070" y="180" width="80" height="80" as="geometry" />
          </mxCell>
        </UserObject>
      </root>
    </mxGraphModel>
  </diagram>
  <diagram id="nO6HUVBcOzQf7XIppmUd" name="Audit Report QA Checklist">
    <mxGraphModel grid="1" page="1" gridSize="10" guides="1" tooltips="1" connect="1" arrows="1" fold="1" pageScale="1" pageWidth="3300" pageHeight="2339" math="0" shadow="0">
      <root>
        <mxCell id="0" />
        <mxCell id="1" parent="0" />
        <mxCell id="u7MAOHNs_4UVuqxKLlPd-7" style="edgeStyle=orthogonalEdgeStyle;rounded=0;orthogonalLoop=1;jettySize=auto;html=1;exitX=1;exitY=0.5;exitDx=0;exitDy=0;entryX=0;entryY=0.5;entryDx=0;entryDy=0;" edge="1" parent="1" source="u7MAOHNs_4UVuqxKLlPd-1" target="u7MAOHNs_4UVuqxKLlPd-2">
          <mxGeometry relative="1" as="geometry" />
        </mxCell>
        <UserObject label="START&amp;nbsp;" link="data:page/id,-kxxWb5hBgzSHtg66tbn" id="u7MAOHNs_4UVuqxKLlPd-1">
          <mxCell style="ellipse;whiteSpace=wrap;html=1;aspect=fixed;" vertex="1" parent="1">
            <mxGeometry x="390" y="-2660" width="80" height="80" as="geometry" />
          </mxCell>
        </UserObject>
        <mxCell id="u7MAOHNs_4UVuqxKLlPd-3" style="edgeStyle=orthogonalEdgeStyle;rounded=0;orthogonalLoop=1;jettySize=auto;html=1;exitX=0.5;exitY=1;exitDx=0;exitDy=0;" edge="1" parent="1" source="u7MAOHNs_4UVuqxKLlPd-2">
          <mxGeometry relative="1" as="geometry">
            <mxPoint x="590" y="-2550" as="targetPoint" />
          </mxGeometry>
        </mxCell>
        <mxCell id="u7MAOHNs_4UVuqxKLlPd-8" style="edgeStyle=orthogonalEdgeStyle;rounded=0;orthogonalLoop=1;jettySize=auto;html=1;exitX=1;exitY=0.5;exitDx=0;exitDy=0;" edge="1" parent="1" source="u7MAOHNs_4UVuqxKLlPd-2">
          <mxGeometry relative="1" as="geometry">
            <mxPoint x="710" y="-2620" as="targetPoint" />
          </mxGeometry>
        </mxCell>
        <mxCell id="u7MAOHNs_4UVuqxKLlPd-2" value="Add Audit Report QA Checklist by Audit Associate" style="rounded=0;whiteSpace=wrap;html=1;" vertex="1" parent="1">
          <mxGeometry x="530" y="-2650" width="120" height="60" as="geometry" />
        </mxCell>
        <mxCell id="u7MAOHNs_4UVuqxKLlPd-5" style="edgeStyle=orthogonalEdgeStyle;rounded=0;orthogonalLoop=1;jettySize=auto;html=1;exitX=0.5;exitY=1;exitDx=0;exitDy=0;" edge="1" parent="1" source="u7MAOHNs_4UVuqxKLlPd-4">
          <mxGeometry relative="1" as="geometry">
            <mxPoint x="590" y="-2450" as="targetPoint" />
          </mxGeometry>
        </mxCell>
        <mxCell id="u7MAOHNs_4UVuqxKLlPd-4" value="View Audit Report QA Checklist by Audit Associate" style="rounded=0;whiteSpace=wrap;html=1;" vertex="1" parent="1">
          <mxGeometry x="530" y="-2550" width="120" height="60" as="geometry" />
        </mxCell>
        <mxCell id="u7MAOHNs_4UVuqxKLlPd-6" value="Approve/Reject By Audit Head" style="rounded=0;whiteSpace=wrap;html=1;" vertex="1" parent="1">
          <mxGeometry x="530" y="-2450" width="120" height="60" as="geometry" />
        </mxCell>
        <mxCell id="u7MAOHNs_4UVuqxKLlPd-11" style="edgeStyle=orthogonalEdgeStyle;rounded=0;orthogonalLoop=1;jettySize=auto;html=1;exitX=0.5;exitY=1;exitDx=0;exitDy=0;entryX=0.5;entryY=0;entryDx=0;entryDy=0;" edge="1" parent="1" source="u7MAOHNs_4UVuqxKLlPd-9" target="u7MAOHNs_4UVuqxKLlPd-10">
          <mxGeometry relative="1" as="geometry" />
        </mxCell>
        <mxCell id="u7MAOHNs_4UVuqxKLlPd-12" style="edgeStyle=orthogonalEdgeStyle;rounded=0;orthogonalLoop=1;jettySize=auto;html=1;exitX=1;exitY=0.5;exitDx=0;exitDy=0;" edge="1" parent="1" source="u7MAOHNs_4UVuqxKLlPd-9">
          <mxGeometry relative="1" as="geometry">
            <mxPoint x="890" y="-2620" as="targetPoint" />
          </mxGeometry>
        </mxCell>
        <mxCell id="u7MAOHNs_4UVuqxKLlPd-9" value="Add Audit Report QA Checklist with CIA MoM RAID logs by Audit Associate" style="rounded=0;whiteSpace=wrap;html=1;" vertex="1" parent="1">
          <mxGeometry x="710" y="-2650" width="120" height="60" as="geometry" />
        </mxCell>
        <mxCell id="u7MAOHNs_4UVuqxKLlPd-10" value="View Audit Report QA Checklist with CIA MoM RAID logs by Audit Associate" style="rounded=0;whiteSpace=wrap;html=1;" vertex="1" parent="1">
          <mxGeometry x="710" y="-2550" width="120" height="60" as="geometry" />
        </mxCell>
        <UserObject label="NEXT TAB" link="data:page/id,tmQ0x6Ci1NUib2guhXre" id="u7MAOHNs_4UVuqxKLlPd-13">
          <mxCell style="ellipse;whiteSpace=wrap;html=1;aspect=fixed;" vertex="1" parent="1">
            <mxGeometry x="890" y="-2660" width="80" height="80" as="geometry" />
          </mxCell>
        </UserObject>
      </root>
    </mxGraphModel>
  </diagram>
  <diagram id="jOHWCXJ2YlCh6lT8egzE" name="Audit Workpaper Checklist">
    <mxGraphModel dx="1434" dy="738" grid="1" gridSize="10" guides="1" tooltips="1" connect="1" arrows="1" fold="1" page="1" pageScale="1" pageWidth="850" pageHeight="1100" math="0" shadow="0">
      <root>
        <mxCell id="0" />
        <mxCell id="1" parent="0" />
        <mxCell id="KgJnH0HGhW0GfB3erGT0-1" style="edgeStyle=orthogonalEdgeStyle;orthogonalLoop=1;jettySize=auto;html=1;" edge="1" parent="1" source="KgJnH0HGhW0GfB3erGT0-2">
          <mxGeometry relative="1" as="geometry">
            <mxPoint x="325" y="280" as="targetPoint" />
          </mxGeometry>
        </mxCell>
        <mxCell id="KgJnH0HGhW0GfB3erGT0-2" value="&lt;font color=&quot;#ff3333&quot;&gt;&lt;b&gt;Questions&lt;/b&gt;&lt;/font&gt;&lt;div&gt;Select a Checklist Question from the options&lt;/div&gt;" style="rounded=0;whiteSpace=wrap;html=1;" vertex="1" parent="1">
          <mxGeometry x="380" y="250" width="180" height="60" as="geometry" />
        </mxCell>
        <mxCell id="KgJnH0HGhW0GfB3erGT0-3" style="edgeStyle=orthogonalEdgeStyle;orthogonalLoop=1;jettySize=auto;html=1;" edge="1" parent="1" source="KgJnH0HGhW0GfB3erGT0-4">
          <mxGeometry relative="1" as="geometry">
            <mxPoint x="325" y="350" as="targetPoint" />
          </mxGeometry>
        </mxCell>
        <mxCell id="KgJnH0HGhW0GfB3erGT0-4" value="&lt;font color=&quot;#ff3333&quot;&gt;&lt;b&gt;Response&lt;br&gt;&lt;/b&gt;&lt;/font&gt;Choose an option among YES, NO, OTHER" style="rounded=0;whiteSpace=wrap;html=1;" vertex="1" parent="1">
          <mxGeometry x="380" y="320" width="180" height="60" as="geometry" />
        </mxCell>
        <mxCell id="KgJnH0HGhW0GfB3erGT0-5" style="edgeStyle=orthogonalEdgeStyle;orthogonalLoop=1;jettySize=auto;html=1;entryX=0.5;entryY=0;entryDx=0;entryDy=0;" edge="1" parent="1" source="KgJnH0HGhW0GfB3erGT0-6" target="KgJnH0HGhW0GfB3erGT0-7">
          <mxGeometry relative="1" as="geometry" />
        </mxCell>
        <mxCell id="KgJnH0HGhW0GfB3erGT0-6" value="&lt;font color=&quot;#ff3333&quot;&gt;&lt;b&gt;Add Tuple into the Audit Workpaper Checklist Table&lt;/b&gt;&lt;/font&gt;" style="rounded=0;whiteSpace=wrap;html=1;fillColor=#f9f7ed;strokeColor=#36393d;" vertex="1" parent="1">
          <mxGeometry x="230" y="80" width="180" height="60" as="geometry" />
        </mxCell>
        <mxCell id="VGmmPEczxMZcvHbpQkcx-1" style="edgeStyle=orthogonalEdgeStyle;rounded=0;orthogonalLoop=1;jettySize=auto;html=1;exitX=0.5;exitY=1;exitDx=0;exitDy=0;entryX=0;entryY=0.75;entryDx=0;entryDy=0;" edge="1" parent="1" source="KgJnH0HGhW0GfB3erGT0-7" target="KgJnH0HGhW0GfB3erGT0-24">
          <mxGeometry relative="1" as="geometry" />
        </mxCell>
        <mxCell id="KgJnH0HGhW0GfB3erGT0-7" value="&lt;font color=&quot;#808080&quot;&gt;Fields/Attributes of a Single Tuple&lt;/font&gt;" style="ellipse;whiteSpace=wrap;html=1;fillColor=#f5f5f5;fontColor=#333333;strokeColor=#666666;" vertex="1" parent="1">
          <mxGeometry x="250" y="170" width="140" height="60" as="geometry" />
        </mxCell>
        <mxCell id="KgJnH0HGhW0GfB3erGT0-9" style="edgeStyle=orthogonalEdgeStyle;orthogonalLoop=1;jettySize=auto;html=1;" edge="1" parent="1" source="KgJnH0HGhW0GfB3erGT0-10">
          <mxGeometry relative="1" as="geometry">
            <mxPoint x="325" y="420" as="targetPoint" />
          </mxGeometry>
        </mxCell>
        <mxCell id="KgJnH0HGhW0GfB3erGT0-10" value="&lt;div&gt;&lt;font color=&quot;#ff3333&quot;&gt;&lt;b&gt;Additional Remarks&lt;/b&gt;&lt;/font&gt;&lt;/div&gt;&lt;div&gt;Put additional remarks&lt;/div&gt;" style="rounded=0;whiteSpace=wrap;html=1;" vertex="1" parent="1">
          <mxGeometry x="380" y="390" width="180" height="60" as="geometry" />
        </mxCell>
        <mxCell id="KgJnH0HGhW0GfB3erGT0-21" style="edgeStyle=orthogonalEdgeStyle;orthogonalLoop=1;jettySize=auto;html=1;" edge="1" parent="1" source="KgJnH0HGhW0GfB3erGT0-22">
          <mxGeometry relative="1" as="geometry">
            <mxPoint x="325" y="500" as="targetPoint" />
          </mxGeometry>
        </mxCell>
        <mxCell id="KgJnH0HGhW0GfB3erGT0-22" value="&lt;div&gt;&lt;span style=&quot;background-color: initial;&quot;&gt;&lt;font color=&quot;#ff3333&quot;&gt;&lt;b&gt;Upload File&lt;/b&gt;&lt;/font&gt;&lt;/span&gt;&lt;/div&gt;&lt;div&gt;Upload a file as a evidence against the selected question&lt;/div&gt;" style="rounded=0;whiteSpace=wrap;html=1;" vertex="1" parent="1">
          <mxGeometry x="380" y="460" width="180" height="80" as="geometry" />
        </mxCell>
        <mxCell id="KgJnH0HGhW0GfB3erGT0-23" style="edgeStyle=orthogonalEdgeStyle;orthogonalLoop=1;jettySize=auto;html=1;" edge="1" parent="1" source="KgJnH0HGhW0GfB3erGT0-24">
          <mxGeometry relative="1" as="geometry">
            <mxPoint x="325" y="590" as="targetPoint" />
          </mxGeometry>
        </mxCell>
        <mxCell id="KgJnH0HGhW0GfB3erGT0-24" value="&lt;div&gt;&lt;span style=&quot;background-color: initial;&quot;&gt;&lt;font color=&quot;#ff3333&quot;&gt;&lt;b&gt;Finalize The Question&lt;/b&gt;&lt;/font&gt;&lt;/span&gt;&lt;/div&gt;&lt;div&gt;Result will be displayed once it get approved by the administrator&amp;nbsp;&lt;/div&gt;" style="rounded=0;whiteSpace=wrap;html=1;" vertex="1" parent="1">
          <mxGeometry x="380" y="550" width="180" height="80" as="geometry" />
        </mxCell>
      </root>
    </mxGraphModel>
  </diagram>
  <diagram id="tmQ0x6Ci1NUib2guhXre" name="Final Draft IA Report">
    <mxGraphModel grid="1" page="1" gridSize="10" guides="1" tooltips="1" connect="1" arrows="1" fold="1" pageScale="1" pageWidth="3300" pageHeight="2339" math="0" shadow="0">
      <root>
        <mxCell id="0" />
        <mxCell id="1" parent="0" />
        <mxCell id="SiEWe1X_XhlnvPOy4BwH-5" style="edgeStyle=orthogonalEdgeStyle;rounded=0;orthogonalLoop=1;jettySize=auto;html=1;exitX=1;exitY=0.5;exitDx=0;exitDy=0;" edge="1" parent="1" source="gy7tG_5fZnCZ6gw20eWP-1" target="gy7tG_5fZnCZ6gw20eWP-2">
          <mxGeometry relative="1" as="geometry" />
        </mxCell>
        <UserObject label="Start" link="data:page/id,-kxxWb5hBgzSHtg66tbn" id="gy7tG_5fZnCZ6gw20eWP-1">
          <mxCell style="ellipse;whiteSpace=wrap;html=1;aspect=fixed;" parent="1" vertex="1">
            <mxGeometry x="240" y="130" width="80" height="80" as="geometry" />
          </mxCell>
        </UserObject>
        <mxCell id="SiEWe1X_XhlnvPOy4BwH-1" style="edgeStyle=orthogonalEdgeStyle;rounded=0;orthogonalLoop=1;jettySize=auto;html=1;exitX=0.5;exitY=1;exitDx=0;exitDy=0;entryX=0.5;entryY=0;entryDx=0;entryDy=0;" edge="1" parent="1" source="gy7tG_5fZnCZ6gw20eWP-2" target="gy7tG_5fZnCZ6gw20eWP-3">
          <mxGeometry relative="1" as="geometry" />
        </mxCell>
        <mxCell id="SiEWe1X_XhlnvPOy4BwH-4" style="edgeStyle=orthogonalEdgeStyle;rounded=0;orthogonalLoop=1;jettySize=auto;html=1;exitX=1;exitY=0.5;exitDx=0;exitDy=0;entryX=0;entryY=0.5;entryDx=0;entryDy=0;" edge="1" parent="1" source="gy7tG_5fZnCZ6gw20eWP-2" target="gy7tG_5fZnCZ6gw20eWP-4">
          <mxGeometry relative="1" as="geometry" />
        </mxCell>
        <mxCell id="gy7tG_5fZnCZ6gw20eWP-2" value="&lt;div&gt;Add Financial and Non Financial Statics&lt;/div&gt;" style="rounded=0;whiteSpace=wrap;html=1;" vertex="1" parent="1">
          <mxGeometry x="370" y="140" width="120" height="60" as="geometry" />
        </mxCell>
        <mxCell id="gy7tG_5fZnCZ6gw20eWP-3" value="&lt;div&gt;View Financial and Non Financial Statistics&lt;/div&gt;" style="rounded=0;whiteSpace=wrap;html=1;" vertex="1" parent="1">
          <mxGeometry x="370" y="250" width="120" height="60" as="geometry" />
        </mxCell>
        <mxCell id="gy7tG_5fZnCZ6gw20eWP-7" style="edgeStyle=orthogonalEdgeStyle;rounded=0;orthogonalLoop=1;jettySize=auto;html=1;" edge="1" parent="1" source="gy7tG_5fZnCZ6gw20eWP-4">
          <mxGeometry relative="1" as="geometry">
            <mxPoint x="750" y="170" as="targetPoint" />
          </mxGeometry>
        </mxCell>
        <mxCell id="SiEWe1X_XhlnvPOy4BwH-2" style="edgeStyle=orthogonalEdgeStyle;rounded=0;orthogonalLoop=1;jettySize=auto;html=1;exitX=0.5;exitY=1;exitDx=0;exitDy=0;" edge="1" parent="1" source="gy7tG_5fZnCZ6gw20eWP-4" target="gy7tG_5fZnCZ6gw20eWP-5">
          <mxGeometry relative="1" as="geometry" />
        </mxCell>
        <mxCell id="gy7tG_5fZnCZ6gw20eWP-4" value="&lt;div&gt;Add Summary of&amp;nbsp; Matters Noted&amp;nbsp;&lt;/div&gt;" style="rounded=0;whiteSpace=wrap;html=1;" vertex="1" parent="1">
          <mxGeometry x="550" y="140" width="120" height="60" as="geometry" />
        </mxCell>
        <mxCell id="SiEWe1X_XhlnvPOy4BwH-3" style="edgeStyle=orthogonalEdgeStyle;rounded=0;orthogonalLoop=1;jettySize=auto;html=1;exitX=0.5;exitY=1;exitDx=0;exitDy=0;entryX=0.5;entryY=0;entryDx=0;entryDy=0;" edge="1" parent="1" source="gy7tG_5fZnCZ6gw20eWP-5" target="gy7tG_5fZnCZ6gw20eWP-6">
          <mxGeometry relative="1" as="geometry" />
        </mxCell>
        <mxCell id="gy7tG_5fZnCZ6gw20eWP-5" value="&lt;div&gt;View&amp;nbsp;&amp;nbsp;&lt;span style=&quot;background-color: initial;&quot;&gt;Summary of&amp;nbsp; Matters Noted&lt;/span&gt;&lt;/div&gt;" style="rounded=0;whiteSpace=wrap;html=1;" vertex="1" parent="1">
          <mxGeometry x="550" y="250" width="120" height="60" as="geometry" />
        </mxCell>
        <mxCell id="gy7tG_5fZnCZ6gw20eWP-6" value="&lt;div&gt;View&amp;nbsp; Casualty Analytics&lt;/div&gt;" style="rounded=0;whiteSpace=wrap;html=1;" vertex="1" parent="1">
          <mxGeometry x="550" y="350" width="120" height="60" as="geometry" />
        </mxCell>
        <UserObject label="NEXT TAB" link="data:page/id,6ldmr75Alx0e23TCBMOS" id="gy7tG_5fZnCZ6gw20eWP-8">
          <mxCell style="ellipse;whiteSpace=wrap;html=1;aspect=fixed;" vertex="1" parent="1">
            <mxGeometry x="750" y="130" width="80" height="80" as="geometry" />
          </mxCell>
        </UserObject>
      </root>
    </mxGraphModel>
  </diagram>
  <diagram id="E-SuewBdt1aC3bwkr6U8" name="Independent manager review lev 1">
    <mxGraphModel grid="1" page="1" gridSize="10" guides="1" tooltips="1" connect="1" arrows="1" fold="1" pageScale="1" pageWidth="850" pageHeight="1100" math="0" shadow="0">
      <root>
        <mxCell id="0" />
        <mxCell id="1" parent="0" />
        <mxCell id="WPBTzJt74nRuMgWxJ0Jb-4" value="" style="edgeStyle=orthogonalEdgeStyle;rounded=1;orthogonalLoop=1;jettySize=auto;html=1;entryX=0;entryY=0.5;entryDx=0;entryDy=0;" parent="1" source="WPBTzJt74nRuMgWxJ0Jb-1" target="WPBTzJt74nRuMgWxJ0Jb-2" edge="1">
          <mxGeometry relative="1" as="geometry">
            <mxPoint x="200" as="targetPoint" />
          </mxGeometry>
        </mxCell>
        <mxCell id="WPBTzJt74nRuMgWxJ0Jb-1" value="START" style="ellipse;whiteSpace=wrap;html=1;aspect=fixed;fillColor=#d5e8d4;strokeColor=#82b366;rounded=1;" parent="1" vertex="1">
          <mxGeometry x="90" y="90" width="80" height="80" as="geometry" />
        </mxCell>
        <mxCell id="WPBTzJt74nRuMgWxJ0Jb-2" value="List Assigned Audits To&amp;nbsp; Review By Manager" style="whiteSpace=wrap;html=1;aspect=fixed;fillColor=#ffe6cc;strokeColor=#d79b00;rounded=1;" parent="1" vertex="1">
          <mxGeometry x="250" y="80" width="100" height="100" as="geometry" />
        </mxCell>
        <mxCell id="WPBTzJt74nRuMgWxJ0Jb-7" value="Open eGP Workspace&amp;nbsp;" style="rounded=1;whiteSpace=wrap;html=1;fillColor=#e1d5e7;strokeColor=#9673a6;" parent="1" vertex="1">
          <mxGeometry x="490" y="40" width="120" height="60" as="geometry" />
        </mxCell>
        <mxCell id="WPBTzJt74nRuMgWxJ0Jb-13" value="" style="strokeWidth=2;html=1;shape=mxgraph.flowchart.annotation_2;align=left;labelPosition=right;pointerEvents=1;rounded=1;" parent="1" vertex="1">
          <mxGeometry x="350" y="80" width="140" height="100" as="geometry" />
        </mxCell>
        <mxCell id="WPBTzJt74nRuMgWxJ0Jb-47" style="edgeStyle=orthogonalEdgeStyle;rounded=1;orthogonalLoop=1;jettySize=auto;html=1;exitX=0.5;exitY=1;exitDx=0;exitDy=0;entryX=0;entryY=0.75;entryDx=0;entryDy=0;" edge="1" parent="1" source="WPBTzJt74nRuMgWxJ0Jb-14" target="WPBTzJt74nRuMgWxJ0Jb-42">
          <mxGeometry relative="1" as="geometry">
            <Array as="points">
              <mxPoint x="550" y="455" />
            </Array>
          </mxGeometry>
        </mxCell>
        <mxCell id="WPBTzJt74nRuMgWxJ0Jb-14" value="Feedback Form" style="rounded=1;whiteSpace=wrap;html=1;fillColor=#e1d5e7;strokeColor=#9673a6;" parent="1" vertex="1">
          <mxGeometry x="490" y="150" width="120" height="60" as="geometry" />
        </mxCell>
        <mxCell id="WPBTzJt74nRuMgWxJ0Jb-18" value="" style="endArrow=none;html=1;rounded=1;" parent="1" edge="1">
          <mxGeometry width="50" height="50" relative="1" as="geometry">
            <mxPoint x="546" y="150" as="sourcePoint" />
            <mxPoint x="546" y="101" as="targetPoint" />
            <Array as="points">
              <mxPoint x="546" y="151" />
              <mxPoint x="546" y="131" />
            </Array>
          </mxGeometry>
        </mxCell>
        <mxCell id="WPBTzJt74nRuMgWxJ0Jb-38" value="Manage response and remarks for Fieldwork QA checklist" style="rounded=1;whiteSpace=wrap;html=1;fillColor=#dae8fc;strokeColor=#6c8ebf;gradientColor=#7ea6e0;" vertex="1" parent="1">
          <mxGeometry x="640" y="330" width="120" height="60" as="geometry" />
        </mxCell>
        <mxCell id="WPBTzJt74nRuMgWxJ0Jb-41" value="Manage response and remarks for Audit planning QA checklist" style="rounded=1;whiteSpace=wrap;html=1;fillColor=#dae8fc;strokeColor=#6c8ebf;gradientColor=#7ea6e0;" vertex="1" parent="1">
          <mxGeometry x="640" y="240" width="120" height="60" as="geometry" />
        </mxCell>
        <mxCell id="CgoY8KygR7QNzzze3urc-1" style="edgeStyle=orthogonalEdgeStyle;rounded=0;orthogonalLoop=1;jettySize=auto;html=1;exitX=0.5;exitY=1;exitDx=0;exitDy=0;" edge="1" parent="1" source="WPBTzJt74nRuMgWxJ0Jb-42">
          <mxGeometry relative="1" as="geometry">
            <mxPoint x="700" y="530" as="targetPoint" />
          </mxGeometry>
        </mxCell>
        <mxCell id="WPBTzJt74nRuMgWxJ0Jb-42" value="Manage response and remarks for Fieldwork QA checklist" style="rounded=1;whiteSpace=wrap;html=1;fillColor=#d5e8d4;strokeColor=#82b366;gradientColor=#97d077;" vertex="1" parent="1">
          <mxGeometry x="640" y="410" width="120" height="60" as="geometry" />
        </mxCell>
        <mxCell id="WPBTzJt74nRuMgWxJ0Jb-50" value="" style="endArrow=classic;html=1;rounded=1;" edge="1" parent="1">
          <mxGeometry width="50" height="50" relative="1" as="geometry">
            <mxPoint x="550" y="281" as="sourcePoint" />
            <mxPoint x="640" y="281" as="targetPoint" />
          </mxGeometry>
        </mxCell>
        <mxCell id="WPBTzJt74nRuMgWxJ0Jb-51" value="" style="endArrow=classic;html=1;rounded=1;" edge="1" parent="1">
          <mxGeometry width="50" height="50" relative="1" as="geometry">
            <mxPoint x="550" y="355" as="sourcePoint" />
            <mxPoint x="639" y="355" as="targetPoint" />
            <Array as="points">
              <mxPoint x="609" y="355" />
            </Array>
          </mxGeometry>
        </mxCell>
        <UserObject label="END" link="data:page/id,rfpji_oR26iXnu8gp6y1" id="CgoY8KygR7QNzzze3urc-2">
          <mxCell style="ellipse;whiteSpace=wrap;html=1;aspect=fixed;fillColor=#f8cecc;strokeColor=#b85450;rounded=1;" vertex="1" parent="1">
            <mxGeometry x="660" y="530" width="80" height="80" as="geometry" />
          </mxCell>
        </UserObject>
      </root>
    </mxGraphModel>
  </diagram>
  <diagram id="6ldmr75Alx0e23TCBMOS" name="Audit Action Plan Workshop">
    <mxGraphModel grid="1" page="1" gridSize="10" guides="1" tooltips="1" connect="1" arrows="1" fold="1" pageScale="1" pageWidth="3300" pageHeight="2339" math="0" shadow="0">
      <root>
        <mxCell id="0" />
        <mxCell id="1" parent="0" />
        <mxCell id="ujqhPmcFm_JuTy-t31r4-1" style="edgeStyle=orthogonalEdgeStyle;rounded=1;orthogonalLoop=1;jettySize=auto;html=1;exitX=1;exitY=0.5;exitDx=0;exitDy=0;entryX=0;entryY=0.5;entryDx=0;entryDy=0;" edge="1" parent="1" source="aYyKv38HQ8w4AGHJZ_fq-1" target="aYyKv38HQ8w4AGHJZ_fq-2">
          <mxGeometry relative="1" as="geometry" />
        </mxCell>
        <UserObject label="Start" link="data:page/id,-kxxWb5hBgzSHtg66tbn" id="aYyKv38HQ8w4AGHJZ_fq-1">
          <mxCell style="ellipse;whiteSpace=wrap;html=1;aspect=fixed;rounded=1;" vertex="1" parent="1">
            <mxGeometry x="240" y="130" width="80" height="80" as="geometry" />
          </mxCell>
        </UserObject>
        <mxCell id="ujqhPmcFm_JuTy-t31r4-24" style="edgeStyle=orthogonalEdgeStyle;rounded=1;orthogonalLoop=1;jettySize=auto;html=1;" edge="1" parent="1" source="aYyKv38HQ8w4AGHJZ_fq-2" target="ujqhPmcFm_JuTy-t31r4-15">
          <mxGeometry relative="1" as="geometry" />
        </mxCell>
        <mxCell id="ujqhPmcFm_JuTy-t31r4-26" style="edgeStyle=orthogonalEdgeStyle;rounded=1;orthogonalLoop=1;jettySize=auto;html=1;" edge="1" parent="1" source="aYyKv38HQ8w4AGHJZ_fq-2" target="ujqhPmcFm_JuTy-t31r4-23">
          <mxGeometry relative="1" as="geometry">
            <Array as="points">
              <mxPoint x="660" y="230" />
              <mxPoint x="760" y="230" />
            </Array>
          </mxGeometry>
        </mxCell>
        <mxCell id="aYyKv38HQ8w4AGHJZ_fq-2" value="Add Management Action Plan&amp;nbsp;" style="rounded=1;whiteSpace=wrap;html=1;fillColor=#dae8fc;strokeColor=#6c8ebf;" vertex="1" parent="1">
          <mxGeometry x="600" y="140" width="120" height="60" as="geometry" />
        </mxCell>
        <mxCell id="ujqhPmcFm_JuTy-t31r4-15" value="Select a matter name from dropdown list which is comming from Final draft IA report Where summary of matter Noted" style="rounded=1;whiteSpace=wrap;html=1;fillColor=#ffe6cc;strokeColor=#d79b00;" vertex="1" parent="1">
          <mxGeometry x="480" y="260" width="160" height="110" as="geometry" />
        </mxCell>
        <mxCell id="ujqhPmcFm_JuTy-t31r4-21" style="edgeStyle=orthogonalEdgeStyle;rounded=1;orthogonalLoop=1;jettySize=auto;html=1;exitX=0.5;exitY=1;exitDx=0;exitDy=0;" edge="1" parent="1" source="ujqhPmcFm_JuTy-t31r4-15" target="ujqhPmcFm_JuTy-t31r4-15">
          <mxGeometry relative="1" as="geometry" />
        </mxCell>
        <mxCell id="ujqhPmcFm_JuTy-t31r4-27" style="edgeStyle=orthogonalEdgeStyle;rounded=1;orthogonalLoop=1;jettySize=auto;html=1;" edge="1" parent="1" source="ujqhPmcFm_JuTy-t31r4-23">
          <mxGeometry relative="1" as="geometry">
            <mxPoint x="770" y="450" as="targetPoint" />
          </mxGeometry>
        </mxCell>
        <mxCell id="ujqhPmcFm_JuTy-t31r4-23" value="Select start date ,end date, action plan owner and department" style="rounded=1;whiteSpace=wrap;html=1;fillColor=#ffe6cc;strokeColor=#d79b00;" vertex="1" parent="1">
          <mxGeometry x="700" y="260" width="140" height="110" as="geometry" />
        </mxCell>
        <mxCell id="ujqhPmcFm_JuTy-t31r4-28" value="Action plan to transfer an action to other department" style="rounded=1;whiteSpace=wrap;html=1;fillColor=#f5f5f5;gradientColor=#b3b3b3;strokeColor=#666666;" vertex="1" parent="1">
          <mxGeometry x="700" y="450" width="160" height="30" as="geometry" />
        </mxCell>
        <mxCell id="ujqhPmcFm_JuTy-t31r4-36" style="edgeStyle=orthogonalEdgeStyle;rounded=1;orthogonalLoop=1;jettySize=auto;html=1;" edge="1" parent="1" source="ujqhPmcFm_JuTy-t31r4-32">
          <mxGeometry relative="1" as="geometry">
            <mxPoint x="770" y="750" as="targetPoint" />
          </mxGeometry>
        </mxCell>
        <mxCell id="ujqhPmcFm_JuTy-t31r4-32" value="Select Action owner name, description, and reviewer for the action" style="rounded=1;whiteSpace=wrap;html=1;fillColor=#fff2cc;gradientColor=#ffd966;strokeColor=#d6b656;" vertex="1" parent="1">
          <mxGeometry x="695" y="580" width="150" height="70" as="geometry" />
        </mxCell>
        <mxCell id="ujqhPmcFm_JuTy-t31r4-34" style="edgeStyle=orthogonalEdgeStyle;rounded=1;orthogonalLoop=1;jettySize=auto;html=1;entryX=0.571;entryY=0.008;entryDx=0;entryDy=0;entryPerimeter=0;" edge="1" parent="1" source="ujqhPmcFm_JuTy-t31r4-28" target="ujqhPmcFm_JuTy-t31r4-32">
          <mxGeometry relative="1" as="geometry">
            <Array as="points">
              <mxPoint x="780" y="530" />
            </Array>
          </mxGeometry>
        </mxCell>
        <mxCell id="ujqhPmcFm_JuTy-t31r4-49" value="" style="edgeStyle=orthogonalEdgeStyle;rounded=1;orthogonalLoop=1;jettySize=auto;html=1;" edge="1" parent="1" source="ujqhPmcFm_JuTy-t31r4-42" target="ujqhPmcFm_JuTy-t31r4-43">
          <mxGeometry relative="1" as="geometry" />
        </mxCell>
        <mxCell id="ujqhPmcFm_JuTy-t31r4-42" value="Upload document on the basis of Action plan" style="rounded=1;whiteSpace=wrap;html=1;fillColor=#fff2cc;gradientColor=#ffd966;strokeColor=#d6b656;" vertex="1" parent="1">
          <mxGeometry x="710" y="750" width="120" height="60" as="geometry" />
        </mxCell>
        <mxCell id="ujqhPmcFm_JuTy-t31r4-50" style="edgeStyle=orthogonalEdgeStyle;rounded=1;orthogonalLoop=1;jettySize=auto;html=1;" edge="1" parent="1" source="ujqhPmcFm_JuTy-t31r4-43">
          <mxGeometry relative="1" as="geometry">
            <mxPoint x="770" y="1000" as="targetPoint" />
          </mxGeometry>
        </mxCell>
        <mxCell id="ujqhPmcFm_JuTy-t31r4-51" style="edgeStyle=orthogonalEdgeStyle;rounded=1;orthogonalLoop=1;jettySize=auto;html=1;" edge="1" parent="1" source="ujqhPmcFm_JuTy-t31r4-43">
          <mxGeometry relative="1" as="geometry">
            <mxPoint x="860" y="890" as="targetPoint" />
          </mxGeometry>
        </mxCell>
        <mxCell id="ujqhPmcFm_JuTy-t31r4-43" value="Approval status" style="rhombus;whiteSpace=wrap;html=1;rounded=1;fillColor=#e6d0de;gradientColor=#d5739d;strokeColor=#996185;" vertex="1" parent="1">
          <mxGeometry x="730" y="850" width="80" height="80" as="geometry" />
        </mxCell>
        <mxCell id="ujqhPmcFm_JuTy-t31r4-52" value="No" style="rounded=1;whiteSpace=wrap;html=1;fillColor=#f8cecc;gradientColor=#ea6b66;strokeColor=#b85450;" vertex="1" parent="1">
          <mxGeometry x="860" y="860" width="70" height="50" as="geometry" />
        </mxCell>
        <mxCell id="ujqhPmcFm_JuTy-t31r4-54" style="edgeStyle=orthogonalEdgeStyle;rounded=1;orthogonalLoop=1;jettySize=auto;html=1;" edge="1" parent="1" source="ujqhPmcFm_JuTy-t31r4-53">
          <mxGeometry relative="1" as="geometry">
            <mxPoint x="775" y="1120" as="targetPoint" />
          </mxGeometry>
        </mxCell>
        <mxCell id="ujqhPmcFm_JuTy-t31r4-53" value="YES" style="rounded=1;whiteSpace=wrap;html=1;fillColor=#d5e8d4;gradientColor=#97d077;strokeColor=#82b366;" vertex="1" parent="1">
          <mxGeometry x="740" y="1000" width="70" height="40" as="geometry" />
        </mxCell>
        <mxCell id="ujqhPmcFm_JuTy-t31r4-56" style="edgeStyle=orthogonalEdgeStyle;rounded=1;orthogonalLoop=1;jettySize=auto;html=1;" edge="1" parent="1" source="ujqhPmcFm_JuTy-t31r4-55">
          <mxGeometry relative="1" as="geometry">
            <mxPoint x="600" y="1150" as="targetPoint" />
          </mxGeometry>
        </mxCell>
        <mxCell id="ujqhPmcFm_JuTy-t31r4-55" value="Transfer to another department" style="rounded=1;whiteSpace=wrap;html=1;fillColor=#fff2cc;gradientColor=#ffd966;strokeColor=#d6b656;" vertex="1" parent="1">
          <mxGeometry x="720" y="1120" width="120" height="60" as="geometry" />
        </mxCell>
        <mxCell id="ujqhPmcFm_JuTy-t31r4-57" value="Departname where it will be transfer, comments and submit for transfer" style="rounded=1;whiteSpace=wrap;html=1;fillColor=#fff2cc;gradientColor=#ffd966;strokeColor=#d6b656;" vertex="1" parent="1">
          <mxGeometry x="450" y="1110" width="150" height="80" as="geometry" />
        </mxCell>
        <mxCell id="ujqhPmcFm_JuTy-t31r4-63" style="edgeStyle=orthogonalEdgeStyle;rounded=1;orthogonalLoop=1;jettySize=auto;html=1;" edge="1" parent="1" source="ujqhPmcFm_JuTy-t31r4-59">
          <mxGeometry relative="1" as="geometry">
            <mxPoint x="1030" y="840" as="targetPoint" />
          </mxGeometry>
        </mxCell>
        <mxCell id="ujqhPmcFm_JuTy-t31r4-59" value="Info" style="rhombus;whiteSpace=wrap;html=1;rounded=1;fillColor=#f8cecc;gradientColor=#ea6b66;strokeColor=#b85450;" vertex="1" parent="1">
          <mxGeometry x="990" y="685" width="80" height="80" as="geometry" />
        </mxCell>
        <mxCell id="ujqhPmcFm_JuTy-t31r4-61" value="" style="shape=curlyBracket;whiteSpace=wrap;html=1;rounded=1;flipH=1;labelPosition=right;verticalLabelPosition=middle;align=left;verticalAlign=middle;size=0.5;" vertex="1" parent="1">
          <mxGeometry x="950" y="290" width="51" height="870" as="geometry" />
        </mxCell>
        <mxCell id="ujqhPmcFm_JuTy-t31r4-65" value="Current status" style="rounded=1;whiteSpace=wrap;html=1;fillColor=#f5f5f5;gradientColor=#b3b3b3;strokeColor=#666666;" vertex="1" parent="1">
          <mxGeometry x="990" y="840" width="90" height="60" as="geometry" />
        </mxCell>
      </root>
    </mxGraphModel>
  </diagram>
</mxfile>
